G04 #@! TF.GenerationSoftware,KiCad,Pcbnew,(5.0.2)-1*
G04 #@! TF.CreationDate,2019-01-02T23:13:23+01:00*
G04 #@! TF.ProjectId,ArduinoS88,41726475-696e-46f5-9338-382e6b696361,rev?*
G04 #@! TF.SameCoordinates,Original*
G04 #@! TF.FileFunction,Copper,L2,Bot*
G04 #@! TF.FilePolarity,Positive*
%FSLAX46Y46*%
G04 Gerber Fmt 4.6, Leading zero omitted, Abs format (unit mm)*
G04 Created by KiCad (PCBNEW (5.0.2)-1) date 02.01.2019 23:13:23*
%MOMM*%
%LPD*%
G01*
G04 APERTURE LIST*
G04 #@! TA.AperFunction,ComponentPad*
%ADD10R,1.727200X1.727200*%
G04 #@! TD*
G04 #@! TA.AperFunction,ComponentPad*
%ADD11O,1.727200X1.727200*%
G04 #@! TD*
G04 #@! TA.AperFunction,ComponentPad*
%ADD12O,1.600000X1.600000*%
G04 #@! TD*
G04 #@! TA.AperFunction,ComponentPad*
%ADD13R,1.600000X1.600000*%
G04 #@! TD*
G04 #@! TA.AperFunction,ComponentPad*
%ADD14O,1.700000X1.700000*%
G04 #@! TD*
G04 #@! TA.AperFunction,ComponentPad*
%ADD15R,1.700000X1.700000*%
G04 #@! TD*
G04 #@! TA.AperFunction,ComponentPad*
%ADD16C,5.600000*%
G04 #@! TD*
G04 #@! TA.AperFunction,ComponentPad*
%ADD17C,1.600000*%
G04 #@! TD*
G04 #@! TA.AperFunction,ComponentPad*
%ADD18C,1.200000*%
G04 #@! TD*
G04 #@! TA.AperFunction,ComponentPad*
%ADD19R,1.200000X1.200000*%
G04 #@! TD*
G04 #@! TA.AperFunction,ComponentPad*
%ADD20C,3.000000*%
G04 #@! TD*
G04 #@! TA.AperFunction,ComponentPad*
%ADD21R,3.000000X3.000000*%
G04 #@! TD*
G04 #@! TA.AperFunction,Conductor*
%ADD22C,0.100000*%
G04 #@! TD*
G04 #@! TA.AperFunction,ComponentPad*
%ADD23C,1.740000*%
G04 #@! TD*
G04 #@! TA.AperFunction,ComponentPad*
%ADD24O,1.740000X2.200000*%
G04 #@! TD*
G04 #@! TA.AperFunction,ViaPad*
%ADD25C,1.600000*%
G04 #@! TD*
G04 #@! TA.AperFunction,ViaPad*
%ADD26C,0.800000*%
G04 #@! TD*
G04 #@! TA.AperFunction,Conductor*
%ADD27C,1.200000*%
G04 #@! TD*
G04 #@! TA.AperFunction,Conductor*
%ADD28C,0.250000*%
G04 #@! TD*
G04 #@! TA.AperFunction,Conductor*
%ADD29C,0.254000*%
G04 #@! TD*
G04 APERTURE END LIST*
D10*
G04 #@! TO.P,J3,1*
G04 #@! TO.N,/In8*
X86360000Y-67310000D03*
D11*
G04 #@! TO.P,J3,2*
G04 #@! TO.N,VCC*
X83820000Y-67310000D03*
G04 #@! TO.P,J3,3*
G04 #@! TO.N,/In9*
X86360000Y-64770000D03*
G04 #@! TO.P,J3,4*
G04 #@! TO.N,/In7*
X83820000Y-64770000D03*
G04 #@! TO.P,J3,5*
G04 #@! TO.N,Net-(J3-Pad5)*
X86360000Y-62230000D03*
G04 #@! TO.P,J3,6*
G04 #@! TO.N,GND*
X83820000Y-62230000D03*
G04 #@! TD*
D12*
G04 #@! TO.P,U1,28*
G04 #@! TO.N,/In15*
X102870000Y-39370000D03*
G04 #@! TO.P,U1,14*
G04 #@! TO.N,/In4*
X95250000Y-72390000D03*
G04 #@! TO.P,U1,27*
G04 #@! TO.N,/In14*
X102870000Y-41910000D03*
G04 #@! TO.P,U1,13*
G04 #@! TO.N,/In3*
X95250000Y-69850000D03*
G04 #@! TO.P,U1,26*
G04 #@! TO.N,/In13*
X102870000Y-44450000D03*
G04 #@! TO.P,U1,12*
G04 #@! TO.N,/In2*
X95250000Y-67310000D03*
G04 #@! TO.P,U1,25*
G04 #@! TO.N,/In12*
X102870000Y-46990000D03*
G04 #@! TO.P,U1,11*
G04 #@! TO.N,/In1*
X95250000Y-64770000D03*
G04 #@! TO.P,U1,24*
G04 #@! TO.N,/In11*
X102870000Y-49530000D03*
G04 #@! TO.P,U1,10*
G04 #@! TO.N,/Cfg1*
X95250000Y-62230000D03*
G04 #@! TO.P,U1,23*
G04 #@! TO.N,/In10*
X102870000Y-52070000D03*
G04 #@! TO.P,U1,9*
G04 #@! TO.N,/Cfg0*
X95250000Y-59690000D03*
G04 #@! TO.P,U1,22*
G04 #@! TO.N,GND*
X102870000Y-54610000D03*
G04 #@! TO.P,U1,8*
X95250000Y-57150000D03*
G04 #@! TO.P,U1,21*
G04 #@! TO.N,VCC*
X102870000Y-57150000D03*
G04 #@! TO.P,U1,7*
X95250000Y-54610000D03*
G04 #@! TO.P,U1,20*
X102870000Y-59690000D03*
G04 #@! TO.P,U1,6*
G04 #@! TO.N,/In0*
X95250000Y-52070000D03*
G04 #@! TO.P,U1,19*
G04 #@! TO.N,/In9*
X102870000Y-62230000D03*
G04 #@! TO.P,U1,5*
G04 #@! TO.N,/S88_PS*
X95250000Y-49530000D03*
G04 #@! TO.P,U1,18*
G04 #@! TO.N,/In8*
X102870000Y-64770000D03*
G04 #@! TO.P,U1,4*
G04 #@! TO.N,/S88_CLK*
X95250000Y-46990000D03*
G04 #@! TO.P,U1,17*
G04 #@! TO.N,/In7*
X102870000Y-67310000D03*
G04 #@! TO.P,U1,3*
G04 #@! TO.N,/S88_DataOut*
X95250000Y-44450000D03*
G04 #@! TO.P,U1,16*
G04 #@! TO.N,/In6*
X102870000Y-69850000D03*
G04 #@! TO.P,U1,2*
G04 #@! TO.N,/S88_DataIn*
X95250000Y-41910000D03*
G04 #@! TO.P,U1,15*
G04 #@! TO.N,/In5*
X102870000Y-72390000D03*
D13*
G04 #@! TO.P,U1,1*
G04 #@! TO.N,Net-(J3-Pad5)*
X95250000Y-39370000D03*
G04 #@! TD*
D14*
G04 #@! TO.P,J2,6*
G04 #@! TO.N,VCC*
X106680000Y-76200000D03*
G04 #@! TO.P,J2,5*
G04 #@! TO.N,/S88_Reset*
X104140000Y-76200000D03*
G04 #@! TO.P,J2,4*
G04 #@! TO.N,/S88_PS*
X101600000Y-76200000D03*
G04 #@! TO.P,J2,3*
G04 #@! TO.N,/S88_CLK*
X99060000Y-76200000D03*
G04 #@! TO.P,J2,2*
G04 #@! TO.N,GND*
X96520000Y-76200000D03*
D15*
G04 #@! TO.P,J2,1*
G04 #@! TO.N,/S88_DataIn*
X93980000Y-76200000D03*
G04 #@! TD*
D14*
G04 #@! TO.P,J1,6*
G04 #@! TO.N,VCC*
X106680000Y-30480000D03*
G04 #@! TO.P,J1,5*
G04 #@! TO.N,/S88_Reset*
X104140000Y-30480000D03*
G04 #@! TO.P,J1,4*
G04 #@! TO.N,/S88_PS*
X101600000Y-30480000D03*
G04 #@! TO.P,J1,3*
G04 #@! TO.N,/S88_CLK*
X99060000Y-30480000D03*
G04 #@! TO.P,J1,2*
G04 #@! TO.N,GND*
X96520000Y-30480000D03*
D15*
G04 #@! TO.P,J1,1*
G04 #@! TO.N,/S88_DataOut*
X93980000Y-30480000D03*
G04 #@! TD*
D16*
G04 #@! TO.P,REF\002A\002A,1*
G04 #@! TO.N,N/C*
X115570000Y-82550000D03*
G04 #@! TD*
G04 #@! TO.P,REF\002A\002A,1*
G04 #@! TO.N,N/C*
X73660000Y-82550000D03*
G04 #@! TD*
G04 #@! TO.P,REF\002A\002A,1*
G04 #@! TO.N,N/C*
X73660000Y-29210000D03*
G04 #@! TD*
D12*
G04 #@! TO.P,RN2,7*
G04 #@! TO.N,/In10*
X106680000Y-52070000D03*
G04 #@! TO.P,RN2,6*
G04 #@! TO.N,/In11*
X106680000Y-49530000D03*
G04 #@! TO.P,RN2,5*
G04 #@! TO.N,/In12*
X106680000Y-46990000D03*
G04 #@! TO.P,RN2,4*
G04 #@! TO.N,/In13*
X106680000Y-44450000D03*
G04 #@! TO.P,RN2,3*
G04 #@! TO.N,/In14*
X106680000Y-41910000D03*
G04 #@! TO.P,RN2,2*
G04 #@! TO.N,/In15*
X106680000Y-39370000D03*
D13*
G04 #@! TO.P,RN2,1*
G04 #@! TO.N,VCC*
X106680000Y-36830000D03*
G04 #@! TD*
D17*
G04 #@! TO.P,C1,2*
G04 #@! TO.N,GND*
X91440000Y-57110000D03*
G04 #@! TO.P,C1,1*
G04 #@! TO.N,VCC*
X91440000Y-54610000D03*
G04 #@! TD*
G04 #@! TO.P,C2,2*
G04 #@! TO.N,GND*
X106680000Y-54650000D03*
G04 #@! TO.P,C2,1*
G04 #@! TO.N,VCC*
X106680000Y-57150000D03*
G04 #@! TD*
D18*
G04 #@! TO.P,C3,2*
G04 #@! TO.N,GND*
X114300000Y-35790000D03*
D19*
G04 #@! TO.P,C3,1*
G04 #@! TO.N,VCC*
X114300000Y-34290000D03*
G04 #@! TD*
D20*
G04 #@! TO.P,J4,3*
G04 #@! TO.N,/In1*
X74930000Y-45720000D03*
G04 #@! TO.P,J4,2*
G04 #@! TO.N,/In0*
X74930000Y-40640000D03*
D21*
G04 #@! TO.P,J4,1*
G04 #@! TO.N,GND*
X74930000Y-35560000D03*
G04 #@! TD*
D20*
G04 #@! TO.P,J5,3*
G04 #@! TO.N,/In4*
X74930000Y-60960000D03*
G04 #@! TO.P,J5,2*
G04 #@! TO.N,/In3*
X74930000Y-55880000D03*
D21*
G04 #@! TO.P,J5,1*
G04 #@! TO.N,/In2*
X74930000Y-50800000D03*
G04 #@! TD*
D20*
G04 #@! TO.P,J6,3*
G04 #@! TO.N,/In7*
X74930000Y-76200000D03*
G04 #@! TO.P,J6,2*
G04 #@! TO.N,/In6*
X74930000Y-71120000D03*
D21*
G04 #@! TO.P,J6,1*
G04 #@! TO.N,/In5*
X74930000Y-66040000D03*
G04 #@! TD*
D20*
G04 #@! TO.P,J7,3*
G04 #@! TO.N,/In10*
X113030000Y-66040000D03*
G04 #@! TO.P,J7,2*
G04 #@! TO.N,/In9*
X113030000Y-71120000D03*
D21*
G04 #@! TO.P,J7,1*
G04 #@! TO.N,/In8*
X113030000Y-76200000D03*
G04 #@! TD*
D20*
G04 #@! TO.P,J8,3*
G04 #@! TO.N,/In13*
X113030000Y-50800000D03*
G04 #@! TO.P,J8,2*
G04 #@! TO.N,/In12*
X113030000Y-55880000D03*
D21*
G04 #@! TO.P,J8,1*
G04 #@! TO.N,/In11*
X113030000Y-60960000D03*
G04 #@! TD*
D20*
G04 #@! TO.P,J9,2*
G04 #@! TO.N,/In15*
X113030000Y-40640000D03*
D21*
G04 #@! TO.P,J9,1*
G04 #@! TO.N,/In14*
X113030000Y-45720000D03*
G04 #@! TD*
D14*
G04 #@! TO.P,JP5,3*
G04 #@! TO.N,VCC*
X87630000Y-53340000D03*
G04 #@! TO.P,JP5,2*
G04 #@! TO.N,/Cfg0*
X87630000Y-50800000D03*
D15*
G04 #@! TO.P,JP5,1*
G04 #@! TO.N,GND*
X87630000Y-48260000D03*
G04 #@! TD*
D14*
G04 #@! TO.P,JP6,3*
G04 #@! TO.N,VCC*
X83820000Y-53340000D03*
G04 #@! TO.P,JP6,2*
G04 #@! TO.N,/Cfg1*
X83820000Y-50800000D03*
D15*
G04 #@! TO.P,JP6,1*
G04 #@! TO.N,GND*
X83820000Y-48260000D03*
G04 #@! TD*
D12*
G04 #@! TO.P,R1,2*
G04 #@! TO.N,Net-(J3-Pad5)*
X88900000Y-39370000D03*
D17*
G04 #@! TO.P,R1,1*
G04 #@! TO.N,VCC*
X88900000Y-29210000D03*
G04 #@! TD*
D12*
G04 #@! TO.P,R2,2*
G04 #@! TO.N,/S88_DataIn*
X85090000Y-39370000D03*
D17*
G04 #@! TO.P,R2,1*
G04 #@! TO.N,VCC*
X85090000Y-29210000D03*
G04 #@! TD*
D12*
G04 #@! TO.P,RN1,6*
G04 #@! TO.N,/In4*
X91440000Y-72390000D03*
G04 #@! TO.P,RN1,5*
G04 #@! TO.N,/In3*
X91440000Y-69850000D03*
G04 #@! TO.P,RN1,4*
G04 #@! TO.N,/In2*
X91440000Y-67310000D03*
G04 #@! TO.P,RN1,3*
G04 #@! TO.N,/In1*
X91440000Y-64770000D03*
G04 #@! TO.P,RN1,2*
G04 #@! TO.N,/In0*
X91440000Y-62230000D03*
D13*
G04 #@! TO.P,RN1,1*
G04 #@! TO.N,VCC*
X91440000Y-59690000D03*
G04 #@! TD*
G04 #@! TO.P,RN3,1*
G04 #@! TO.N,VCC*
X106680000Y-59690000D03*
D12*
G04 #@! TO.P,RN3,2*
G04 #@! TO.N,/In9*
X106680000Y-62230000D03*
G04 #@! TO.P,RN3,3*
G04 #@! TO.N,/In8*
X106680000Y-64770000D03*
G04 #@! TO.P,RN3,4*
G04 #@! TO.N,/In7*
X106680000Y-67310000D03*
G04 #@! TO.P,RN3,5*
G04 #@! TO.N,/In6*
X106680000Y-69850000D03*
G04 #@! TO.P,RN3,6*
G04 #@! TO.N,/In5*
X106680000Y-72390000D03*
G04 #@! TD*
D16*
G04 #@! TO.P,REF\002A\002A,1*
G04 #@! TO.N,N/C*
X115570000Y-29210000D03*
G04 #@! TD*
D22*
G04 #@! TO.N,/S88_DataIn*
G04 #@! TO.C,J10*
G36*
X94624505Y-80181204D02*
X94648773Y-80184804D01*
X94672572Y-80190765D01*
X94695671Y-80199030D01*
X94717850Y-80209520D01*
X94738893Y-80222132D01*
X94758599Y-80236747D01*
X94776777Y-80253223D01*
X94793253Y-80271401D01*
X94807868Y-80291107D01*
X94820480Y-80312150D01*
X94830970Y-80334329D01*
X94839235Y-80357428D01*
X94845196Y-80381227D01*
X94848796Y-80405495D01*
X94850000Y-80429999D01*
X94850000Y-82130001D01*
X94848796Y-82154505D01*
X94845196Y-82178773D01*
X94839235Y-82202572D01*
X94830970Y-82225671D01*
X94820480Y-82247850D01*
X94807868Y-82268893D01*
X94793253Y-82288599D01*
X94776777Y-82306777D01*
X94758599Y-82323253D01*
X94738893Y-82337868D01*
X94717850Y-82350480D01*
X94695671Y-82360970D01*
X94672572Y-82369235D01*
X94648773Y-82375196D01*
X94624505Y-82378796D01*
X94600001Y-82380000D01*
X93359999Y-82380000D01*
X93335495Y-82378796D01*
X93311227Y-82375196D01*
X93287428Y-82369235D01*
X93264329Y-82360970D01*
X93242150Y-82350480D01*
X93221107Y-82337868D01*
X93201401Y-82323253D01*
X93183223Y-82306777D01*
X93166747Y-82288599D01*
X93152132Y-82268893D01*
X93139520Y-82247850D01*
X93129030Y-82225671D01*
X93120765Y-82202572D01*
X93114804Y-82178773D01*
X93111204Y-82154505D01*
X93110000Y-82130001D01*
X93110000Y-80429999D01*
X93111204Y-80405495D01*
X93114804Y-80381227D01*
X93120765Y-80357428D01*
X93129030Y-80334329D01*
X93139520Y-80312150D01*
X93152132Y-80291107D01*
X93166747Y-80271401D01*
X93183223Y-80253223D01*
X93201401Y-80236747D01*
X93221107Y-80222132D01*
X93242150Y-80209520D01*
X93264329Y-80199030D01*
X93287428Y-80190765D01*
X93311227Y-80184804D01*
X93335495Y-80181204D01*
X93359999Y-80180000D01*
X94600001Y-80180000D01*
X94624505Y-80181204D01*
X94624505Y-80181204D01*
G37*
D23*
G04 #@! TD*
G04 #@! TO.P,J10,1*
G04 #@! TO.N,/S88_DataIn*
X93980000Y-81280000D03*
D24*
G04 #@! TO.P,J10,2*
G04 #@! TO.N,GND*
X96520000Y-81280000D03*
G04 #@! TO.P,J10,3*
G04 #@! TO.N,/S88_CLK*
X99060000Y-81280000D03*
G04 #@! TO.P,J10,4*
G04 #@! TO.N,/S88_PS*
X101600000Y-81280000D03*
G04 #@! TO.P,J10,5*
G04 #@! TO.N,/S88_Reset*
X104140000Y-81280000D03*
G04 #@! TO.P,J10,6*
G04 #@! TO.N,VCC*
X106680000Y-81280000D03*
G04 #@! TD*
D25*
G04 #@! TO.N,GND*
X78740000Y-46990000D03*
X93980000Y-35560000D03*
X78740000Y-59690000D03*
X88900000Y-43180000D03*
X97790000Y-50800000D03*
X97790000Y-57150000D03*
X82550000Y-35560000D03*
X100330000Y-40640000D03*
G04 #@! TO.N,VCC*
X109220000Y-36830000D03*
D26*
G04 #@! TO.N,/In5*
X93980000Y-73660000D03*
G04 #@! TO.N,/In7*
X78740000Y-69850000D03*
G04 #@! TO.N,/S88_CLK*
X101600000Y-48260000D03*
D25*
G04 #@! TO.N,GND*
X82550000Y-78740000D03*
G04 #@! TO.N,VCC*
X83820000Y-59690000D03*
D26*
G04 #@! TO.N,Net-(J3-Pad5)*
X81280000Y-55880000D03*
D25*
G04 #@! TO.N,GND*
X99060000Y-66040000D03*
X99060000Y-69850000D03*
X116840000Y-33020000D03*
X118110000Y-53340000D03*
X118110000Y-78740000D03*
X110490000Y-58420000D03*
X100330000Y-78740000D03*
X102870000Y-78740000D03*
D26*
G04 #@! TO.N,/S88_DataIn*
X100330000Y-43180000D03*
G04 #@! TO.N,/In8*
X97790000Y-64772805D03*
G04 #@! TD*
D27*
G04 #@! TO.N,VCC*
X109220000Y-54610000D02*
X106680000Y-57150000D01*
X109220000Y-36830000D02*
X109220000Y-54610000D01*
D28*
G04 #@! TO.N,/In0*
X96425001Y-62794001D02*
X95814001Y-63405001D01*
X96425001Y-53245001D02*
X96425001Y-62794001D01*
X95250000Y-52070000D02*
X96425001Y-53245001D01*
X78740000Y-44450000D02*
X74930000Y-40640000D01*
X95250000Y-52070000D02*
X87630000Y-44450000D01*
X87630000Y-44450000D02*
X78740000Y-44450000D01*
X92615001Y-63405001D02*
X91440000Y-62230000D01*
X95814001Y-63405001D02*
X92615001Y-63405001D01*
G04 #@! TO.N,/In1*
X95250000Y-64770000D02*
X91440000Y-64770000D01*
X91440000Y-64770000D02*
X90170000Y-63500000D01*
X90170000Y-63500000D02*
X90170000Y-62230000D01*
X90170000Y-62230000D02*
X78740000Y-50800000D01*
X78740000Y-49530000D02*
X74930000Y-45720000D01*
X78740000Y-50800000D02*
X78740000Y-49530000D01*
G04 #@! TO.N,/In2*
X95250000Y-67310000D02*
X91440000Y-67310000D01*
X77470000Y-50800000D02*
X74930000Y-50800000D01*
X88900000Y-62230000D02*
X77470000Y-50800000D01*
X88900000Y-64770000D02*
X88900000Y-62230000D01*
G04 #@! TO.N,/In3*
X95250000Y-69850000D02*
X91440000Y-69850000D01*
X76429999Y-57379999D02*
X74930000Y-55880000D01*
X76805001Y-57755001D02*
X76429999Y-57379999D01*
X76805001Y-62128131D02*
X76805001Y-57755001D01*
X84526870Y-69850000D02*
X76805001Y-62128131D01*
X91440000Y-69850000D02*
X84526870Y-69850000D01*
G04 #@! TO.N,/In4*
X95250000Y-72390000D02*
X91440000Y-72390000D01*
X76429999Y-62459999D02*
X74930000Y-60960000D01*
X76429999Y-63864997D02*
X76429999Y-62459999D01*
X84955002Y-72390000D02*
X76429999Y-63864997D01*
X91440000Y-72390000D02*
X84955002Y-72390000D01*
G04 #@! TO.N,/In5*
X76680000Y-66040000D02*
X74930000Y-66040000D01*
X84300000Y-73660000D02*
X76680000Y-66040000D01*
X93980000Y-73660000D02*
X84300000Y-73660000D01*
G04 #@! TO.N,/In7*
X78740000Y-72390000D02*
X74930000Y-76200000D01*
X78740000Y-69850000D02*
X78740000Y-72390000D01*
G04 #@! TO.N,/S88_PS*
X101600000Y-30250000D02*
X101600000Y-30480000D01*
G04 #@! TO.N,/S88_CLK*
X101600000Y-71120000D02*
X101600000Y-71120000D01*
G04 #@! TO.N,/Cfg0*
X94450001Y-58890001D02*
X95250000Y-59690000D01*
X94450001Y-58380999D02*
X94450001Y-58890001D01*
X92004001Y-55934999D02*
X94450001Y-58380999D01*
X91025997Y-55934999D02*
X92004001Y-55934999D01*
X90264999Y-55174001D02*
X91025997Y-55934999D01*
X90264999Y-53434999D02*
X90264999Y-55174001D01*
X87630000Y-50800000D02*
X90264999Y-53434999D01*
G04 #@! TO.N,/Cfg1*
X82550000Y-52070000D02*
X82550000Y-53883002D01*
X83820000Y-50800000D02*
X82550000Y-52070000D01*
X82550000Y-53883002D02*
X87086998Y-58420000D01*
X94450001Y-61430001D02*
X95250000Y-62230000D01*
X94074999Y-61054999D02*
X94450001Y-61430001D01*
X94074999Y-60049997D02*
X94074999Y-61054999D01*
X92445002Y-58420000D02*
X94074999Y-60049997D01*
X87086998Y-58420000D02*
X92445002Y-58420000D01*
D27*
G04 #@! TO.N,VCC*
X82106399Y-65596399D02*
X82106399Y-61403601D01*
X83820000Y-67310000D02*
X82106399Y-65596399D01*
X82106399Y-61403601D02*
X83820000Y-59690000D01*
X83820000Y-59690000D02*
X83820000Y-59690000D01*
D28*
G04 #@! TO.N,/In2*
X88900000Y-64770000D02*
X88900000Y-64770000D01*
G04 #@! TO.N,Net-(J3-Pad5)*
X88900000Y-39370000D02*
X95250000Y-39370000D01*
X81679999Y-56279999D02*
X81280000Y-55880000D01*
X82149001Y-56279999D02*
X81679999Y-56279999D01*
X86360000Y-60490998D02*
X82149001Y-56279999D01*
X86360000Y-62230000D02*
X86360000Y-60490998D01*
G04 #@! TO.N,/S88_DataIn*
X87630000Y-41910000D02*
X95250000Y-41910000D01*
X85090000Y-39370000D02*
X87630000Y-41910000D01*
X94706998Y-76200000D02*
X93980000Y-76200000D01*
X100330000Y-70576998D02*
X94706998Y-76200000D01*
X100330000Y-43180000D02*
X100330000Y-68036998D01*
G04 #@! TO.N,/S88_DataOut*
X93980000Y-31580000D02*
X96520000Y-34120000D01*
X93980000Y-30480000D02*
X93980000Y-31580000D01*
X96520000Y-43180000D02*
X95250000Y-44450000D01*
X96520000Y-34120000D02*
X96520000Y-43180000D01*
G04 #@! TO.N,/S88_CLK*
X101600000Y-73660000D02*
X99060000Y-76200000D01*
X101600000Y-48260000D02*
X101600000Y-73660000D01*
G04 #@! TO.N,/S88_PS*
X101600000Y-76200000D02*
X104140000Y-73660000D01*
X104140000Y-33020000D02*
X101600000Y-30480000D01*
X104140000Y-73660000D02*
X104140000Y-33020000D01*
G04 #@! TO.N,/S88_Reset*
X104140000Y-30480000D02*
X105410000Y-31750000D01*
X105410000Y-31750000D02*
X105410000Y-74930000D01*
X105410000Y-74930000D02*
X104140000Y-76200000D01*
X104140000Y-81280000D02*
X104140000Y-76200000D01*
G04 #@! TO.N,/S88_PS*
X101600000Y-81280000D02*
X101600000Y-76200000D01*
X101600000Y-30480000D02*
X97790000Y-34290000D01*
X97790000Y-46990000D02*
X95250000Y-49530000D01*
X97790000Y-34290000D02*
X97790000Y-46990000D01*
G04 #@! TO.N,/S88_CLK*
X99060000Y-81280000D02*
X99060000Y-76200000D01*
X96049999Y-46190001D02*
X95250000Y-46990000D01*
X97020010Y-45219990D02*
X96049999Y-46190001D01*
X97020010Y-32519990D02*
X97020010Y-45219990D01*
X99060000Y-30480000D02*
X97020010Y-32519990D01*
G04 #@! TO.N,/S88_DataIn*
X93980000Y-81280000D02*
X93980000Y-76200000D01*
G04 #@! TO.N,/In8*
X97790000Y-66509002D02*
X97790000Y-64772805D01*
X95814001Y-68485001D02*
X97790000Y-66509002D01*
X88648601Y-68485001D02*
X95814001Y-68485001D01*
X86360000Y-67310000D02*
X87473600Y-67310000D01*
X87473600Y-67310000D02*
X88648601Y-68485001D01*
X97790000Y-64772805D02*
X97790000Y-64772805D01*
G04 #@! TO.N,/In2*
X88900000Y-64770000D02*
X91440000Y-67310000D01*
G04 #@! TD*
D29*
G04 #@! TO.N,GND*
G36*
X113624229Y-26297947D02*
X112657947Y-27264229D01*
X112135000Y-28526736D01*
X112135000Y-29893264D01*
X112657947Y-31155771D01*
X113624229Y-32122053D01*
X114886736Y-32645000D01*
X116253264Y-32645000D01*
X117515771Y-32122053D01*
X118482053Y-31155771D01*
X118670000Y-30702026D01*
X118670001Y-81057976D01*
X118482053Y-80604229D01*
X117515771Y-79637947D01*
X116253264Y-79115000D01*
X114886736Y-79115000D01*
X113624229Y-79637947D01*
X112657947Y-80604229D01*
X112135000Y-81866736D01*
X112135000Y-83233264D01*
X112657947Y-84495771D01*
X113624229Y-85462053D01*
X114077974Y-85650000D01*
X75152026Y-85650000D01*
X75605771Y-85462053D01*
X76572053Y-84495771D01*
X77095000Y-83233264D01*
X77095000Y-81866736D01*
X76572053Y-80604229D01*
X75605771Y-79637947D01*
X74343264Y-79115000D01*
X72976736Y-79115000D01*
X71714229Y-79637947D01*
X70747947Y-80604229D01*
X70560000Y-81057974D01*
X70560000Y-70695322D01*
X72795000Y-70695322D01*
X72795000Y-71544678D01*
X73120034Y-72329380D01*
X73720620Y-72929966D01*
X74505322Y-73255000D01*
X75354678Y-73255000D01*
X76139380Y-72929966D01*
X76739966Y-72329380D01*
X77065000Y-71544678D01*
X77065000Y-70695322D01*
X76739966Y-69910620D01*
X76139380Y-69310034D01*
X75354678Y-68985000D01*
X74505322Y-68985000D01*
X73720620Y-69310034D01*
X73120034Y-69910620D01*
X72795000Y-70695322D01*
X70560000Y-70695322D01*
X70560000Y-49300000D01*
X72782560Y-49300000D01*
X72782560Y-52300000D01*
X72831843Y-52547765D01*
X72972191Y-52757809D01*
X73182235Y-52898157D01*
X73430000Y-52947440D01*
X76430000Y-52947440D01*
X76677765Y-52898157D01*
X76887809Y-52757809D01*
X77028157Y-52547765D01*
X77077440Y-52300000D01*
X77077440Y-51560000D01*
X77155199Y-51560000D01*
X80645744Y-55050545D01*
X80402569Y-55293720D01*
X80245000Y-55674126D01*
X80245000Y-56085874D01*
X80402569Y-56466280D01*
X80693720Y-56757431D01*
X81074126Y-56915000D01*
X81262382Y-56915000D01*
X81383462Y-56995903D01*
X81605147Y-57039999D01*
X81605151Y-57039999D01*
X81679998Y-57054887D01*
X81754845Y-57039999D01*
X81834200Y-57039999D01*
X83191359Y-58397159D01*
X83007138Y-58473466D01*
X82603466Y-58877138D01*
X82403466Y-59359980D01*
X81319130Y-60444316D01*
X81216015Y-60513216D01*
X81147115Y-60616332D01*
X81147113Y-60616334D01*
X80943055Y-60921729D01*
X80847205Y-61403601D01*
X80871400Y-61525238D01*
X80871399Y-65119728D01*
X77565001Y-61813330D01*
X77565001Y-57829848D01*
X77579889Y-57755001D01*
X77565001Y-57680154D01*
X77565001Y-57680149D01*
X77520905Y-57458464D01*
X77352930Y-57207072D01*
X77289471Y-57164670D01*
X77020330Y-56895529D01*
X77020328Y-56895526D01*
X76878861Y-56754059D01*
X77065000Y-56304678D01*
X77065000Y-55455322D01*
X76739966Y-54670620D01*
X76139380Y-54070034D01*
X75354678Y-53745000D01*
X74505322Y-53745000D01*
X73720620Y-54070034D01*
X73120034Y-54670620D01*
X72795000Y-55455322D01*
X72795000Y-56304678D01*
X73120034Y-57089380D01*
X73720620Y-57689966D01*
X74505322Y-58015000D01*
X75354678Y-58015000D01*
X75804059Y-57828861D01*
X75945526Y-57970328D01*
X75945529Y-57970330D01*
X76045002Y-58069803D01*
X76045002Y-59110941D01*
X75354678Y-58825000D01*
X74505322Y-58825000D01*
X73720620Y-59150034D01*
X73120034Y-59750620D01*
X72795000Y-60535322D01*
X72795000Y-61384678D01*
X73120034Y-62169380D01*
X73720620Y-62769966D01*
X74505322Y-63095000D01*
X75354678Y-63095000D01*
X75670000Y-62964390D01*
X75669999Y-63790150D01*
X75655111Y-63864997D01*
X75660594Y-63892560D01*
X73430000Y-63892560D01*
X73182235Y-63941843D01*
X72972191Y-64082191D01*
X72831843Y-64292235D01*
X72782560Y-64540000D01*
X72782560Y-67540000D01*
X72831843Y-67787765D01*
X72972191Y-67997809D01*
X73182235Y-68138157D01*
X73430000Y-68187440D01*
X76430000Y-68187440D01*
X76677765Y-68138157D01*
X76887809Y-67997809D01*
X77028157Y-67787765D01*
X77077440Y-67540000D01*
X77077440Y-67512241D01*
X78425283Y-68860084D01*
X78153720Y-68972569D01*
X77862569Y-69263720D01*
X77705000Y-69644126D01*
X77705000Y-70055874D01*
X77862569Y-70436280D01*
X77980000Y-70553711D01*
X77980001Y-72075197D01*
X75804059Y-74251140D01*
X75354678Y-74065000D01*
X74505322Y-74065000D01*
X73720620Y-74390034D01*
X73120034Y-74990620D01*
X72795000Y-75775322D01*
X72795000Y-76624678D01*
X73120034Y-77409380D01*
X73720620Y-78009966D01*
X74505322Y-78335000D01*
X75354678Y-78335000D01*
X76139380Y-78009966D01*
X76739966Y-77409380D01*
X77065000Y-76624678D01*
X77065000Y-75775322D01*
X76878860Y-75325941D01*
X79224473Y-72980329D01*
X79287929Y-72937929D01*
X79330924Y-72873582D01*
X79455904Y-72686538D01*
X79465480Y-72638395D01*
X79500000Y-72464852D01*
X79500000Y-72464848D01*
X79514888Y-72390000D01*
X79500000Y-72315152D01*
X79500000Y-70553711D01*
X79617431Y-70436280D01*
X79729916Y-70164718D01*
X83709673Y-74144476D01*
X83752071Y-74207929D01*
X83815524Y-74250327D01*
X83815526Y-74250329D01*
X83940902Y-74334102D01*
X84003463Y-74375904D01*
X84225148Y-74420000D01*
X84225152Y-74420000D01*
X84299999Y-74434888D01*
X84374846Y-74420000D01*
X93276289Y-74420000D01*
X93393720Y-74537431D01*
X93774126Y-74695000D01*
X94185874Y-74695000D01*
X94566280Y-74537431D01*
X94857431Y-74246280D01*
X95015000Y-73865874D01*
X95015000Y-73806368D01*
X95108667Y-73825000D01*
X95391333Y-73825000D01*
X95809909Y-73741740D01*
X96284577Y-73424577D01*
X96601740Y-72949909D01*
X96713113Y-72390000D01*
X96601740Y-71830091D01*
X96284577Y-71355423D01*
X95932242Y-71120000D01*
X96284577Y-70884577D01*
X96601740Y-70409909D01*
X96713113Y-69850000D01*
X96601740Y-69290091D01*
X96395920Y-68982060D01*
X96404332Y-68969471D01*
X98274473Y-67099331D01*
X98337929Y-67056931D01*
X98505904Y-66805539D01*
X98550000Y-66583854D01*
X98550000Y-66583850D01*
X98564888Y-66509002D01*
X98550000Y-66434154D01*
X98550000Y-65476516D01*
X98667431Y-65359085D01*
X98825000Y-64978679D01*
X98825000Y-64566931D01*
X98667431Y-64186525D01*
X98376280Y-63895374D01*
X97995874Y-63737805D01*
X97584126Y-63737805D01*
X97203720Y-63895374D01*
X96912569Y-64186525D01*
X96755000Y-64566931D01*
X96755000Y-64978679D01*
X96912569Y-65359085D01*
X97030001Y-65476517D01*
X97030000Y-66194200D01*
X96550618Y-66673582D01*
X96284577Y-66275423D01*
X95932242Y-66040000D01*
X96284577Y-65804577D01*
X96601740Y-65329909D01*
X96713113Y-64770000D01*
X96601740Y-64210091D01*
X96395920Y-63902060D01*
X96404331Y-63889472D01*
X96909476Y-63384329D01*
X96972930Y-63341930D01*
X97015328Y-63278477D01*
X97015330Y-63278475D01*
X97129611Y-63107440D01*
X97140905Y-63090538D01*
X97185001Y-62868853D01*
X97185001Y-62868849D01*
X97199889Y-62794002D01*
X97185001Y-62719155D01*
X97185001Y-53319847D01*
X97199889Y-53245000D01*
X97185001Y-53170153D01*
X97185001Y-53170149D01*
X97140905Y-52948464D01*
X97071698Y-52844888D01*
X97015330Y-52760527D01*
X97015328Y-52760525D01*
X96972930Y-52697072D01*
X96909477Y-52654674D01*
X96648688Y-52393886D01*
X96713113Y-52070000D01*
X96601740Y-51510091D01*
X96284577Y-51035423D01*
X95932242Y-50800000D01*
X96284577Y-50564577D01*
X96601740Y-50089909D01*
X96713113Y-49530000D01*
X96648688Y-49206114D01*
X98274476Y-47580327D01*
X98337929Y-47537929D01*
X98380327Y-47474476D01*
X98380329Y-47474474D01*
X98505903Y-47286538D01*
X98505904Y-47286537D01*
X98550000Y-47064852D01*
X98550000Y-47064848D01*
X98564888Y-46990001D01*
X98550000Y-46915154D01*
X98550000Y-34604801D01*
X101233592Y-31921209D01*
X101453744Y-31965000D01*
X101746256Y-31965000D01*
X101966408Y-31921209D01*
X103380001Y-33334804D01*
X103380001Y-38008333D01*
X103011333Y-37935000D01*
X102728667Y-37935000D01*
X102310091Y-38018260D01*
X101835423Y-38335423D01*
X101518260Y-38810091D01*
X101406887Y-39370000D01*
X101518260Y-39929909D01*
X101835423Y-40404577D01*
X102187758Y-40640000D01*
X101835423Y-40875423D01*
X101518260Y-41350091D01*
X101406887Y-41910000D01*
X101518260Y-42469909D01*
X101835423Y-42944577D01*
X102187758Y-43180000D01*
X101835423Y-43415423D01*
X101518260Y-43890091D01*
X101406887Y-44450000D01*
X101518260Y-45009909D01*
X101835423Y-45484577D01*
X102187758Y-45720000D01*
X101835423Y-45955423D01*
X101518260Y-46430091D01*
X101406887Y-46990000D01*
X101453631Y-47225000D01*
X101394126Y-47225000D01*
X101090000Y-47350973D01*
X101090000Y-43883711D01*
X101207431Y-43766280D01*
X101365000Y-43385874D01*
X101365000Y-42974126D01*
X101207431Y-42593720D01*
X100916280Y-42302569D01*
X100535874Y-42145000D01*
X100124126Y-42145000D01*
X99743720Y-42302569D01*
X99452569Y-42593720D01*
X99295000Y-42974126D01*
X99295000Y-43385874D01*
X99452569Y-43766280D01*
X99570000Y-43883711D01*
X99570001Y-68111850D01*
X99614097Y-68333535D01*
X99782072Y-68584927D01*
X100033464Y-68752902D01*
X100330000Y-68811887D01*
X100626537Y-68752902D01*
X100840001Y-68610270D01*
X100840001Y-70003726D01*
X100626537Y-69861094D01*
X100330000Y-69802110D01*
X100033462Y-69861094D01*
X99845527Y-69986669D01*
X95079317Y-74752880D01*
X95077765Y-74751843D01*
X94830000Y-74702560D01*
X93130000Y-74702560D01*
X92882235Y-74751843D01*
X92672191Y-74892191D01*
X92531843Y-75102235D01*
X92482560Y-75350000D01*
X92482560Y-77050000D01*
X92531843Y-77297765D01*
X92672191Y-77507809D01*
X92882235Y-77648157D01*
X93130000Y-77697440D01*
X93220001Y-77697440D01*
X93220000Y-79560407D01*
X93016564Y-79600873D01*
X92725414Y-79795414D01*
X92530873Y-80086564D01*
X92462560Y-80429999D01*
X92462560Y-82130001D01*
X92530873Y-82473436D01*
X92725414Y-82764586D01*
X93016564Y-82959127D01*
X93359999Y-83027440D01*
X94600001Y-83027440D01*
X94943436Y-82959127D01*
X95234586Y-82764586D01*
X95411737Y-82499462D01*
X95549509Y-82670533D01*
X96067500Y-82953584D01*
X96159969Y-82971302D01*
X96393000Y-82850246D01*
X96393000Y-81407000D01*
X96373000Y-81407000D01*
X96373000Y-81153000D01*
X96393000Y-81153000D01*
X96393000Y-79709754D01*
X96159969Y-79588698D01*
X96067500Y-79606416D01*
X95549509Y-79889467D01*
X95411737Y-80060538D01*
X95234586Y-79795414D01*
X94943436Y-79600873D01*
X94740000Y-79560407D01*
X94740000Y-77697440D01*
X94830000Y-77697440D01*
X95077765Y-77648157D01*
X95287809Y-77507809D01*
X95428157Y-77297765D01*
X95448739Y-77194292D01*
X95753076Y-77471645D01*
X96163110Y-77641476D01*
X96393000Y-77520155D01*
X96393000Y-76327000D01*
X96373000Y-76327000D01*
X96373000Y-76073000D01*
X96393000Y-76073000D01*
X96393000Y-76053000D01*
X96647000Y-76053000D01*
X96647000Y-76073000D01*
X96667000Y-76073000D01*
X96667000Y-76327000D01*
X96647000Y-76327000D01*
X96647000Y-77520155D01*
X96876890Y-77641476D01*
X97286924Y-77471645D01*
X97715183Y-77081358D01*
X97776157Y-76951522D01*
X97989375Y-77270625D01*
X98300001Y-77478178D01*
X98300000Y-79747768D01*
X97974956Y-79964956D01*
X97782841Y-80252478D01*
X97490491Y-79889467D01*
X96972500Y-79606416D01*
X96880031Y-79588698D01*
X96647000Y-79709754D01*
X96647000Y-81153000D01*
X96667000Y-81153000D01*
X96667000Y-81407000D01*
X96647000Y-81407000D01*
X96647000Y-82850246D01*
X96880031Y-82971302D01*
X96972500Y-82953584D01*
X97490491Y-82670533D01*
X97782840Y-82307523D01*
X97974956Y-82595044D01*
X98472779Y-82927678D01*
X99060000Y-83044484D01*
X99647222Y-82927678D01*
X100145044Y-82595044D01*
X100330000Y-82318237D01*
X100514956Y-82595044D01*
X101012779Y-82927678D01*
X101600000Y-83044484D01*
X102187222Y-82927678D01*
X102685044Y-82595044D01*
X102870000Y-82318237D01*
X103054956Y-82595044D01*
X103552779Y-82927678D01*
X104140000Y-83044484D01*
X104727222Y-82927678D01*
X105225044Y-82595044D01*
X105410000Y-82318237D01*
X105594956Y-82595044D01*
X106092779Y-82927678D01*
X106680000Y-83044484D01*
X107267222Y-82927678D01*
X107765044Y-82595044D01*
X108097678Y-82097221D01*
X108185000Y-81658225D01*
X108185000Y-80901774D01*
X108097678Y-80462778D01*
X107765044Y-79964956D01*
X107267221Y-79632322D01*
X106680000Y-79515516D01*
X106092778Y-79632322D01*
X105594956Y-79964956D01*
X105410000Y-80241763D01*
X105225044Y-79964956D01*
X104900000Y-79747769D01*
X104900000Y-77478178D01*
X105210625Y-77270625D01*
X105410000Y-76972239D01*
X105609375Y-77270625D01*
X106100582Y-77598839D01*
X106533744Y-77685000D01*
X106826256Y-77685000D01*
X107259418Y-77598839D01*
X107750625Y-77270625D01*
X108078839Y-76779418D01*
X108194092Y-76200000D01*
X108078839Y-75620582D01*
X107750625Y-75129375D01*
X107259418Y-74801161D01*
X106826256Y-74715000D01*
X106533744Y-74715000D01*
X106170000Y-74787353D01*
X106170000Y-74700000D01*
X110882560Y-74700000D01*
X110882560Y-77700000D01*
X110931843Y-77947765D01*
X111072191Y-78157809D01*
X111282235Y-78298157D01*
X111530000Y-78347440D01*
X114530000Y-78347440D01*
X114777765Y-78298157D01*
X114987809Y-78157809D01*
X115128157Y-77947765D01*
X115177440Y-77700000D01*
X115177440Y-74700000D01*
X115128157Y-74452235D01*
X114987809Y-74242191D01*
X114777765Y-74101843D01*
X114530000Y-74052560D01*
X111530000Y-74052560D01*
X111282235Y-74101843D01*
X111072191Y-74242191D01*
X110931843Y-74452235D01*
X110882560Y-74700000D01*
X106170000Y-74700000D01*
X106170000Y-73751668D01*
X106538667Y-73825000D01*
X106821333Y-73825000D01*
X107239909Y-73741740D01*
X107714577Y-73424577D01*
X108031740Y-72949909D01*
X108143113Y-72390000D01*
X108031740Y-71830091D01*
X107714577Y-71355423D01*
X107362242Y-71120000D01*
X107714577Y-70884577D01*
X107841033Y-70695322D01*
X110895000Y-70695322D01*
X110895000Y-71544678D01*
X111220034Y-72329380D01*
X111820620Y-72929966D01*
X112605322Y-73255000D01*
X113454678Y-73255000D01*
X114239380Y-72929966D01*
X114839966Y-72329380D01*
X115165000Y-71544678D01*
X115165000Y-70695322D01*
X114839966Y-69910620D01*
X114239380Y-69310034D01*
X113454678Y-68985000D01*
X112605322Y-68985000D01*
X111820620Y-69310034D01*
X111220034Y-69910620D01*
X110895000Y-70695322D01*
X107841033Y-70695322D01*
X108031740Y-70409909D01*
X108143113Y-69850000D01*
X108031740Y-69290091D01*
X107714577Y-68815423D01*
X107362242Y-68580000D01*
X107714577Y-68344577D01*
X108031740Y-67869909D01*
X108143113Y-67310000D01*
X108031740Y-66750091D01*
X107714577Y-66275423D01*
X107362242Y-66040000D01*
X107714577Y-65804577D01*
X107841033Y-65615322D01*
X110895000Y-65615322D01*
X110895000Y-66464678D01*
X111220034Y-67249380D01*
X111820620Y-67849966D01*
X112605322Y-68175000D01*
X113454678Y-68175000D01*
X114239380Y-67849966D01*
X114839966Y-67249380D01*
X115165000Y-66464678D01*
X115165000Y-65615322D01*
X114839966Y-64830620D01*
X114239380Y-64230034D01*
X113454678Y-63905000D01*
X112605322Y-63905000D01*
X111820620Y-64230034D01*
X111220034Y-64830620D01*
X110895000Y-65615322D01*
X107841033Y-65615322D01*
X108031740Y-65329909D01*
X108143113Y-64770000D01*
X108031740Y-64210091D01*
X107714577Y-63735423D01*
X107362242Y-63500000D01*
X107714577Y-63264577D01*
X108031740Y-62789909D01*
X108143113Y-62230000D01*
X108031740Y-61670091D01*
X107714577Y-61195423D01*
X107593894Y-61114785D01*
X107727765Y-61088157D01*
X107937809Y-60947809D01*
X108078157Y-60737765D01*
X108127440Y-60490000D01*
X108127440Y-59460000D01*
X110882560Y-59460000D01*
X110882560Y-62460000D01*
X110931843Y-62707765D01*
X111072191Y-62917809D01*
X111282235Y-63058157D01*
X111530000Y-63107440D01*
X114530000Y-63107440D01*
X114777765Y-63058157D01*
X114987809Y-62917809D01*
X115128157Y-62707765D01*
X115177440Y-62460000D01*
X115177440Y-59460000D01*
X115128157Y-59212235D01*
X114987809Y-59002191D01*
X114777765Y-58861843D01*
X114530000Y-58812560D01*
X111530000Y-58812560D01*
X111282235Y-58861843D01*
X111072191Y-59002191D01*
X110931843Y-59212235D01*
X110882560Y-59460000D01*
X108127440Y-59460000D01*
X108127440Y-58890000D01*
X108078157Y-58642235D01*
X107937809Y-58432191D01*
X107727765Y-58291843D01*
X107594134Y-58265262D01*
X107896534Y-57962862D01*
X108096534Y-57480019D01*
X110007269Y-55569285D01*
X110110385Y-55500385D01*
X110140495Y-55455322D01*
X110895000Y-55455322D01*
X110895000Y-56304678D01*
X111220034Y-57089380D01*
X111820620Y-57689966D01*
X112605322Y-58015000D01*
X113454678Y-58015000D01*
X114239380Y-57689966D01*
X114839966Y-57089380D01*
X115165000Y-56304678D01*
X115165000Y-55455322D01*
X114839966Y-54670620D01*
X114239380Y-54070034D01*
X113454678Y-53745000D01*
X112605322Y-53745000D01*
X111820620Y-54070034D01*
X111220034Y-54670620D01*
X110895000Y-55455322D01*
X110140495Y-55455322D01*
X110214431Y-55344670D01*
X110383343Y-55091874D01*
X110383344Y-55091873D01*
X110455000Y-54731636D01*
X110455000Y-54731632D01*
X110479194Y-54610001D01*
X110455000Y-54488370D01*
X110455000Y-50375322D01*
X110895000Y-50375322D01*
X110895000Y-51224678D01*
X111220034Y-52009380D01*
X111820620Y-52609966D01*
X112605322Y-52935000D01*
X113454678Y-52935000D01*
X114239380Y-52609966D01*
X114839966Y-52009380D01*
X115165000Y-51224678D01*
X115165000Y-50375322D01*
X114839966Y-49590620D01*
X114239380Y-48990034D01*
X113454678Y-48665000D01*
X112605322Y-48665000D01*
X111820620Y-48990034D01*
X111220034Y-49590620D01*
X110895000Y-50375322D01*
X110455000Y-50375322D01*
X110455000Y-44220000D01*
X110882560Y-44220000D01*
X110882560Y-47220000D01*
X110931843Y-47467765D01*
X111072191Y-47677809D01*
X111282235Y-47818157D01*
X111530000Y-47867440D01*
X114530000Y-47867440D01*
X114777765Y-47818157D01*
X114987809Y-47677809D01*
X115128157Y-47467765D01*
X115177440Y-47220000D01*
X115177440Y-44220000D01*
X115128157Y-43972235D01*
X114987809Y-43762191D01*
X114777765Y-43621843D01*
X114530000Y-43572560D01*
X111530000Y-43572560D01*
X111282235Y-43621843D01*
X111072191Y-43762191D01*
X110931843Y-43972235D01*
X110882560Y-44220000D01*
X110455000Y-44220000D01*
X110455000Y-40215322D01*
X110895000Y-40215322D01*
X110895000Y-41064678D01*
X111220034Y-41849380D01*
X111820620Y-42449966D01*
X112605322Y-42775000D01*
X113454678Y-42775000D01*
X114239380Y-42449966D01*
X114839966Y-41849380D01*
X115165000Y-41064678D01*
X115165000Y-40215322D01*
X114839966Y-39430620D01*
X114239380Y-38830034D01*
X113454678Y-38505000D01*
X112605322Y-38505000D01*
X111820620Y-38830034D01*
X111220034Y-39430620D01*
X110895000Y-40215322D01*
X110455000Y-40215322D01*
X110455000Y-37598281D01*
X110655000Y-37115439D01*
X110655000Y-36652735D01*
X113616870Y-36652735D01*
X113666383Y-36878164D01*
X114131036Y-37037807D01*
X114621413Y-37007482D01*
X114933617Y-36878164D01*
X114983130Y-36652735D01*
X114300000Y-35969605D01*
X113616870Y-36652735D01*
X110655000Y-36652735D01*
X110655000Y-36544561D01*
X110436534Y-36017138D01*
X110040432Y-35621036D01*
X113052193Y-35621036D01*
X113082518Y-36111413D01*
X113211836Y-36423617D01*
X113437265Y-36473130D01*
X114120395Y-35790000D01*
X114106253Y-35775858D01*
X114285858Y-35596253D01*
X114300000Y-35610395D01*
X114314143Y-35596253D01*
X114493748Y-35775858D01*
X114479605Y-35790000D01*
X115162735Y-36473130D01*
X115388164Y-36423617D01*
X115547807Y-35958964D01*
X115517482Y-35468587D01*
X115425495Y-35246510D01*
X115498157Y-35137765D01*
X115547440Y-34890000D01*
X115547440Y-33690000D01*
X115498157Y-33442235D01*
X115357809Y-33232191D01*
X115147765Y-33091843D01*
X114900000Y-33042560D01*
X113700000Y-33042560D01*
X113452235Y-33091843D01*
X113242191Y-33232191D01*
X113101843Y-33442235D01*
X113052560Y-33690000D01*
X113052560Y-34890000D01*
X113101843Y-35137765D01*
X113178709Y-35252802D01*
X113052193Y-35621036D01*
X110040432Y-35621036D01*
X110032862Y-35613466D01*
X109505439Y-35395000D01*
X108934561Y-35395000D01*
X108407138Y-35613466D01*
X108104738Y-35915866D01*
X108078157Y-35782235D01*
X107937809Y-35572191D01*
X107727765Y-35431843D01*
X107480000Y-35382560D01*
X106170000Y-35382560D01*
X106170000Y-31892647D01*
X106533744Y-31965000D01*
X106826256Y-31965000D01*
X107259418Y-31878839D01*
X107750625Y-31550625D01*
X108078839Y-31059418D01*
X108194092Y-30480000D01*
X108078839Y-29900582D01*
X107750625Y-29409375D01*
X107259418Y-29081161D01*
X106826256Y-28995000D01*
X106533744Y-28995000D01*
X106100582Y-29081161D01*
X105609375Y-29409375D01*
X105410000Y-29707761D01*
X105210625Y-29409375D01*
X104719418Y-29081161D01*
X104286256Y-28995000D01*
X103993744Y-28995000D01*
X103560582Y-29081161D01*
X103069375Y-29409375D01*
X102870000Y-29707761D01*
X102670625Y-29409375D01*
X102179418Y-29081161D01*
X101746256Y-28995000D01*
X101453744Y-28995000D01*
X101020582Y-29081161D01*
X100529375Y-29409375D01*
X100330000Y-29707761D01*
X100130625Y-29409375D01*
X99639418Y-29081161D01*
X99206256Y-28995000D01*
X98913744Y-28995000D01*
X98480582Y-29081161D01*
X97989375Y-29409375D01*
X97776157Y-29728478D01*
X97715183Y-29598642D01*
X97286924Y-29208355D01*
X96876890Y-29038524D01*
X96647000Y-29159845D01*
X96647000Y-30353000D01*
X96667000Y-30353000D01*
X96667000Y-30607000D01*
X96647000Y-30607000D01*
X96647000Y-30627000D01*
X96393000Y-30627000D01*
X96393000Y-30607000D01*
X96373000Y-30607000D01*
X96373000Y-30353000D01*
X96393000Y-30353000D01*
X96393000Y-29159845D01*
X96163110Y-29038524D01*
X95753076Y-29208355D01*
X95448739Y-29485708D01*
X95428157Y-29382235D01*
X95287809Y-29172191D01*
X95077765Y-29031843D01*
X94830000Y-28982560D01*
X93130000Y-28982560D01*
X92882235Y-29031843D01*
X92672191Y-29172191D01*
X92531843Y-29382235D01*
X92482560Y-29630000D01*
X92482560Y-31330000D01*
X92531843Y-31577765D01*
X92672191Y-31787809D01*
X92882235Y-31928157D01*
X93130000Y-31977440D01*
X93331518Y-31977440D01*
X93377688Y-32046537D01*
X93432072Y-32127929D01*
X93495528Y-32170329D01*
X95760000Y-34434803D01*
X95760000Y-37922560D01*
X94450000Y-37922560D01*
X94202235Y-37971843D01*
X93992191Y-38112191D01*
X93851843Y-38322235D01*
X93802560Y-38570000D01*
X93802560Y-38610000D01*
X90118043Y-38610000D01*
X89934577Y-38335423D01*
X89459909Y-38018260D01*
X89041333Y-37935000D01*
X88758667Y-37935000D01*
X88340091Y-38018260D01*
X87865423Y-38335423D01*
X87548260Y-38810091D01*
X87436887Y-39370000D01*
X87548260Y-39929909D01*
X87865423Y-40404577D01*
X88340091Y-40721740D01*
X88758667Y-40805000D01*
X89041333Y-40805000D01*
X89459909Y-40721740D01*
X89934577Y-40404577D01*
X90118043Y-40130000D01*
X93802560Y-40130000D01*
X93802560Y-40170000D01*
X93851843Y-40417765D01*
X93992191Y-40627809D01*
X94202235Y-40768157D01*
X94336106Y-40794785D01*
X94215423Y-40875423D01*
X94031957Y-41150000D01*
X87944803Y-41150000D01*
X86488688Y-39693886D01*
X86553113Y-39370000D01*
X86441740Y-38810091D01*
X86124577Y-38335423D01*
X85649909Y-38018260D01*
X85231333Y-37935000D01*
X84948667Y-37935000D01*
X84530091Y-38018260D01*
X84055423Y-38335423D01*
X83738260Y-38810091D01*
X83626887Y-39370000D01*
X83738260Y-39929909D01*
X84055423Y-40404577D01*
X84530091Y-40721740D01*
X84948667Y-40805000D01*
X85231333Y-40805000D01*
X85413886Y-40768688D01*
X87039673Y-42394476D01*
X87082071Y-42457929D01*
X87145524Y-42500327D01*
X87145526Y-42500329D01*
X87270902Y-42584102D01*
X87333463Y-42625904D01*
X87555148Y-42670000D01*
X87555152Y-42670000D01*
X87629999Y-42684888D01*
X87704846Y-42670000D01*
X94031957Y-42670000D01*
X94215423Y-42944577D01*
X94567758Y-43180000D01*
X94215423Y-43415423D01*
X93898260Y-43890091D01*
X93786887Y-44450000D01*
X93898260Y-45009909D01*
X94215423Y-45484577D01*
X94567758Y-45720000D01*
X94215423Y-45955423D01*
X93898260Y-46430091D01*
X93786887Y-46990000D01*
X93898260Y-47549909D01*
X94215423Y-48024577D01*
X94567758Y-48260000D01*
X94215423Y-48495423D01*
X93898260Y-48970091D01*
X93786887Y-49530000D01*
X93787405Y-49532602D01*
X88220331Y-43965530D01*
X88177929Y-43902071D01*
X87926537Y-43734096D01*
X87704852Y-43690000D01*
X87704847Y-43690000D01*
X87630000Y-43675112D01*
X87555153Y-43690000D01*
X79054802Y-43690000D01*
X76878860Y-41514059D01*
X77065000Y-41064678D01*
X77065000Y-40215322D01*
X76739966Y-39430620D01*
X76139380Y-38830034D01*
X75354678Y-38505000D01*
X74505322Y-38505000D01*
X73720620Y-38830034D01*
X73120034Y-39430620D01*
X72795000Y-40215322D01*
X72795000Y-41064678D01*
X73120034Y-41849380D01*
X73720620Y-42449966D01*
X74505322Y-42775000D01*
X75354678Y-42775000D01*
X75804059Y-42588860D01*
X78149670Y-44934472D01*
X78192071Y-44997929D01*
X78255527Y-45040329D01*
X78443462Y-45165904D01*
X78491605Y-45175480D01*
X78665148Y-45210000D01*
X78665152Y-45210000D01*
X78740000Y-45224888D01*
X78814848Y-45210000D01*
X87315199Y-45210000D01*
X93851312Y-51746115D01*
X93786887Y-52070000D01*
X93898260Y-52629909D01*
X94215423Y-53104577D01*
X94567758Y-53340000D01*
X94215423Y-53575423D01*
X93898260Y-54050091D01*
X93786887Y-54610000D01*
X93898260Y-55169909D01*
X94215423Y-55644577D01*
X94599108Y-55900947D01*
X94394866Y-55997611D01*
X94018959Y-56412577D01*
X93883480Y-56739675D01*
X92611600Y-55467796D01*
X92656534Y-55422862D01*
X92875000Y-54895439D01*
X92875000Y-54324561D01*
X92656534Y-53797138D01*
X92252862Y-53393466D01*
X91725439Y-53175000D01*
X91154561Y-53175000D01*
X91000837Y-53238675D01*
X90980903Y-53138462D01*
X90939101Y-53075901D01*
X90855328Y-52950525D01*
X90855326Y-52950523D01*
X90812928Y-52887070D01*
X90749475Y-52844672D01*
X89071209Y-51166408D01*
X89144092Y-50800000D01*
X89028839Y-50220582D01*
X88700625Y-49729375D01*
X88678967Y-49714904D01*
X88839698Y-49648327D01*
X89018327Y-49469699D01*
X89115000Y-49236310D01*
X89115000Y-48545750D01*
X88956250Y-48387000D01*
X87757000Y-48387000D01*
X87757000Y-48407000D01*
X87503000Y-48407000D01*
X87503000Y-48387000D01*
X86303750Y-48387000D01*
X86145000Y-48545750D01*
X86145000Y-49236310D01*
X86241673Y-49469699D01*
X86420302Y-49648327D01*
X86581033Y-49714904D01*
X86559375Y-49729375D01*
X86231161Y-50220582D01*
X86115908Y-50800000D01*
X86231161Y-51379418D01*
X86559375Y-51870625D01*
X86857761Y-52070000D01*
X86559375Y-52269375D01*
X86231161Y-52760582D01*
X86115908Y-53340000D01*
X86231161Y-53919418D01*
X86559375Y-54410625D01*
X87050582Y-54738839D01*
X87483744Y-54825000D01*
X87776256Y-54825000D01*
X88209418Y-54738839D01*
X88700625Y-54410625D01*
X89028839Y-53919418D01*
X89135980Y-53380782D01*
X89504999Y-53749802D01*
X89505000Y-55099149D01*
X89490111Y-55174001D01*
X89549096Y-55470538D01*
X89661299Y-55638461D01*
X89717071Y-55721930D01*
X89780527Y-55764330D01*
X90329122Y-56312926D01*
X90186136Y-56355995D01*
X89993035Y-56893223D01*
X90020222Y-57463454D01*
X90101634Y-57660000D01*
X87401800Y-57660000D01*
X84448106Y-54706307D01*
X84890625Y-54410625D01*
X85218839Y-53919418D01*
X85334092Y-53340000D01*
X85218839Y-52760582D01*
X84890625Y-52269375D01*
X84592239Y-52070000D01*
X84890625Y-51870625D01*
X85218839Y-51379418D01*
X85334092Y-50800000D01*
X85218839Y-50220582D01*
X84890625Y-49729375D01*
X84868967Y-49714904D01*
X85029698Y-49648327D01*
X85208327Y-49469699D01*
X85305000Y-49236310D01*
X85305000Y-48545750D01*
X85146250Y-48387000D01*
X83947000Y-48387000D01*
X83947000Y-48407000D01*
X83693000Y-48407000D01*
X83693000Y-48387000D01*
X82493750Y-48387000D01*
X82335000Y-48545750D01*
X82335000Y-49236310D01*
X82431673Y-49469699D01*
X82610302Y-49648327D01*
X82771033Y-49714904D01*
X82749375Y-49729375D01*
X82421161Y-50220582D01*
X82305908Y-50800000D01*
X82378791Y-51166408D01*
X82065530Y-51479669D01*
X82002071Y-51522071D01*
X81834096Y-51773464D01*
X81790000Y-51995149D01*
X81790000Y-51995153D01*
X81775112Y-52070000D01*
X81790000Y-52144847D01*
X81790000Y-52775199D01*
X79500000Y-50485199D01*
X79500000Y-49604848D01*
X79514888Y-49530000D01*
X79500000Y-49455152D01*
X79500000Y-49455148D01*
X79455904Y-49233463D01*
X79455904Y-49233462D01*
X79330329Y-49045527D01*
X79287929Y-48982071D01*
X79224473Y-48939671D01*
X77568492Y-47283690D01*
X82335000Y-47283690D01*
X82335000Y-47974250D01*
X82493750Y-48133000D01*
X83693000Y-48133000D01*
X83693000Y-46933750D01*
X83947000Y-46933750D01*
X83947000Y-48133000D01*
X85146250Y-48133000D01*
X85305000Y-47974250D01*
X85305000Y-47283690D01*
X86145000Y-47283690D01*
X86145000Y-47974250D01*
X86303750Y-48133000D01*
X87503000Y-48133000D01*
X87503000Y-46933750D01*
X87757000Y-46933750D01*
X87757000Y-48133000D01*
X88956250Y-48133000D01*
X89115000Y-47974250D01*
X89115000Y-47283690D01*
X89018327Y-47050301D01*
X88839698Y-46871673D01*
X88606309Y-46775000D01*
X87915750Y-46775000D01*
X87757000Y-46933750D01*
X87503000Y-46933750D01*
X87344250Y-46775000D01*
X86653691Y-46775000D01*
X86420302Y-46871673D01*
X86241673Y-47050301D01*
X86145000Y-47283690D01*
X85305000Y-47283690D01*
X85208327Y-47050301D01*
X85029698Y-46871673D01*
X84796309Y-46775000D01*
X84105750Y-46775000D01*
X83947000Y-46933750D01*
X83693000Y-46933750D01*
X83534250Y-46775000D01*
X82843691Y-46775000D01*
X82610302Y-46871673D01*
X82431673Y-47050301D01*
X82335000Y-47283690D01*
X77568492Y-47283690D01*
X76878860Y-46594059D01*
X77065000Y-46144678D01*
X77065000Y-45295322D01*
X76739966Y-44510620D01*
X76139380Y-43910034D01*
X75354678Y-43585000D01*
X74505322Y-43585000D01*
X73720620Y-43910034D01*
X73120034Y-44510620D01*
X72795000Y-45295322D01*
X72795000Y-46144678D01*
X73120034Y-46929380D01*
X73720620Y-47529966D01*
X74505322Y-47855000D01*
X75354678Y-47855000D01*
X75804059Y-47668860D01*
X77980001Y-49844803D01*
X77980000Y-50226728D01*
X77766537Y-50084096D01*
X77544852Y-50040000D01*
X77544847Y-50040000D01*
X77470000Y-50025112D01*
X77395153Y-50040000D01*
X77077440Y-50040000D01*
X77077440Y-49300000D01*
X77028157Y-49052235D01*
X76887809Y-48842191D01*
X76677765Y-48701843D01*
X76430000Y-48652560D01*
X73430000Y-48652560D01*
X73182235Y-48701843D01*
X72972191Y-48842191D01*
X72831843Y-49052235D01*
X72782560Y-49300000D01*
X70560000Y-49300000D01*
X70560000Y-35845750D01*
X72795000Y-35845750D01*
X72795000Y-37186309D01*
X72891673Y-37419698D01*
X73070301Y-37598327D01*
X73303690Y-37695000D01*
X74644250Y-37695000D01*
X74803000Y-37536250D01*
X74803000Y-35687000D01*
X75057000Y-35687000D01*
X75057000Y-37536250D01*
X75215750Y-37695000D01*
X76556310Y-37695000D01*
X76789699Y-37598327D01*
X76968327Y-37419698D01*
X77065000Y-37186309D01*
X77065000Y-35845750D01*
X76906250Y-35687000D01*
X75057000Y-35687000D01*
X74803000Y-35687000D01*
X72953750Y-35687000D01*
X72795000Y-35845750D01*
X70560000Y-35845750D01*
X70560000Y-33933691D01*
X72795000Y-33933691D01*
X72795000Y-35274250D01*
X72953750Y-35433000D01*
X74803000Y-35433000D01*
X74803000Y-33583750D01*
X75057000Y-33583750D01*
X75057000Y-35433000D01*
X76906250Y-35433000D01*
X77065000Y-35274250D01*
X77065000Y-33933691D01*
X76968327Y-33700302D01*
X76789699Y-33521673D01*
X76556310Y-33425000D01*
X75215750Y-33425000D01*
X75057000Y-33583750D01*
X74803000Y-33583750D01*
X74644250Y-33425000D01*
X73303690Y-33425000D01*
X73070301Y-33521673D01*
X72891673Y-33700302D01*
X72795000Y-33933691D01*
X70560000Y-33933691D01*
X70560000Y-30702026D01*
X70747947Y-31155771D01*
X71714229Y-32122053D01*
X72976736Y-32645000D01*
X74343264Y-32645000D01*
X75605771Y-32122053D01*
X76572053Y-31155771D01*
X77095000Y-29893264D01*
X77095000Y-28924561D01*
X83655000Y-28924561D01*
X83655000Y-29495439D01*
X83873466Y-30022862D01*
X84277138Y-30426534D01*
X84804561Y-30645000D01*
X85375439Y-30645000D01*
X85902862Y-30426534D01*
X86306534Y-30022862D01*
X86525000Y-29495439D01*
X86525000Y-28924561D01*
X87465000Y-28924561D01*
X87465000Y-29495439D01*
X87683466Y-30022862D01*
X88087138Y-30426534D01*
X88614561Y-30645000D01*
X89185439Y-30645000D01*
X89712862Y-30426534D01*
X90116534Y-30022862D01*
X90335000Y-29495439D01*
X90335000Y-28924561D01*
X90116534Y-28397138D01*
X89712862Y-27993466D01*
X89185439Y-27775000D01*
X88614561Y-27775000D01*
X88087138Y-27993466D01*
X87683466Y-28397138D01*
X87465000Y-28924561D01*
X86525000Y-28924561D01*
X86306534Y-28397138D01*
X85902862Y-27993466D01*
X85375439Y-27775000D01*
X84804561Y-27775000D01*
X84277138Y-27993466D01*
X83873466Y-28397138D01*
X83655000Y-28924561D01*
X77095000Y-28924561D01*
X77095000Y-28526736D01*
X76572053Y-27264229D01*
X75605771Y-26297947D01*
X75152026Y-26110000D01*
X114077974Y-26110000D01*
X113624229Y-26297947D01*
X113624229Y-26297947D01*
G37*
X113624229Y-26297947D02*
X112657947Y-27264229D01*
X112135000Y-28526736D01*
X112135000Y-29893264D01*
X112657947Y-31155771D01*
X113624229Y-32122053D01*
X114886736Y-32645000D01*
X116253264Y-32645000D01*
X117515771Y-32122053D01*
X118482053Y-31155771D01*
X118670000Y-30702026D01*
X118670001Y-81057976D01*
X118482053Y-80604229D01*
X117515771Y-79637947D01*
X116253264Y-79115000D01*
X114886736Y-79115000D01*
X113624229Y-79637947D01*
X112657947Y-80604229D01*
X112135000Y-81866736D01*
X112135000Y-83233264D01*
X112657947Y-84495771D01*
X113624229Y-85462053D01*
X114077974Y-85650000D01*
X75152026Y-85650000D01*
X75605771Y-85462053D01*
X76572053Y-84495771D01*
X77095000Y-83233264D01*
X77095000Y-81866736D01*
X76572053Y-80604229D01*
X75605771Y-79637947D01*
X74343264Y-79115000D01*
X72976736Y-79115000D01*
X71714229Y-79637947D01*
X70747947Y-80604229D01*
X70560000Y-81057974D01*
X70560000Y-70695322D01*
X72795000Y-70695322D01*
X72795000Y-71544678D01*
X73120034Y-72329380D01*
X73720620Y-72929966D01*
X74505322Y-73255000D01*
X75354678Y-73255000D01*
X76139380Y-72929966D01*
X76739966Y-72329380D01*
X77065000Y-71544678D01*
X77065000Y-70695322D01*
X76739966Y-69910620D01*
X76139380Y-69310034D01*
X75354678Y-68985000D01*
X74505322Y-68985000D01*
X73720620Y-69310034D01*
X73120034Y-69910620D01*
X72795000Y-70695322D01*
X70560000Y-70695322D01*
X70560000Y-49300000D01*
X72782560Y-49300000D01*
X72782560Y-52300000D01*
X72831843Y-52547765D01*
X72972191Y-52757809D01*
X73182235Y-52898157D01*
X73430000Y-52947440D01*
X76430000Y-52947440D01*
X76677765Y-52898157D01*
X76887809Y-52757809D01*
X77028157Y-52547765D01*
X77077440Y-52300000D01*
X77077440Y-51560000D01*
X77155199Y-51560000D01*
X80645744Y-55050545D01*
X80402569Y-55293720D01*
X80245000Y-55674126D01*
X80245000Y-56085874D01*
X80402569Y-56466280D01*
X80693720Y-56757431D01*
X81074126Y-56915000D01*
X81262382Y-56915000D01*
X81383462Y-56995903D01*
X81605147Y-57039999D01*
X81605151Y-57039999D01*
X81679998Y-57054887D01*
X81754845Y-57039999D01*
X81834200Y-57039999D01*
X83191359Y-58397159D01*
X83007138Y-58473466D01*
X82603466Y-58877138D01*
X82403466Y-59359980D01*
X81319130Y-60444316D01*
X81216015Y-60513216D01*
X81147115Y-60616332D01*
X81147113Y-60616334D01*
X80943055Y-60921729D01*
X80847205Y-61403601D01*
X80871400Y-61525238D01*
X80871399Y-65119728D01*
X77565001Y-61813330D01*
X77565001Y-57829848D01*
X77579889Y-57755001D01*
X77565001Y-57680154D01*
X77565001Y-57680149D01*
X77520905Y-57458464D01*
X77352930Y-57207072D01*
X77289471Y-57164670D01*
X77020330Y-56895529D01*
X77020328Y-56895526D01*
X76878861Y-56754059D01*
X77065000Y-56304678D01*
X77065000Y-55455322D01*
X76739966Y-54670620D01*
X76139380Y-54070034D01*
X75354678Y-53745000D01*
X74505322Y-53745000D01*
X73720620Y-54070034D01*
X73120034Y-54670620D01*
X72795000Y-55455322D01*
X72795000Y-56304678D01*
X73120034Y-57089380D01*
X73720620Y-57689966D01*
X74505322Y-58015000D01*
X75354678Y-58015000D01*
X75804059Y-57828861D01*
X75945526Y-57970328D01*
X75945529Y-57970330D01*
X76045002Y-58069803D01*
X76045002Y-59110941D01*
X75354678Y-58825000D01*
X74505322Y-58825000D01*
X73720620Y-59150034D01*
X73120034Y-59750620D01*
X72795000Y-60535322D01*
X72795000Y-61384678D01*
X73120034Y-62169380D01*
X73720620Y-62769966D01*
X74505322Y-63095000D01*
X75354678Y-63095000D01*
X75670000Y-62964390D01*
X75669999Y-63790150D01*
X75655111Y-63864997D01*
X75660594Y-63892560D01*
X73430000Y-63892560D01*
X73182235Y-63941843D01*
X72972191Y-64082191D01*
X72831843Y-64292235D01*
X72782560Y-64540000D01*
X72782560Y-67540000D01*
X72831843Y-67787765D01*
X72972191Y-67997809D01*
X73182235Y-68138157D01*
X73430000Y-68187440D01*
X76430000Y-68187440D01*
X76677765Y-68138157D01*
X76887809Y-67997809D01*
X77028157Y-67787765D01*
X77077440Y-67540000D01*
X77077440Y-67512241D01*
X78425283Y-68860084D01*
X78153720Y-68972569D01*
X77862569Y-69263720D01*
X77705000Y-69644126D01*
X77705000Y-70055874D01*
X77862569Y-70436280D01*
X77980000Y-70553711D01*
X77980001Y-72075197D01*
X75804059Y-74251140D01*
X75354678Y-74065000D01*
X74505322Y-74065000D01*
X73720620Y-74390034D01*
X73120034Y-74990620D01*
X72795000Y-75775322D01*
X72795000Y-76624678D01*
X73120034Y-77409380D01*
X73720620Y-78009966D01*
X74505322Y-78335000D01*
X75354678Y-78335000D01*
X76139380Y-78009966D01*
X76739966Y-77409380D01*
X77065000Y-76624678D01*
X77065000Y-75775322D01*
X76878860Y-75325941D01*
X79224473Y-72980329D01*
X79287929Y-72937929D01*
X79330924Y-72873582D01*
X79455904Y-72686538D01*
X79465480Y-72638395D01*
X79500000Y-72464852D01*
X79500000Y-72464848D01*
X79514888Y-72390000D01*
X79500000Y-72315152D01*
X79500000Y-70553711D01*
X79617431Y-70436280D01*
X79729916Y-70164718D01*
X83709673Y-74144476D01*
X83752071Y-74207929D01*
X83815524Y-74250327D01*
X83815526Y-74250329D01*
X83940902Y-74334102D01*
X84003463Y-74375904D01*
X84225148Y-74420000D01*
X84225152Y-74420000D01*
X84299999Y-74434888D01*
X84374846Y-74420000D01*
X93276289Y-74420000D01*
X93393720Y-74537431D01*
X93774126Y-74695000D01*
X94185874Y-74695000D01*
X94566280Y-74537431D01*
X94857431Y-74246280D01*
X95015000Y-73865874D01*
X95015000Y-73806368D01*
X95108667Y-73825000D01*
X95391333Y-73825000D01*
X95809909Y-73741740D01*
X96284577Y-73424577D01*
X96601740Y-72949909D01*
X96713113Y-72390000D01*
X96601740Y-71830091D01*
X96284577Y-71355423D01*
X95932242Y-71120000D01*
X96284577Y-70884577D01*
X96601740Y-70409909D01*
X96713113Y-69850000D01*
X96601740Y-69290091D01*
X96395920Y-68982060D01*
X96404332Y-68969471D01*
X98274473Y-67099331D01*
X98337929Y-67056931D01*
X98505904Y-66805539D01*
X98550000Y-66583854D01*
X98550000Y-66583850D01*
X98564888Y-66509002D01*
X98550000Y-66434154D01*
X98550000Y-65476516D01*
X98667431Y-65359085D01*
X98825000Y-64978679D01*
X98825000Y-64566931D01*
X98667431Y-64186525D01*
X98376280Y-63895374D01*
X97995874Y-63737805D01*
X97584126Y-63737805D01*
X97203720Y-63895374D01*
X96912569Y-64186525D01*
X96755000Y-64566931D01*
X96755000Y-64978679D01*
X96912569Y-65359085D01*
X97030001Y-65476517D01*
X97030000Y-66194200D01*
X96550618Y-66673582D01*
X96284577Y-66275423D01*
X95932242Y-66040000D01*
X96284577Y-65804577D01*
X96601740Y-65329909D01*
X96713113Y-64770000D01*
X96601740Y-64210091D01*
X96395920Y-63902060D01*
X96404331Y-63889472D01*
X96909476Y-63384329D01*
X96972930Y-63341930D01*
X97015328Y-63278477D01*
X97015330Y-63278475D01*
X97129611Y-63107440D01*
X97140905Y-63090538D01*
X97185001Y-62868853D01*
X97185001Y-62868849D01*
X97199889Y-62794002D01*
X97185001Y-62719155D01*
X97185001Y-53319847D01*
X97199889Y-53245000D01*
X97185001Y-53170153D01*
X97185001Y-53170149D01*
X97140905Y-52948464D01*
X97071698Y-52844888D01*
X97015330Y-52760527D01*
X97015328Y-52760525D01*
X96972930Y-52697072D01*
X96909477Y-52654674D01*
X96648688Y-52393886D01*
X96713113Y-52070000D01*
X96601740Y-51510091D01*
X96284577Y-51035423D01*
X95932242Y-50800000D01*
X96284577Y-50564577D01*
X96601740Y-50089909D01*
X96713113Y-49530000D01*
X96648688Y-49206114D01*
X98274476Y-47580327D01*
X98337929Y-47537929D01*
X98380327Y-47474476D01*
X98380329Y-47474474D01*
X98505903Y-47286538D01*
X98505904Y-47286537D01*
X98550000Y-47064852D01*
X98550000Y-47064848D01*
X98564888Y-46990001D01*
X98550000Y-46915154D01*
X98550000Y-34604801D01*
X101233592Y-31921209D01*
X101453744Y-31965000D01*
X101746256Y-31965000D01*
X101966408Y-31921209D01*
X103380001Y-33334804D01*
X103380001Y-38008333D01*
X103011333Y-37935000D01*
X102728667Y-37935000D01*
X102310091Y-38018260D01*
X101835423Y-38335423D01*
X101518260Y-38810091D01*
X101406887Y-39370000D01*
X101518260Y-39929909D01*
X101835423Y-40404577D01*
X102187758Y-40640000D01*
X101835423Y-40875423D01*
X101518260Y-41350091D01*
X101406887Y-41910000D01*
X101518260Y-42469909D01*
X101835423Y-42944577D01*
X102187758Y-43180000D01*
X101835423Y-43415423D01*
X101518260Y-43890091D01*
X101406887Y-44450000D01*
X101518260Y-45009909D01*
X101835423Y-45484577D01*
X102187758Y-45720000D01*
X101835423Y-45955423D01*
X101518260Y-46430091D01*
X101406887Y-46990000D01*
X101453631Y-47225000D01*
X101394126Y-47225000D01*
X101090000Y-47350973D01*
X101090000Y-43883711D01*
X101207431Y-43766280D01*
X101365000Y-43385874D01*
X101365000Y-42974126D01*
X101207431Y-42593720D01*
X100916280Y-42302569D01*
X100535874Y-42145000D01*
X100124126Y-42145000D01*
X99743720Y-42302569D01*
X99452569Y-42593720D01*
X99295000Y-42974126D01*
X99295000Y-43385874D01*
X99452569Y-43766280D01*
X99570000Y-43883711D01*
X99570001Y-68111850D01*
X99614097Y-68333535D01*
X99782072Y-68584927D01*
X100033464Y-68752902D01*
X100330000Y-68811887D01*
X100626537Y-68752902D01*
X100840001Y-68610270D01*
X100840001Y-70003726D01*
X100626537Y-69861094D01*
X100330000Y-69802110D01*
X100033462Y-69861094D01*
X99845527Y-69986669D01*
X95079317Y-74752880D01*
X95077765Y-74751843D01*
X94830000Y-74702560D01*
X93130000Y-74702560D01*
X92882235Y-74751843D01*
X92672191Y-74892191D01*
X92531843Y-75102235D01*
X92482560Y-75350000D01*
X92482560Y-77050000D01*
X92531843Y-77297765D01*
X92672191Y-77507809D01*
X92882235Y-77648157D01*
X93130000Y-77697440D01*
X93220001Y-77697440D01*
X93220000Y-79560407D01*
X93016564Y-79600873D01*
X92725414Y-79795414D01*
X92530873Y-80086564D01*
X92462560Y-80429999D01*
X92462560Y-82130001D01*
X92530873Y-82473436D01*
X92725414Y-82764586D01*
X93016564Y-82959127D01*
X93359999Y-83027440D01*
X94600001Y-83027440D01*
X94943436Y-82959127D01*
X95234586Y-82764586D01*
X95411737Y-82499462D01*
X95549509Y-82670533D01*
X96067500Y-82953584D01*
X96159969Y-82971302D01*
X96393000Y-82850246D01*
X96393000Y-81407000D01*
X96373000Y-81407000D01*
X96373000Y-81153000D01*
X96393000Y-81153000D01*
X96393000Y-79709754D01*
X96159969Y-79588698D01*
X96067500Y-79606416D01*
X95549509Y-79889467D01*
X95411737Y-80060538D01*
X95234586Y-79795414D01*
X94943436Y-79600873D01*
X94740000Y-79560407D01*
X94740000Y-77697440D01*
X94830000Y-77697440D01*
X95077765Y-77648157D01*
X95287809Y-77507809D01*
X95428157Y-77297765D01*
X95448739Y-77194292D01*
X95753076Y-77471645D01*
X96163110Y-77641476D01*
X96393000Y-77520155D01*
X96393000Y-76327000D01*
X96373000Y-76327000D01*
X96373000Y-76073000D01*
X96393000Y-76073000D01*
X96393000Y-76053000D01*
X96647000Y-76053000D01*
X96647000Y-76073000D01*
X96667000Y-76073000D01*
X96667000Y-76327000D01*
X96647000Y-76327000D01*
X96647000Y-77520155D01*
X96876890Y-77641476D01*
X97286924Y-77471645D01*
X97715183Y-77081358D01*
X97776157Y-76951522D01*
X97989375Y-77270625D01*
X98300001Y-77478178D01*
X98300000Y-79747768D01*
X97974956Y-79964956D01*
X97782841Y-80252478D01*
X97490491Y-79889467D01*
X96972500Y-79606416D01*
X96880031Y-79588698D01*
X96647000Y-79709754D01*
X96647000Y-81153000D01*
X96667000Y-81153000D01*
X96667000Y-81407000D01*
X96647000Y-81407000D01*
X96647000Y-82850246D01*
X96880031Y-82971302D01*
X96972500Y-82953584D01*
X97490491Y-82670533D01*
X97782840Y-82307523D01*
X97974956Y-82595044D01*
X98472779Y-82927678D01*
X99060000Y-83044484D01*
X99647222Y-82927678D01*
X100145044Y-82595044D01*
X100330000Y-82318237D01*
X100514956Y-82595044D01*
X101012779Y-82927678D01*
X101600000Y-83044484D01*
X102187222Y-82927678D01*
X102685044Y-82595044D01*
X102870000Y-82318237D01*
X103054956Y-82595044D01*
X103552779Y-82927678D01*
X104140000Y-83044484D01*
X104727222Y-82927678D01*
X105225044Y-82595044D01*
X105410000Y-82318237D01*
X105594956Y-82595044D01*
X106092779Y-82927678D01*
X106680000Y-83044484D01*
X107267222Y-82927678D01*
X107765044Y-82595044D01*
X108097678Y-82097221D01*
X108185000Y-81658225D01*
X108185000Y-80901774D01*
X108097678Y-80462778D01*
X107765044Y-79964956D01*
X107267221Y-79632322D01*
X106680000Y-79515516D01*
X106092778Y-79632322D01*
X105594956Y-79964956D01*
X105410000Y-80241763D01*
X105225044Y-79964956D01*
X104900000Y-79747769D01*
X104900000Y-77478178D01*
X105210625Y-77270625D01*
X105410000Y-76972239D01*
X105609375Y-77270625D01*
X106100582Y-77598839D01*
X106533744Y-77685000D01*
X106826256Y-77685000D01*
X107259418Y-77598839D01*
X107750625Y-77270625D01*
X108078839Y-76779418D01*
X108194092Y-76200000D01*
X108078839Y-75620582D01*
X107750625Y-75129375D01*
X107259418Y-74801161D01*
X106826256Y-74715000D01*
X106533744Y-74715000D01*
X106170000Y-74787353D01*
X106170000Y-74700000D01*
X110882560Y-74700000D01*
X110882560Y-77700000D01*
X110931843Y-77947765D01*
X111072191Y-78157809D01*
X111282235Y-78298157D01*
X111530000Y-78347440D01*
X114530000Y-78347440D01*
X114777765Y-78298157D01*
X114987809Y-78157809D01*
X115128157Y-77947765D01*
X115177440Y-77700000D01*
X115177440Y-74700000D01*
X115128157Y-74452235D01*
X114987809Y-74242191D01*
X114777765Y-74101843D01*
X114530000Y-74052560D01*
X111530000Y-74052560D01*
X111282235Y-74101843D01*
X111072191Y-74242191D01*
X110931843Y-74452235D01*
X110882560Y-74700000D01*
X106170000Y-74700000D01*
X106170000Y-73751668D01*
X106538667Y-73825000D01*
X106821333Y-73825000D01*
X107239909Y-73741740D01*
X107714577Y-73424577D01*
X108031740Y-72949909D01*
X108143113Y-72390000D01*
X108031740Y-71830091D01*
X107714577Y-71355423D01*
X107362242Y-71120000D01*
X107714577Y-70884577D01*
X107841033Y-70695322D01*
X110895000Y-70695322D01*
X110895000Y-71544678D01*
X111220034Y-72329380D01*
X111820620Y-72929966D01*
X112605322Y-73255000D01*
X113454678Y-73255000D01*
X114239380Y-72929966D01*
X114839966Y-72329380D01*
X115165000Y-71544678D01*
X115165000Y-70695322D01*
X114839966Y-69910620D01*
X114239380Y-69310034D01*
X113454678Y-68985000D01*
X112605322Y-68985000D01*
X111820620Y-69310034D01*
X111220034Y-69910620D01*
X110895000Y-70695322D01*
X107841033Y-70695322D01*
X108031740Y-70409909D01*
X108143113Y-69850000D01*
X108031740Y-69290091D01*
X107714577Y-68815423D01*
X107362242Y-68580000D01*
X107714577Y-68344577D01*
X108031740Y-67869909D01*
X108143113Y-67310000D01*
X108031740Y-66750091D01*
X107714577Y-66275423D01*
X107362242Y-66040000D01*
X107714577Y-65804577D01*
X107841033Y-65615322D01*
X110895000Y-65615322D01*
X110895000Y-66464678D01*
X111220034Y-67249380D01*
X111820620Y-67849966D01*
X112605322Y-68175000D01*
X113454678Y-68175000D01*
X114239380Y-67849966D01*
X114839966Y-67249380D01*
X115165000Y-66464678D01*
X115165000Y-65615322D01*
X114839966Y-64830620D01*
X114239380Y-64230034D01*
X113454678Y-63905000D01*
X112605322Y-63905000D01*
X111820620Y-64230034D01*
X111220034Y-64830620D01*
X110895000Y-65615322D01*
X107841033Y-65615322D01*
X108031740Y-65329909D01*
X108143113Y-64770000D01*
X108031740Y-64210091D01*
X107714577Y-63735423D01*
X107362242Y-63500000D01*
X107714577Y-63264577D01*
X108031740Y-62789909D01*
X108143113Y-62230000D01*
X108031740Y-61670091D01*
X107714577Y-61195423D01*
X107593894Y-61114785D01*
X107727765Y-61088157D01*
X107937809Y-60947809D01*
X108078157Y-60737765D01*
X108127440Y-60490000D01*
X108127440Y-59460000D01*
X110882560Y-59460000D01*
X110882560Y-62460000D01*
X110931843Y-62707765D01*
X111072191Y-62917809D01*
X111282235Y-63058157D01*
X111530000Y-63107440D01*
X114530000Y-63107440D01*
X114777765Y-63058157D01*
X114987809Y-62917809D01*
X115128157Y-62707765D01*
X115177440Y-62460000D01*
X115177440Y-59460000D01*
X115128157Y-59212235D01*
X114987809Y-59002191D01*
X114777765Y-58861843D01*
X114530000Y-58812560D01*
X111530000Y-58812560D01*
X111282235Y-58861843D01*
X111072191Y-59002191D01*
X110931843Y-59212235D01*
X110882560Y-59460000D01*
X108127440Y-59460000D01*
X108127440Y-58890000D01*
X108078157Y-58642235D01*
X107937809Y-58432191D01*
X107727765Y-58291843D01*
X107594134Y-58265262D01*
X107896534Y-57962862D01*
X108096534Y-57480019D01*
X110007269Y-55569285D01*
X110110385Y-55500385D01*
X110140495Y-55455322D01*
X110895000Y-55455322D01*
X110895000Y-56304678D01*
X111220034Y-57089380D01*
X111820620Y-57689966D01*
X112605322Y-58015000D01*
X113454678Y-58015000D01*
X114239380Y-57689966D01*
X114839966Y-57089380D01*
X115165000Y-56304678D01*
X115165000Y-55455322D01*
X114839966Y-54670620D01*
X114239380Y-54070034D01*
X113454678Y-53745000D01*
X112605322Y-53745000D01*
X111820620Y-54070034D01*
X111220034Y-54670620D01*
X110895000Y-55455322D01*
X110140495Y-55455322D01*
X110214431Y-55344670D01*
X110383343Y-55091874D01*
X110383344Y-55091873D01*
X110455000Y-54731636D01*
X110455000Y-54731632D01*
X110479194Y-54610001D01*
X110455000Y-54488370D01*
X110455000Y-50375322D01*
X110895000Y-50375322D01*
X110895000Y-51224678D01*
X111220034Y-52009380D01*
X111820620Y-52609966D01*
X112605322Y-52935000D01*
X113454678Y-52935000D01*
X114239380Y-52609966D01*
X114839966Y-52009380D01*
X115165000Y-51224678D01*
X115165000Y-50375322D01*
X114839966Y-49590620D01*
X114239380Y-48990034D01*
X113454678Y-48665000D01*
X112605322Y-48665000D01*
X111820620Y-48990034D01*
X111220034Y-49590620D01*
X110895000Y-50375322D01*
X110455000Y-50375322D01*
X110455000Y-44220000D01*
X110882560Y-44220000D01*
X110882560Y-47220000D01*
X110931843Y-47467765D01*
X111072191Y-47677809D01*
X111282235Y-47818157D01*
X111530000Y-47867440D01*
X114530000Y-47867440D01*
X114777765Y-47818157D01*
X114987809Y-47677809D01*
X115128157Y-47467765D01*
X115177440Y-47220000D01*
X115177440Y-44220000D01*
X115128157Y-43972235D01*
X114987809Y-43762191D01*
X114777765Y-43621843D01*
X114530000Y-43572560D01*
X111530000Y-43572560D01*
X111282235Y-43621843D01*
X111072191Y-43762191D01*
X110931843Y-43972235D01*
X110882560Y-44220000D01*
X110455000Y-44220000D01*
X110455000Y-40215322D01*
X110895000Y-40215322D01*
X110895000Y-41064678D01*
X111220034Y-41849380D01*
X111820620Y-42449966D01*
X112605322Y-42775000D01*
X113454678Y-42775000D01*
X114239380Y-42449966D01*
X114839966Y-41849380D01*
X115165000Y-41064678D01*
X115165000Y-40215322D01*
X114839966Y-39430620D01*
X114239380Y-38830034D01*
X113454678Y-38505000D01*
X112605322Y-38505000D01*
X111820620Y-38830034D01*
X111220034Y-39430620D01*
X110895000Y-40215322D01*
X110455000Y-40215322D01*
X110455000Y-37598281D01*
X110655000Y-37115439D01*
X110655000Y-36652735D01*
X113616870Y-36652735D01*
X113666383Y-36878164D01*
X114131036Y-37037807D01*
X114621413Y-37007482D01*
X114933617Y-36878164D01*
X114983130Y-36652735D01*
X114300000Y-35969605D01*
X113616870Y-36652735D01*
X110655000Y-36652735D01*
X110655000Y-36544561D01*
X110436534Y-36017138D01*
X110040432Y-35621036D01*
X113052193Y-35621036D01*
X113082518Y-36111413D01*
X113211836Y-36423617D01*
X113437265Y-36473130D01*
X114120395Y-35790000D01*
X114106253Y-35775858D01*
X114285858Y-35596253D01*
X114300000Y-35610395D01*
X114314143Y-35596253D01*
X114493748Y-35775858D01*
X114479605Y-35790000D01*
X115162735Y-36473130D01*
X115388164Y-36423617D01*
X115547807Y-35958964D01*
X115517482Y-35468587D01*
X115425495Y-35246510D01*
X115498157Y-35137765D01*
X115547440Y-34890000D01*
X115547440Y-33690000D01*
X115498157Y-33442235D01*
X115357809Y-33232191D01*
X115147765Y-33091843D01*
X114900000Y-33042560D01*
X113700000Y-33042560D01*
X113452235Y-33091843D01*
X113242191Y-33232191D01*
X113101843Y-33442235D01*
X113052560Y-33690000D01*
X113052560Y-34890000D01*
X113101843Y-35137765D01*
X113178709Y-35252802D01*
X113052193Y-35621036D01*
X110040432Y-35621036D01*
X110032862Y-35613466D01*
X109505439Y-35395000D01*
X108934561Y-35395000D01*
X108407138Y-35613466D01*
X108104738Y-35915866D01*
X108078157Y-35782235D01*
X107937809Y-35572191D01*
X107727765Y-35431843D01*
X107480000Y-35382560D01*
X106170000Y-35382560D01*
X106170000Y-31892647D01*
X106533744Y-31965000D01*
X106826256Y-31965000D01*
X107259418Y-31878839D01*
X107750625Y-31550625D01*
X108078839Y-31059418D01*
X108194092Y-30480000D01*
X108078839Y-29900582D01*
X107750625Y-29409375D01*
X107259418Y-29081161D01*
X106826256Y-28995000D01*
X106533744Y-28995000D01*
X106100582Y-29081161D01*
X105609375Y-29409375D01*
X105410000Y-29707761D01*
X105210625Y-29409375D01*
X104719418Y-29081161D01*
X104286256Y-28995000D01*
X103993744Y-28995000D01*
X103560582Y-29081161D01*
X103069375Y-29409375D01*
X102870000Y-29707761D01*
X102670625Y-29409375D01*
X102179418Y-29081161D01*
X101746256Y-28995000D01*
X101453744Y-28995000D01*
X101020582Y-29081161D01*
X100529375Y-29409375D01*
X100330000Y-29707761D01*
X100130625Y-29409375D01*
X99639418Y-29081161D01*
X99206256Y-28995000D01*
X98913744Y-28995000D01*
X98480582Y-29081161D01*
X97989375Y-29409375D01*
X97776157Y-29728478D01*
X97715183Y-29598642D01*
X97286924Y-29208355D01*
X96876890Y-29038524D01*
X96647000Y-29159845D01*
X96647000Y-30353000D01*
X96667000Y-30353000D01*
X96667000Y-30607000D01*
X96647000Y-30607000D01*
X96647000Y-30627000D01*
X96393000Y-30627000D01*
X96393000Y-30607000D01*
X96373000Y-30607000D01*
X96373000Y-30353000D01*
X96393000Y-30353000D01*
X96393000Y-29159845D01*
X96163110Y-29038524D01*
X95753076Y-29208355D01*
X95448739Y-29485708D01*
X95428157Y-29382235D01*
X95287809Y-29172191D01*
X95077765Y-29031843D01*
X94830000Y-28982560D01*
X93130000Y-28982560D01*
X92882235Y-29031843D01*
X92672191Y-29172191D01*
X92531843Y-29382235D01*
X92482560Y-29630000D01*
X92482560Y-31330000D01*
X92531843Y-31577765D01*
X92672191Y-31787809D01*
X92882235Y-31928157D01*
X93130000Y-31977440D01*
X93331518Y-31977440D01*
X93377688Y-32046537D01*
X93432072Y-32127929D01*
X93495528Y-32170329D01*
X95760000Y-34434803D01*
X95760000Y-37922560D01*
X94450000Y-37922560D01*
X94202235Y-37971843D01*
X93992191Y-38112191D01*
X93851843Y-38322235D01*
X93802560Y-38570000D01*
X93802560Y-38610000D01*
X90118043Y-38610000D01*
X89934577Y-38335423D01*
X89459909Y-38018260D01*
X89041333Y-37935000D01*
X88758667Y-37935000D01*
X88340091Y-38018260D01*
X87865423Y-38335423D01*
X87548260Y-38810091D01*
X87436887Y-39370000D01*
X87548260Y-39929909D01*
X87865423Y-40404577D01*
X88340091Y-40721740D01*
X88758667Y-40805000D01*
X89041333Y-40805000D01*
X89459909Y-40721740D01*
X89934577Y-40404577D01*
X90118043Y-40130000D01*
X93802560Y-40130000D01*
X93802560Y-40170000D01*
X93851843Y-40417765D01*
X93992191Y-40627809D01*
X94202235Y-40768157D01*
X94336106Y-40794785D01*
X94215423Y-40875423D01*
X94031957Y-41150000D01*
X87944803Y-41150000D01*
X86488688Y-39693886D01*
X86553113Y-39370000D01*
X86441740Y-38810091D01*
X86124577Y-38335423D01*
X85649909Y-38018260D01*
X85231333Y-37935000D01*
X84948667Y-37935000D01*
X84530091Y-38018260D01*
X84055423Y-38335423D01*
X83738260Y-38810091D01*
X83626887Y-39370000D01*
X83738260Y-39929909D01*
X84055423Y-40404577D01*
X84530091Y-40721740D01*
X84948667Y-40805000D01*
X85231333Y-40805000D01*
X85413886Y-40768688D01*
X87039673Y-42394476D01*
X87082071Y-42457929D01*
X87145524Y-42500327D01*
X87145526Y-42500329D01*
X87270902Y-42584102D01*
X87333463Y-42625904D01*
X87555148Y-42670000D01*
X87555152Y-42670000D01*
X87629999Y-42684888D01*
X87704846Y-42670000D01*
X94031957Y-42670000D01*
X94215423Y-42944577D01*
X94567758Y-43180000D01*
X94215423Y-43415423D01*
X93898260Y-43890091D01*
X93786887Y-44450000D01*
X93898260Y-45009909D01*
X94215423Y-45484577D01*
X94567758Y-45720000D01*
X94215423Y-45955423D01*
X93898260Y-46430091D01*
X93786887Y-46990000D01*
X93898260Y-47549909D01*
X94215423Y-48024577D01*
X94567758Y-48260000D01*
X94215423Y-48495423D01*
X93898260Y-48970091D01*
X93786887Y-49530000D01*
X93787405Y-49532602D01*
X88220331Y-43965530D01*
X88177929Y-43902071D01*
X87926537Y-43734096D01*
X87704852Y-43690000D01*
X87704847Y-43690000D01*
X87630000Y-43675112D01*
X87555153Y-43690000D01*
X79054802Y-43690000D01*
X76878860Y-41514059D01*
X77065000Y-41064678D01*
X77065000Y-40215322D01*
X76739966Y-39430620D01*
X76139380Y-38830034D01*
X75354678Y-38505000D01*
X74505322Y-38505000D01*
X73720620Y-38830034D01*
X73120034Y-39430620D01*
X72795000Y-40215322D01*
X72795000Y-41064678D01*
X73120034Y-41849380D01*
X73720620Y-42449966D01*
X74505322Y-42775000D01*
X75354678Y-42775000D01*
X75804059Y-42588860D01*
X78149670Y-44934472D01*
X78192071Y-44997929D01*
X78255527Y-45040329D01*
X78443462Y-45165904D01*
X78491605Y-45175480D01*
X78665148Y-45210000D01*
X78665152Y-45210000D01*
X78740000Y-45224888D01*
X78814848Y-45210000D01*
X87315199Y-45210000D01*
X93851312Y-51746115D01*
X93786887Y-52070000D01*
X93898260Y-52629909D01*
X94215423Y-53104577D01*
X94567758Y-53340000D01*
X94215423Y-53575423D01*
X93898260Y-54050091D01*
X93786887Y-54610000D01*
X93898260Y-55169909D01*
X94215423Y-55644577D01*
X94599108Y-55900947D01*
X94394866Y-55997611D01*
X94018959Y-56412577D01*
X93883480Y-56739675D01*
X92611600Y-55467796D01*
X92656534Y-55422862D01*
X92875000Y-54895439D01*
X92875000Y-54324561D01*
X92656534Y-53797138D01*
X92252862Y-53393466D01*
X91725439Y-53175000D01*
X91154561Y-53175000D01*
X91000837Y-53238675D01*
X90980903Y-53138462D01*
X90939101Y-53075901D01*
X90855328Y-52950525D01*
X90855326Y-52950523D01*
X90812928Y-52887070D01*
X90749475Y-52844672D01*
X89071209Y-51166408D01*
X89144092Y-50800000D01*
X89028839Y-50220582D01*
X88700625Y-49729375D01*
X88678967Y-49714904D01*
X88839698Y-49648327D01*
X89018327Y-49469699D01*
X89115000Y-49236310D01*
X89115000Y-48545750D01*
X88956250Y-48387000D01*
X87757000Y-48387000D01*
X87757000Y-48407000D01*
X87503000Y-48407000D01*
X87503000Y-48387000D01*
X86303750Y-48387000D01*
X86145000Y-48545750D01*
X86145000Y-49236310D01*
X86241673Y-49469699D01*
X86420302Y-49648327D01*
X86581033Y-49714904D01*
X86559375Y-49729375D01*
X86231161Y-50220582D01*
X86115908Y-50800000D01*
X86231161Y-51379418D01*
X86559375Y-51870625D01*
X86857761Y-52070000D01*
X86559375Y-52269375D01*
X86231161Y-52760582D01*
X86115908Y-53340000D01*
X86231161Y-53919418D01*
X86559375Y-54410625D01*
X87050582Y-54738839D01*
X87483744Y-54825000D01*
X87776256Y-54825000D01*
X88209418Y-54738839D01*
X88700625Y-54410625D01*
X89028839Y-53919418D01*
X89135980Y-53380782D01*
X89504999Y-53749802D01*
X89505000Y-55099149D01*
X89490111Y-55174001D01*
X89549096Y-55470538D01*
X89661299Y-55638461D01*
X89717071Y-55721930D01*
X89780527Y-55764330D01*
X90329122Y-56312926D01*
X90186136Y-56355995D01*
X89993035Y-56893223D01*
X90020222Y-57463454D01*
X90101634Y-57660000D01*
X87401800Y-57660000D01*
X84448106Y-54706307D01*
X84890625Y-54410625D01*
X85218839Y-53919418D01*
X85334092Y-53340000D01*
X85218839Y-52760582D01*
X84890625Y-52269375D01*
X84592239Y-52070000D01*
X84890625Y-51870625D01*
X85218839Y-51379418D01*
X85334092Y-50800000D01*
X85218839Y-50220582D01*
X84890625Y-49729375D01*
X84868967Y-49714904D01*
X85029698Y-49648327D01*
X85208327Y-49469699D01*
X85305000Y-49236310D01*
X85305000Y-48545750D01*
X85146250Y-48387000D01*
X83947000Y-48387000D01*
X83947000Y-48407000D01*
X83693000Y-48407000D01*
X83693000Y-48387000D01*
X82493750Y-48387000D01*
X82335000Y-48545750D01*
X82335000Y-49236310D01*
X82431673Y-49469699D01*
X82610302Y-49648327D01*
X82771033Y-49714904D01*
X82749375Y-49729375D01*
X82421161Y-50220582D01*
X82305908Y-50800000D01*
X82378791Y-51166408D01*
X82065530Y-51479669D01*
X82002071Y-51522071D01*
X81834096Y-51773464D01*
X81790000Y-51995149D01*
X81790000Y-51995153D01*
X81775112Y-52070000D01*
X81790000Y-52144847D01*
X81790000Y-52775199D01*
X79500000Y-50485199D01*
X79500000Y-49604848D01*
X79514888Y-49530000D01*
X79500000Y-49455152D01*
X79500000Y-49455148D01*
X79455904Y-49233463D01*
X79455904Y-49233462D01*
X79330329Y-49045527D01*
X79287929Y-48982071D01*
X79224473Y-48939671D01*
X77568492Y-47283690D01*
X82335000Y-47283690D01*
X82335000Y-47974250D01*
X82493750Y-48133000D01*
X83693000Y-48133000D01*
X83693000Y-46933750D01*
X83947000Y-46933750D01*
X83947000Y-48133000D01*
X85146250Y-48133000D01*
X85305000Y-47974250D01*
X85305000Y-47283690D01*
X86145000Y-47283690D01*
X86145000Y-47974250D01*
X86303750Y-48133000D01*
X87503000Y-48133000D01*
X87503000Y-46933750D01*
X87757000Y-46933750D01*
X87757000Y-48133000D01*
X88956250Y-48133000D01*
X89115000Y-47974250D01*
X89115000Y-47283690D01*
X89018327Y-47050301D01*
X88839698Y-46871673D01*
X88606309Y-46775000D01*
X87915750Y-46775000D01*
X87757000Y-46933750D01*
X87503000Y-46933750D01*
X87344250Y-46775000D01*
X86653691Y-46775000D01*
X86420302Y-46871673D01*
X86241673Y-47050301D01*
X86145000Y-47283690D01*
X85305000Y-47283690D01*
X85208327Y-47050301D01*
X85029698Y-46871673D01*
X84796309Y-46775000D01*
X84105750Y-46775000D01*
X83947000Y-46933750D01*
X83693000Y-46933750D01*
X83534250Y-46775000D01*
X82843691Y-46775000D01*
X82610302Y-46871673D01*
X82431673Y-47050301D01*
X82335000Y-47283690D01*
X77568492Y-47283690D01*
X76878860Y-46594059D01*
X77065000Y-46144678D01*
X77065000Y-45295322D01*
X76739966Y-44510620D01*
X76139380Y-43910034D01*
X75354678Y-43585000D01*
X74505322Y-43585000D01*
X73720620Y-43910034D01*
X73120034Y-44510620D01*
X72795000Y-45295322D01*
X72795000Y-46144678D01*
X73120034Y-46929380D01*
X73720620Y-47529966D01*
X74505322Y-47855000D01*
X75354678Y-47855000D01*
X75804059Y-47668860D01*
X77980001Y-49844803D01*
X77980000Y-50226728D01*
X77766537Y-50084096D01*
X77544852Y-50040000D01*
X77544847Y-50040000D01*
X77470000Y-50025112D01*
X77395153Y-50040000D01*
X77077440Y-50040000D01*
X77077440Y-49300000D01*
X77028157Y-49052235D01*
X76887809Y-48842191D01*
X76677765Y-48701843D01*
X76430000Y-48652560D01*
X73430000Y-48652560D01*
X73182235Y-48701843D01*
X72972191Y-48842191D01*
X72831843Y-49052235D01*
X72782560Y-49300000D01*
X70560000Y-49300000D01*
X70560000Y-35845750D01*
X72795000Y-35845750D01*
X72795000Y-37186309D01*
X72891673Y-37419698D01*
X73070301Y-37598327D01*
X73303690Y-37695000D01*
X74644250Y-37695000D01*
X74803000Y-37536250D01*
X74803000Y-35687000D01*
X75057000Y-35687000D01*
X75057000Y-37536250D01*
X75215750Y-37695000D01*
X76556310Y-37695000D01*
X76789699Y-37598327D01*
X76968327Y-37419698D01*
X77065000Y-37186309D01*
X77065000Y-35845750D01*
X76906250Y-35687000D01*
X75057000Y-35687000D01*
X74803000Y-35687000D01*
X72953750Y-35687000D01*
X72795000Y-35845750D01*
X70560000Y-35845750D01*
X70560000Y-33933691D01*
X72795000Y-33933691D01*
X72795000Y-35274250D01*
X72953750Y-35433000D01*
X74803000Y-35433000D01*
X74803000Y-33583750D01*
X75057000Y-33583750D01*
X75057000Y-35433000D01*
X76906250Y-35433000D01*
X77065000Y-35274250D01*
X77065000Y-33933691D01*
X76968327Y-33700302D01*
X76789699Y-33521673D01*
X76556310Y-33425000D01*
X75215750Y-33425000D01*
X75057000Y-33583750D01*
X74803000Y-33583750D01*
X74644250Y-33425000D01*
X73303690Y-33425000D01*
X73070301Y-33521673D01*
X72891673Y-33700302D01*
X72795000Y-33933691D01*
X70560000Y-33933691D01*
X70560000Y-30702026D01*
X70747947Y-31155771D01*
X71714229Y-32122053D01*
X72976736Y-32645000D01*
X74343264Y-32645000D01*
X75605771Y-32122053D01*
X76572053Y-31155771D01*
X77095000Y-29893264D01*
X77095000Y-28924561D01*
X83655000Y-28924561D01*
X83655000Y-29495439D01*
X83873466Y-30022862D01*
X84277138Y-30426534D01*
X84804561Y-30645000D01*
X85375439Y-30645000D01*
X85902862Y-30426534D01*
X86306534Y-30022862D01*
X86525000Y-29495439D01*
X86525000Y-28924561D01*
X87465000Y-28924561D01*
X87465000Y-29495439D01*
X87683466Y-30022862D01*
X88087138Y-30426534D01*
X88614561Y-30645000D01*
X89185439Y-30645000D01*
X89712862Y-30426534D01*
X90116534Y-30022862D01*
X90335000Y-29495439D01*
X90335000Y-28924561D01*
X90116534Y-28397138D01*
X89712862Y-27993466D01*
X89185439Y-27775000D01*
X88614561Y-27775000D01*
X88087138Y-27993466D01*
X87683466Y-28397138D01*
X87465000Y-28924561D01*
X86525000Y-28924561D01*
X86306534Y-28397138D01*
X85902862Y-27993466D01*
X85375439Y-27775000D01*
X84804561Y-27775000D01*
X84277138Y-27993466D01*
X83873466Y-28397138D01*
X83655000Y-28924561D01*
X77095000Y-28924561D01*
X77095000Y-28526736D01*
X76572053Y-27264229D01*
X75605771Y-26297947D01*
X75152026Y-26110000D01*
X114077974Y-26110000D01*
X113624229Y-26297947D01*
G36*
X103069375Y-77270625D02*
X103380001Y-77478178D01*
X103380000Y-79747768D01*
X103054956Y-79964956D01*
X102870000Y-80241763D01*
X102685044Y-79964956D01*
X102360000Y-79747769D01*
X102360000Y-77478178D01*
X102670625Y-77270625D01*
X102870000Y-76972239D01*
X103069375Y-77270625D01*
X103069375Y-77270625D01*
G37*
X103069375Y-77270625D02*
X103380001Y-77478178D01*
X103380000Y-79747768D01*
X103054956Y-79964956D01*
X102870000Y-80241763D01*
X102685044Y-79964956D01*
X102360000Y-79747769D01*
X102360000Y-77478178D01*
X102670625Y-77270625D01*
X102870000Y-76972239D01*
X103069375Y-77270625D01*
G36*
X100529375Y-77270625D02*
X100840001Y-77478178D01*
X100840000Y-79747768D01*
X100514956Y-79964956D01*
X100330000Y-80241763D01*
X100145044Y-79964956D01*
X99820000Y-79747769D01*
X99820000Y-77478178D01*
X100130625Y-77270625D01*
X100330000Y-76972239D01*
X100529375Y-77270625D01*
X100529375Y-77270625D01*
G37*
X100529375Y-77270625D02*
X100840001Y-77478178D01*
X100840000Y-79747768D01*
X100514956Y-79964956D01*
X100330000Y-80241763D01*
X100145044Y-79964956D01*
X99820000Y-79747769D01*
X99820000Y-77478178D01*
X100130625Y-77270625D01*
X100330000Y-76972239D01*
X100529375Y-77270625D01*
G36*
X83947000Y-62103000D02*
X83967000Y-62103000D01*
X83967000Y-62357000D01*
X83947000Y-62357000D01*
X83947000Y-62377000D01*
X83693000Y-62377000D01*
X83693000Y-62357000D01*
X83673000Y-62357000D01*
X83673000Y-62103000D01*
X83693000Y-62103000D01*
X83693000Y-62083000D01*
X83947000Y-62083000D01*
X83947000Y-62103000D01*
X83947000Y-62103000D01*
G37*
X83947000Y-62103000D02*
X83967000Y-62103000D01*
X83967000Y-62357000D01*
X83947000Y-62357000D01*
X83947000Y-62377000D01*
X83693000Y-62377000D01*
X83693000Y-62357000D01*
X83673000Y-62357000D01*
X83673000Y-62103000D01*
X83693000Y-62103000D01*
X83693000Y-62083000D01*
X83947000Y-62083000D01*
X83947000Y-62103000D01*
G36*
X91633748Y-57095858D02*
X91619605Y-57110000D01*
X91633748Y-57124142D01*
X91454143Y-57303748D01*
X91440000Y-57289605D01*
X91425858Y-57303748D01*
X91246252Y-57124142D01*
X91260395Y-57110000D01*
X91246252Y-57095858D01*
X91425858Y-56916253D01*
X91440000Y-56930395D01*
X91454143Y-56916253D01*
X91633748Y-57095858D01*
X91633748Y-57095858D01*
G37*
X91633748Y-57095858D02*
X91619605Y-57110000D01*
X91633748Y-57124142D01*
X91454143Y-57303748D01*
X91440000Y-57289605D01*
X91425858Y-57303748D01*
X91246252Y-57124142D01*
X91260395Y-57110000D01*
X91246252Y-57095858D01*
X91425858Y-56916253D01*
X91440000Y-56930395D01*
X91454143Y-56916253D01*
X91633748Y-57095858D01*
G36*
X95377000Y-57023000D02*
X95397000Y-57023000D01*
X95397000Y-57277000D01*
X95377000Y-57277000D01*
X95377000Y-57297000D01*
X95123000Y-57297000D01*
X95123000Y-57277000D01*
X95103000Y-57277000D01*
X95103000Y-57023000D01*
X95123000Y-57023000D01*
X95123000Y-57003000D01*
X95377000Y-57003000D01*
X95377000Y-57023000D01*
X95377000Y-57023000D01*
G37*
X95377000Y-57023000D02*
X95397000Y-57023000D01*
X95397000Y-57277000D01*
X95377000Y-57277000D01*
X95377000Y-57297000D01*
X95123000Y-57297000D01*
X95123000Y-57277000D01*
X95103000Y-57277000D01*
X95103000Y-57023000D01*
X95123000Y-57023000D01*
X95123000Y-57003000D01*
X95377000Y-57003000D01*
X95377000Y-57023000D01*
G36*
X107985001Y-54019450D02*
X107933864Y-53895995D01*
X107687745Y-53821861D01*
X106859605Y-54650000D01*
X106873748Y-54664143D01*
X106694143Y-54843748D01*
X106680000Y-54829605D01*
X106665858Y-54843748D01*
X106486253Y-54664143D01*
X106500395Y-54650000D01*
X106486253Y-54635858D01*
X106665858Y-54456252D01*
X106680000Y-54470395D01*
X107508139Y-53642255D01*
X107434005Y-53396136D01*
X107332716Y-53359729D01*
X107714577Y-53104577D01*
X107985001Y-52699859D01*
X107985001Y-54019450D01*
X107985001Y-54019450D01*
G37*
X107985001Y-54019450D02*
X107933864Y-53895995D01*
X107687745Y-53821861D01*
X106859605Y-54650000D01*
X106873748Y-54664143D01*
X106694143Y-54843748D01*
X106680000Y-54829605D01*
X106665858Y-54843748D01*
X106486253Y-54664143D01*
X106500395Y-54650000D01*
X106486253Y-54635858D01*
X106665858Y-54456252D01*
X106680000Y-54470395D01*
X107508139Y-53642255D01*
X107434005Y-53396136D01*
X107332716Y-53359729D01*
X107714577Y-53104577D01*
X107985001Y-52699859D01*
X107985001Y-54019450D01*
G36*
X102997000Y-54483000D02*
X103017000Y-54483000D01*
X103017000Y-54737000D01*
X102997000Y-54737000D01*
X102997000Y-54757000D01*
X102743000Y-54757000D01*
X102743000Y-54737000D01*
X102723000Y-54737000D01*
X102723000Y-54483000D01*
X102743000Y-54483000D01*
X102743000Y-54463000D01*
X102997000Y-54463000D01*
X102997000Y-54483000D01*
X102997000Y-54483000D01*
G37*
X102997000Y-54483000D02*
X103017000Y-54483000D01*
X103017000Y-54737000D01*
X102997000Y-54737000D01*
X102997000Y-54757000D01*
X102743000Y-54757000D01*
X102743000Y-54737000D01*
X102723000Y-54737000D01*
X102723000Y-54483000D01*
X102743000Y-54483000D01*
X102743000Y-54463000D01*
X102997000Y-54463000D01*
X102997000Y-54483000D01*
G04 #@! TD*
M02*
