G04 #@! TF.GenerationSoftware,KiCad,Pcbnew,(5.0.2)-1*
G04 #@! TF.CreationDate,2019-01-02T23:54:01+01:00*
G04 #@! TF.ProjectId,ArduinoS88,41726475-696e-46f5-9338-382e6b696361,rev?*
G04 #@! TF.SameCoordinates,Original*
G04 #@! TF.FileFunction,Copper,L1,Top*
G04 #@! TF.FilePolarity,Positive*
%FSLAX46Y46*%
G04 Gerber Fmt 4.6, Leading zero omitted, Abs format (unit mm)*
G04 Created by KiCad (PCBNEW (5.0.2)-1) date 02.01.2019 23:54:01*
%MOMM*%
%LPD*%
G01*
G04 APERTURE LIST*
G04 #@! TA.AperFunction,ComponentPad*
%ADD10R,1.727200X1.727200*%
G04 #@! TD*
G04 #@! TA.AperFunction,ComponentPad*
%ADD11O,1.727200X1.727200*%
G04 #@! TD*
G04 #@! TA.AperFunction,ComponentPad*
%ADD12O,1.600000X1.600000*%
G04 #@! TD*
G04 #@! TA.AperFunction,ComponentPad*
%ADD13R,1.600000X1.600000*%
G04 #@! TD*
G04 #@! TA.AperFunction,ComponentPad*
%ADD14O,1.700000X1.700000*%
G04 #@! TD*
G04 #@! TA.AperFunction,ComponentPad*
%ADD15R,1.700000X1.700000*%
G04 #@! TD*
G04 #@! TA.AperFunction,ComponentPad*
%ADD16C,5.600000*%
G04 #@! TD*
G04 #@! TA.AperFunction,ComponentPad*
%ADD17C,1.600000*%
G04 #@! TD*
G04 #@! TA.AperFunction,ComponentPad*
%ADD18C,1.200000*%
G04 #@! TD*
G04 #@! TA.AperFunction,ComponentPad*
%ADD19R,1.200000X1.200000*%
G04 #@! TD*
G04 #@! TA.AperFunction,ComponentPad*
%ADD20C,3.000000*%
G04 #@! TD*
G04 #@! TA.AperFunction,ComponentPad*
%ADD21R,3.000000X3.000000*%
G04 #@! TD*
G04 #@! TA.AperFunction,Conductor*
%ADD22C,0.100000*%
G04 #@! TD*
G04 #@! TA.AperFunction,ComponentPad*
%ADD23C,1.740000*%
G04 #@! TD*
G04 #@! TA.AperFunction,ComponentPad*
%ADD24O,1.740000X2.200000*%
G04 #@! TD*
G04 #@! TA.AperFunction,ViaPad*
%ADD25C,1.600000*%
G04 #@! TD*
G04 #@! TA.AperFunction,ViaPad*
%ADD26C,0.800000*%
G04 #@! TD*
G04 #@! TA.AperFunction,Conductor*
%ADD27C,1.200000*%
G04 #@! TD*
G04 #@! TA.AperFunction,Conductor*
%ADD28C,0.250000*%
G04 #@! TD*
G04 #@! TA.AperFunction,Conductor*
%ADD29C,0.254000*%
G04 #@! TD*
G04 APERTURE END LIST*
D10*
G04 #@! TO.P,J3,1*
G04 #@! TO.N,/In8*
X86360000Y-67310000D03*
D11*
G04 #@! TO.P,J3,2*
G04 #@! TO.N,VCC*
X83820000Y-67310000D03*
G04 #@! TO.P,J3,3*
G04 #@! TO.N,/In9*
X86360000Y-64770000D03*
G04 #@! TO.P,J3,4*
G04 #@! TO.N,/In7*
X83820000Y-64770000D03*
G04 #@! TO.P,J3,5*
G04 #@! TO.N,Net-(J3-Pad5)*
X86360000Y-62230000D03*
G04 #@! TO.P,J3,6*
G04 #@! TO.N,GND*
X83820000Y-62230000D03*
G04 #@! TD*
D12*
G04 #@! TO.P,U1,28*
G04 #@! TO.N,/In15*
X102870000Y-39370000D03*
G04 #@! TO.P,U1,14*
G04 #@! TO.N,/In4*
X95250000Y-72390000D03*
G04 #@! TO.P,U1,27*
G04 #@! TO.N,/In14*
X102870000Y-41910000D03*
G04 #@! TO.P,U1,13*
G04 #@! TO.N,/In3*
X95250000Y-69850000D03*
G04 #@! TO.P,U1,26*
G04 #@! TO.N,/In13*
X102870000Y-44450000D03*
G04 #@! TO.P,U1,12*
G04 #@! TO.N,/In2*
X95250000Y-67310000D03*
G04 #@! TO.P,U1,25*
G04 #@! TO.N,/In12*
X102870000Y-46990000D03*
G04 #@! TO.P,U1,11*
G04 #@! TO.N,/In1*
X95250000Y-64770000D03*
G04 #@! TO.P,U1,24*
G04 #@! TO.N,/In11*
X102870000Y-49530000D03*
G04 #@! TO.P,U1,10*
G04 #@! TO.N,/Cfg1*
X95250000Y-62230000D03*
G04 #@! TO.P,U1,23*
G04 #@! TO.N,/In10*
X102870000Y-52070000D03*
G04 #@! TO.P,U1,9*
G04 #@! TO.N,/Cfg0*
X95250000Y-59690000D03*
G04 #@! TO.P,U1,22*
G04 #@! TO.N,GND*
X102870000Y-54610000D03*
G04 #@! TO.P,U1,8*
X95250000Y-57150000D03*
G04 #@! TO.P,U1,21*
G04 #@! TO.N,VCC*
X102870000Y-57150000D03*
G04 #@! TO.P,U1,7*
X95250000Y-54610000D03*
G04 #@! TO.P,U1,20*
X102870000Y-59690000D03*
G04 #@! TO.P,U1,6*
G04 #@! TO.N,/In0*
X95250000Y-52070000D03*
G04 #@! TO.P,U1,19*
G04 #@! TO.N,/In9*
X102870000Y-62230000D03*
G04 #@! TO.P,U1,5*
G04 #@! TO.N,/S88_PS*
X95250000Y-49530000D03*
G04 #@! TO.P,U1,18*
G04 #@! TO.N,/In8*
X102870000Y-64770000D03*
G04 #@! TO.P,U1,4*
G04 #@! TO.N,/S88_CLK*
X95250000Y-46990000D03*
G04 #@! TO.P,U1,17*
G04 #@! TO.N,/In7*
X102870000Y-67310000D03*
G04 #@! TO.P,U1,3*
G04 #@! TO.N,/S88_DataOut*
X95250000Y-44450000D03*
G04 #@! TO.P,U1,16*
G04 #@! TO.N,/In6*
X102870000Y-69850000D03*
G04 #@! TO.P,U1,2*
G04 #@! TO.N,/S88_DataIn*
X95250000Y-41910000D03*
G04 #@! TO.P,U1,15*
G04 #@! TO.N,/In5*
X102870000Y-72390000D03*
D13*
G04 #@! TO.P,U1,1*
G04 #@! TO.N,Net-(J3-Pad5)*
X95250000Y-39370000D03*
G04 #@! TD*
D14*
G04 #@! TO.P,J2,6*
G04 #@! TO.N,VCC*
X106680000Y-76200000D03*
G04 #@! TO.P,J2,5*
G04 #@! TO.N,/S88_Reset*
X104140000Y-76200000D03*
G04 #@! TO.P,J2,4*
G04 #@! TO.N,/S88_PS*
X101600000Y-76200000D03*
G04 #@! TO.P,J2,3*
G04 #@! TO.N,/S88_CLK*
X99060000Y-76200000D03*
G04 #@! TO.P,J2,2*
G04 #@! TO.N,GND*
X96520000Y-76200000D03*
D15*
G04 #@! TO.P,J2,1*
G04 #@! TO.N,/S88_DataIn*
X93980000Y-76200000D03*
G04 #@! TD*
D14*
G04 #@! TO.P,J1,6*
G04 #@! TO.N,VCC*
X106680000Y-30480000D03*
G04 #@! TO.P,J1,5*
G04 #@! TO.N,/S88_Reset*
X104140000Y-30480000D03*
G04 #@! TO.P,J1,4*
G04 #@! TO.N,/S88_PS*
X101600000Y-30480000D03*
G04 #@! TO.P,J1,3*
G04 #@! TO.N,/S88_CLK*
X99060000Y-30480000D03*
G04 #@! TO.P,J1,2*
G04 #@! TO.N,GND*
X96520000Y-30480000D03*
D15*
G04 #@! TO.P,J1,1*
G04 #@! TO.N,/S88_DataOut*
X93980000Y-30480000D03*
G04 #@! TD*
D16*
G04 #@! TO.P,REF\002A\002A,1*
G04 #@! TO.N,N/C*
X114300000Y-82550000D03*
G04 #@! TD*
G04 #@! TO.P,REF\002A\002A,1*
G04 #@! TO.N,N/C*
X73660000Y-82550000D03*
G04 #@! TD*
G04 #@! TO.P,REF\002A\002A,1*
G04 #@! TO.N,N/C*
X73660000Y-29210000D03*
G04 #@! TD*
D12*
G04 #@! TO.P,RN2,7*
G04 #@! TO.N,/In10*
X106680000Y-52070000D03*
G04 #@! TO.P,RN2,6*
G04 #@! TO.N,/In11*
X106680000Y-49530000D03*
G04 #@! TO.P,RN2,5*
G04 #@! TO.N,/In12*
X106680000Y-46990000D03*
G04 #@! TO.P,RN2,4*
G04 #@! TO.N,/In13*
X106680000Y-44450000D03*
G04 #@! TO.P,RN2,3*
G04 #@! TO.N,/In14*
X106680000Y-41910000D03*
G04 #@! TO.P,RN2,2*
G04 #@! TO.N,/In15*
X106680000Y-39370000D03*
D13*
G04 #@! TO.P,RN2,1*
G04 #@! TO.N,VCC*
X106680000Y-36830000D03*
G04 #@! TD*
D17*
G04 #@! TO.P,C1,2*
G04 #@! TO.N,GND*
X91440000Y-57110000D03*
G04 #@! TO.P,C1,1*
G04 #@! TO.N,VCC*
X91440000Y-54610000D03*
G04 #@! TD*
G04 #@! TO.P,C2,2*
G04 #@! TO.N,GND*
X106680000Y-54650000D03*
G04 #@! TO.P,C2,1*
G04 #@! TO.N,VCC*
X106680000Y-57150000D03*
G04 #@! TD*
D18*
G04 #@! TO.P,C3,2*
G04 #@! TO.N,GND*
X114300000Y-35790000D03*
D19*
G04 #@! TO.P,C3,1*
G04 #@! TO.N,VCC*
X114300000Y-34290000D03*
G04 #@! TD*
D20*
G04 #@! TO.P,J4,3*
G04 #@! TO.N,/In1*
X74930000Y-45720000D03*
G04 #@! TO.P,J4,2*
G04 #@! TO.N,/In0*
X74930000Y-40640000D03*
D21*
G04 #@! TO.P,J4,1*
G04 #@! TO.N,GND*
X74930000Y-35560000D03*
G04 #@! TD*
D20*
G04 #@! TO.P,J5,3*
G04 #@! TO.N,/In4*
X74930000Y-60960000D03*
G04 #@! TO.P,J5,2*
G04 #@! TO.N,/In3*
X74930000Y-55880000D03*
D21*
G04 #@! TO.P,J5,1*
G04 #@! TO.N,/In2*
X74930000Y-50800000D03*
G04 #@! TD*
D20*
G04 #@! TO.P,J6,3*
G04 #@! TO.N,/In7*
X74930000Y-76200000D03*
G04 #@! TO.P,J6,2*
G04 #@! TO.N,/In6*
X74930000Y-71120000D03*
D21*
G04 #@! TO.P,J6,1*
G04 #@! TO.N,/In5*
X74930000Y-66040000D03*
G04 #@! TD*
D20*
G04 #@! TO.P,J7,3*
G04 #@! TO.N,/In10*
X113030000Y-66040000D03*
G04 #@! TO.P,J7,2*
G04 #@! TO.N,/In9*
X113030000Y-71120000D03*
D21*
G04 #@! TO.P,J7,1*
G04 #@! TO.N,/In8*
X113030000Y-76200000D03*
G04 #@! TD*
D20*
G04 #@! TO.P,J8,3*
G04 #@! TO.N,/In13*
X113030000Y-50800000D03*
G04 #@! TO.P,J8,2*
G04 #@! TO.N,/In12*
X113030000Y-55880000D03*
D21*
G04 #@! TO.P,J8,1*
G04 #@! TO.N,/In11*
X113030000Y-60960000D03*
G04 #@! TD*
D20*
G04 #@! TO.P,J9,2*
G04 #@! TO.N,/In15*
X113030000Y-40640000D03*
D21*
G04 #@! TO.P,J9,1*
G04 #@! TO.N,/In14*
X113030000Y-45720000D03*
G04 #@! TD*
D14*
G04 #@! TO.P,JP5,3*
G04 #@! TO.N,VCC*
X87630000Y-53340000D03*
G04 #@! TO.P,JP5,2*
G04 #@! TO.N,/Cfg0*
X87630000Y-50800000D03*
D15*
G04 #@! TO.P,JP5,1*
G04 #@! TO.N,GND*
X87630000Y-48260000D03*
G04 #@! TD*
D14*
G04 #@! TO.P,JP6,3*
G04 #@! TO.N,VCC*
X83820000Y-53340000D03*
G04 #@! TO.P,JP6,2*
G04 #@! TO.N,/Cfg1*
X83820000Y-50800000D03*
D15*
G04 #@! TO.P,JP6,1*
G04 #@! TO.N,GND*
X83820000Y-48260000D03*
G04 #@! TD*
D12*
G04 #@! TO.P,R1,2*
G04 #@! TO.N,Net-(J3-Pad5)*
X88900000Y-39370000D03*
D17*
G04 #@! TO.P,R1,1*
G04 #@! TO.N,VCC*
X88900000Y-29210000D03*
G04 #@! TD*
D12*
G04 #@! TO.P,R2,2*
G04 #@! TO.N,/S88_DataIn*
X85090000Y-39370000D03*
D17*
G04 #@! TO.P,R2,1*
G04 #@! TO.N,VCC*
X85090000Y-29210000D03*
G04 #@! TD*
D12*
G04 #@! TO.P,RN1,6*
G04 #@! TO.N,/In4*
X91440000Y-72390000D03*
G04 #@! TO.P,RN1,5*
G04 #@! TO.N,/In3*
X91440000Y-69850000D03*
G04 #@! TO.P,RN1,4*
G04 #@! TO.N,/In2*
X91440000Y-67310000D03*
G04 #@! TO.P,RN1,3*
G04 #@! TO.N,/In1*
X91440000Y-64770000D03*
G04 #@! TO.P,RN1,2*
G04 #@! TO.N,/In0*
X91440000Y-62230000D03*
D13*
G04 #@! TO.P,RN1,1*
G04 #@! TO.N,VCC*
X91440000Y-59690000D03*
G04 #@! TD*
G04 #@! TO.P,RN3,1*
G04 #@! TO.N,VCC*
X106680000Y-59690000D03*
D12*
G04 #@! TO.P,RN3,2*
G04 #@! TO.N,/In9*
X106680000Y-62230000D03*
G04 #@! TO.P,RN3,3*
G04 #@! TO.N,/In8*
X106680000Y-64770000D03*
G04 #@! TO.P,RN3,4*
G04 #@! TO.N,/In7*
X106680000Y-67310000D03*
G04 #@! TO.P,RN3,5*
G04 #@! TO.N,/In6*
X106680000Y-69850000D03*
G04 #@! TO.P,RN3,6*
G04 #@! TO.N,/In5*
X106680000Y-72390000D03*
G04 #@! TD*
D16*
G04 #@! TO.P,REF\002A\002A,1*
G04 #@! TO.N,N/C*
X114300000Y-29210000D03*
G04 #@! TD*
D22*
G04 #@! TO.N,/S88_DataIn*
G04 #@! TO.C,J10*
G36*
X94624505Y-80181204D02*
X94648773Y-80184804D01*
X94672572Y-80190765D01*
X94695671Y-80199030D01*
X94717850Y-80209520D01*
X94738893Y-80222132D01*
X94758599Y-80236747D01*
X94776777Y-80253223D01*
X94793253Y-80271401D01*
X94807868Y-80291107D01*
X94820480Y-80312150D01*
X94830970Y-80334329D01*
X94839235Y-80357428D01*
X94845196Y-80381227D01*
X94848796Y-80405495D01*
X94850000Y-80429999D01*
X94850000Y-82130001D01*
X94848796Y-82154505D01*
X94845196Y-82178773D01*
X94839235Y-82202572D01*
X94830970Y-82225671D01*
X94820480Y-82247850D01*
X94807868Y-82268893D01*
X94793253Y-82288599D01*
X94776777Y-82306777D01*
X94758599Y-82323253D01*
X94738893Y-82337868D01*
X94717850Y-82350480D01*
X94695671Y-82360970D01*
X94672572Y-82369235D01*
X94648773Y-82375196D01*
X94624505Y-82378796D01*
X94600001Y-82380000D01*
X93359999Y-82380000D01*
X93335495Y-82378796D01*
X93311227Y-82375196D01*
X93287428Y-82369235D01*
X93264329Y-82360970D01*
X93242150Y-82350480D01*
X93221107Y-82337868D01*
X93201401Y-82323253D01*
X93183223Y-82306777D01*
X93166747Y-82288599D01*
X93152132Y-82268893D01*
X93139520Y-82247850D01*
X93129030Y-82225671D01*
X93120765Y-82202572D01*
X93114804Y-82178773D01*
X93111204Y-82154505D01*
X93110000Y-82130001D01*
X93110000Y-80429999D01*
X93111204Y-80405495D01*
X93114804Y-80381227D01*
X93120765Y-80357428D01*
X93129030Y-80334329D01*
X93139520Y-80312150D01*
X93152132Y-80291107D01*
X93166747Y-80271401D01*
X93183223Y-80253223D01*
X93201401Y-80236747D01*
X93221107Y-80222132D01*
X93242150Y-80209520D01*
X93264329Y-80199030D01*
X93287428Y-80190765D01*
X93311227Y-80184804D01*
X93335495Y-80181204D01*
X93359999Y-80180000D01*
X94600001Y-80180000D01*
X94624505Y-80181204D01*
X94624505Y-80181204D01*
G37*
D23*
G04 #@! TD*
G04 #@! TO.P,J10,1*
G04 #@! TO.N,/S88_DataIn*
X93980000Y-81280000D03*
D24*
G04 #@! TO.P,J10,2*
G04 #@! TO.N,GND*
X96520000Y-81280000D03*
G04 #@! TO.P,J10,3*
G04 #@! TO.N,/S88_CLK*
X99060000Y-81280000D03*
G04 #@! TO.P,J10,4*
G04 #@! TO.N,/S88_PS*
X101600000Y-81280000D03*
G04 #@! TO.P,J10,5*
G04 #@! TO.N,/S88_Reset*
X104140000Y-81280000D03*
G04 #@! TO.P,J10,6*
G04 #@! TO.N,VCC*
X106680000Y-81280000D03*
G04 #@! TD*
D25*
G04 #@! TO.N,GND*
X78740000Y-46990000D03*
X93980000Y-35560000D03*
X78740000Y-59690000D03*
X88900000Y-43180000D03*
X97790000Y-50800000D03*
X97790000Y-57150000D03*
X82550000Y-35560000D03*
X100330000Y-40640000D03*
G04 #@! TO.N,VCC*
X109220000Y-36830000D03*
D26*
G04 #@! TO.N,/In5*
X93980000Y-73660000D03*
G04 #@! TO.N,/In7*
X78740000Y-69850000D03*
G04 #@! TO.N,/S88_CLK*
X101600000Y-48260000D03*
D25*
G04 #@! TO.N,GND*
X82550000Y-78740000D03*
G04 #@! TO.N,VCC*
X83820000Y-59690000D03*
D26*
G04 #@! TO.N,Net-(J3-Pad5)*
X81280000Y-55880000D03*
D25*
G04 #@! TO.N,GND*
X99060000Y-66040000D03*
X99060000Y-69850000D03*
X110490000Y-58420000D03*
X100330000Y-78740000D03*
X102870000Y-78740000D03*
D26*
G04 #@! TO.N,/S88_DataIn*
X100330000Y-43180000D03*
G04 #@! TO.N,/In8*
X97790000Y-64772805D03*
G04 #@! TD*
D27*
G04 #@! TO.N,VCC*
X95250000Y-54610000D02*
X91440000Y-54610000D01*
X102870000Y-57150000D02*
X102870000Y-59690000D01*
X102870000Y-57150000D02*
X106680000Y-57150000D01*
X106680000Y-57150000D02*
X106680000Y-59690000D01*
X83820000Y-53340000D02*
X87630000Y-53340000D01*
X88900000Y-54610000D02*
X87630000Y-53340000D01*
X91440000Y-54610000D02*
X88900000Y-54610000D01*
X109220000Y-36830000D02*
X106680000Y-36830000D01*
X100330000Y-54610000D02*
X102870000Y-57150000D01*
X95250000Y-54610000D02*
X100330000Y-54610000D01*
X93090001Y-58039999D02*
X91440000Y-59690000D01*
X93090001Y-56260001D02*
X93090001Y-58039999D01*
X91440000Y-54610000D02*
X93090001Y-56260001D01*
D28*
G04 #@! TO.N,/In10*
X102870000Y-52070000D02*
X106680000Y-52070000D01*
X111530001Y-64540001D02*
X113030000Y-66040000D01*
X108855021Y-61865021D02*
X111530001Y-64540001D01*
X108855021Y-54245021D02*
X108855021Y-61865021D01*
X106680000Y-52070000D02*
X108855021Y-54245021D01*
G04 #@! TO.N,/In11*
X102870000Y-49530000D02*
X106680000Y-49530000D01*
X113030000Y-59210000D02*
X113030000Y-60960000D01*
X109355031Y-55535031D02*
X113030000Y-59210000D01*
X109355031Y-52205031D02*
X109355031Y-55535031D01*
X106680000Y-49530000D02*
X109355031Y-52205031D01*
G04 #@! TO.N,/In12*
X102870000Y-46990000D02*
X106680000Y-46990000D01*
X111530001Y-54380001D02*
X113030000Y-55880000D01*
X109855041Y-52705041D02*
X111530001Y-54380001D01*
X109855041Y-50165041D02*
X109855041Y-52705041D01*
X106680000Y-46990000D02*
X109855041Y-50165041D01*
G04 #@! TO.N,/In13*
X102870000Y-44450000D02*
X106680000Y-44450000D01*
X106680000Y-44450000D02*
X113030000Y-50800000D01*
G04 #@! TO.N,/In14*
X102870000Y-41910000D02*
X106680000Y-41910000D01*
X113030000Y-43970000D02*
X113030000Y-45720000D01*
X110970000Y-41910000D02*
X113030000Y-43970000D01*
X106680000Y-41910000D02*
X110970000Y-41910000D01*
G04 #@! TO.N,/In15*
X102870000Y-39370000D02*
X106680000Y-39370000D01*
X111760000Y-39370000D02*
X113030000Y-40640000D01*
X106680000Y-39370000D02*
X111760000Y-39370000D01*
G04 #@! TO.N,/In5*
X102870000Y-72390000D02*
X106680000Y-72390000D01*
X102870000Y-72390000D02*
X101600000Y-73660000D01*
X101600000Y-73660000D02*
X93980000Y-73660000D01*
X93980000Y-73660000D02*
X93980000Y-73660000D01*
G04 #@! TO.N,/In6*
X102870000Y-69850000D02*
X106680000Y-69850000D01*
G04 #@! TO.N,/In7*
X102870000Y-67310000D02*
X106680000Y-67310000D01*
X82518601Y-66071399D02*
X78740000Y-69850000D01*
X78740000Y-69850000D02*
X78740000Y-69850000D01*
G04 #@! TO.N,/In8*
X102870000Y-64770000D02*
X106680000Y-64770000D01*
X113030000Y-74450000D02*
X113030000Y-76200000D01*
X107855001Y-69275001D02*
X113030000Y-74450000D01*
X107855001Y-65945001D02*
X107855001Y-69275001D01*
X106680000Y-64770000D02*
X107855001Y-65945001D01*
G04 #@! TO.N,/In9*
X102870000Y-62230000D02*
X106680000Y-62230000D01*
X111530001Y-69620001D02*
X113030000Y-71120000D01*
X108355011Y-66445011D02*
X111530001Y-69620001D01*
X108355011Y-63905011D02*
X108355011Y-66445011D01*
X106680000Y-62230000D02*
X108355011Y-63905011D01*
G04 #@! TO.N,/S88_CLK*
X95250000Y-46990000D02*
X100330000Y-46990000D01*
X100330000Y-46990000D02*
X101600000Y-48260000D01*
X101600000Y-48260000D02*
X101600000Y-48260000D01*
D27*
G04 #@! TO.N,GND*
X91480000Y-57150000D02*
X91440000Y-57110000D01*
D28*
G04 #@! TO.N,VCC*
X106680000Y-30480000D02*
X106680000Y-30710000D01*
D27*
X111760000Y-34290000D02*
X109220000Y-36830000D01*
X114300000Y-34290000D02*
X111760000Y-34290000D01*
X85090000Y-29210000D02*
X88900000Y-29210000D01*
X105830001Y-29630001D02*
X106680000Y-30480000D01*
X104140000Y-27940000D02*
X105830001Y-29630001D01*
X90170000Y-27940000D02*
X104140000Y-27940000D01*
X88900000Y-29210000D02*
X90170000Y-27940000D01*
X107529999Y-77049999D02*
X106680000Y-76200000D01*
X109030001Y-78550001D02*
X107529999Y-77049999D01*
X115210001Y-78550001D02*
X109030001Y-78550001D01*
X115750001Y-78010001D02*
X115210001Y-78550001D01*
X114946002Y-34290000D02*
X115750001Y-35093999D01*
X115750001Y-35093999D02*
X115750001Y-78010001D01*
X114300000Y-34290000D02*
X114946002Y-34290000D01*
X91440000Y-31750000D02*
X91440000Y-54610000D01*
X88900000Y-29210000D02*
X91440000Y-31750000D01*
X107109999Y-78550001D02*
X109030001Y-78550001D01*
X106680000Y-78980000D02*
X107109999Y-78550001D01*
X106680000Y-81280000D02*
X106680000Y-78980000D01*
X91440000Y-59690000D02*
X83820000Y-59690000D01*
X107950000Y-30480000D02*
X111760000Y-34290000D01*
X106680000Y-30480000D02*
X107950000Y-30480000D01*
D28*
G04 #@! TO.N,/In6*
X101600000Y-71120000D02*
X74930000Y-71120000D01*
X102870000Y-69850000D02*
X101600000Y-71120000D01*
G04 #@! TO.N,/In7*
X101600000Y-68580000D02*
X102870000Y-67310000D01*
X90170000Y-68580000D02*
X101600000Y-68580000D01*
G04 #@! TO.N,Net-(J3-Pad5)*
X84620998Y-38100000D02*
X81280000Y-41440998D01*
X88900000Y-39370000D02*
X87630000Y-38100000D01*
X87630000Y-38100000D02*
X84620998Y-38100000D01*
X81280000Y-41440998D02*
X81280000Y-55880000D01*
D27*
G04 #@! TO.N,GND*
X102870000Y-54610000D02*
X99060000Y-50800000D01*
X99060000Y-50800000D02*
X97790000Y-50800000D01*
D28*
G04 #@! TO.N,/S88_DataIn*
X99060000Y-41910000D02*
X100330000Y-43180000D01*
X95250000Y-41910000D02*
X99060000Y-41910000D01*
G04 #@! TO.N,/In8*
X102867195Y-64772805D02*
X102870000Y-64770000D01*
X97790000Y-64772805D02*
X102867195Y-64772805D01*
G04 #@! TO.N,/In9*
X86360000Y-64770000D02*
X87630000Y-64770000D01*
X87630000Y-64770000D02*
X88900000Y-66040000D01*
X88900000Y-66040000D02*
X88900000Y-66040000D01*
X102870000Y-62230000D02*
X97790000Y-62230000D01*
X97790000Y-62230000D02*
X97790000Y-62230000D01*
X97014999Y-63005001D02*
X97790000Y-62230000D01*
X97014999Y-64744003D02*
X97014999Y-63005001D01*
X95719002Y-66040000D02*
X97014999Y-64744003D01*
X88900000Y-66040000D02*
X95719002Y-66040000D01*
G04 #@! TO.N,/In7*
X82518601Y-66071399D02*
X83820000Y-64770000D01*
X85121399Y-66071399D02*
X87661399Y-66071399D01*
X83820000Y-64770000D02*
X85121399Y-66071399D01*
X87661399Y-66071399D02*
X90170000Y-68580000D01*
G04 #@! TD*
D29*
G04 #@! TO.N,GND*
G36*
X112354229Y-26297947D02*
X111387947Y-27264229D01*
X110865000Y-28526736D01*
X110865000Y-29893264D01*
X111387947Y-31155771D01*
X112354229Y-32122053D01*
X113616736Y-32645000D01*
X114983264Y-32645000D01*
X116245771Y-32122053D01*
X117212053Y-31155771D01*
X117400000Y-30702026D01*
X117400001Y-81057976D01*
X117212053Y-80604229D01*
X116245771Y-79637947D01*
X115973500Y-79525169D01*
X116100386Y-79440386D01*
X116169288Y-79337267D01*
X116537267Y-78969288D01*
X116640386Y-78900386D01*
X116913345Y-78491874D01*
X116985001Y-78131637D01*
X116985001Y-78131633D01*
X117009195Y-78010002D01*
X116985001Y-77888371D01*
X116985001Y-35215629D01*
X117009195Y-35093998D01*
X116985001Y-34972367D01*
X116985001Y-34972363D01*
X116913345Y-34612126D01*
X116640386Y-34203614D01*
X116537270Y-34134714D01*
X115905288Y-33502733D01*
X115836387Y-33399615D01*
X115427875Y-33126656D01*
X115067638Y-33055000D01*
X115067634Y-33055000D01*
X114946002Y-33030806D01*
X114886910Y-33042560D01*
X113700000Y-33042560D01*
X113637459Y-33055000D01*
X112271554Y-33055000D01*
X108909287Y-29692734D01*
X108840385Y-29589615D01*
X108431873Y-29316656D01*
X108071636Y-29245000D01*
X108071632Y-29245000D01*
X107950000Y-29220806D01*
X107828368Y-29245000D01*
X107504620Y-29245000D01*
X107259418Y-29081161D01*
X106970182Y-29023629D01*
X106789289Y-28842736D01*
X106789287Y-28842733D01*
X105099287Y-27152733D01*
X105030385Y-27049615D01*
X104621873Y-26776656D01*
X104261636Y-26705000D01*
X104261632Y-26705000D01*
X104140000Y-26680806D01*
X104018368Y-26705000D01*
X90291630Y-26705000D01*
X90169999Y-26680806D01*
X90048368Y-26705000D01*
X90048364Y-26705000D01*
X89688127Y-26776656D01*
X89473258Y-26920227D01*
X89382732Y-26980714D01*
X89382731Y-26980715D01*
X89279615Y-27049615D01*
X89210715Y-27152731D01*
X88569981Y-27793466D01*
X88131719Y-27975000D01*
X85858281Y-27975000D01*
X85375439Y-27775000D01*
X84804561Y-27775000D01*
X84277138Y-27993466D01*
X83873466Y-28397138D01*
X83655000Y-28924561D01*
X83655000Y-29495439D01*
X83873466Y-30022862D01*
X84277138Y-30426534D01*
X84804561Y-30645000D01*
X85375439Y-30645000D01*
X85858281Y-30445000D01*
X88131719Y-30445000D01*
X88569981Y-30626534D01*
X90205000Y-32261554D01*
X90205000Y-38740140D01*
X89934577Y-38335423D01*
X89459909Y-38018260D01*
X89041333Y-37935000D01*
X88758667Y-37935000D01*
X88576114Y-37971312D01*
X88220331Y-37615530D01*
X88177929Y-37552071D01*
X87926537Y-37384096D01*
X87704852Y-37340000D01*
X87704847Y-37340000D01*
X87630000Y-37325112D01*
X87555153Y-37340000D01*
X84695846Y-37340000D01*
X84620998Y-37325112D01*
X84546150Y-37340000D01*
X84546146Y-37340000D01*
X84372603Y-37374520D01*
X84324460Y-37384096D01*
X84137416Y-37509076D01*
X84073069Y-37552071D01*
X84030669Y-37615527D01*
X80795530Y-40850667D01*
X80732071Y-40893069D01*
X80564096Y-41144462D01*
X80520000Y-41366147D01*
X80520000Y-41366151D01*
X80505112Y-41440998D01*
X80520000Y-41515845D01*
X80520001Y-55176288D01*
X80402569Y-55293720D01*
X80245000Y-55674126D01*
X80245000Y-56085874D01*
X80402569Y-56466280D01*
X80693720Y-56757431D01*
X81074126Y-56915000D01*
X81485874Y-56915000D01*
X81538448Y-56893223D01*
X89993035Y-56893223D01*
X90020222Y-57463454D01*
X90186136Y-57864005D01*
X90432255Y-57938139D01*
X91260395Y-57110000D01*
X90432255Y-56281861D01*
X90186136Y-56355995D01*
X89993035Y-56893223D01*
X81538448Y-56893223D01*
X81866280Y-56757431D01*
X82157431Y-56466280D01*
X82315000Y-56085874D01*
X82315000Y-55674126D01*
X82157431Y-55293720D01*
X82040000Y-55176289D01*
X82040000Y-47283690D01*
X82335000Y-47283690D01*
X82335000Y-47974250D01*
X82493750Y-48133000D01*
X83693000Y-48133000D01*
X83693000Y-46933750D01*
X83947000Y-46933750D01*
X83947000Y-48133000D01*
X85146250Y-48133000D01*
X85305000Y-47974250D01*
X85305000Y-47283690D01*
X86145000Y-47283690D01*
X86145000Y-47974250D01*
X86303750Y-48133000D01*
X87503000Y-48133000D01*
X87503000Y-46933750D01*
X87757000Y-46933750D01*
X87757000Y-48133000D01*
X88956250Y-48133000D01*
X89115000Y-47974250D01*
X89115000Y-47283690D01*
X89018327Y-47050301D01*
X88839698Y-46871673D01*
X88606309Y-46775000D01*
X87915750Y-46775000D01*
X87757000Y-46933750D01*
X87503000Y-46933750D01*
X87344250Y-46775000D01*
X86653691Y-46775000D01*
X86420302Y-46871673D01*
X86241673Y-47050301D01*
X86145000Y-47283690D01*
X85305000Y-47283690D01*
X85208327Y-47050301D01*
X85029698Y-46871673D01*
X84796309Y-46775000D01*
X84105750Y-46775000D01*
X83947000Y-46933750D01*
X83693000Y-46933750D01*
X83534250Y-46775000D01*
X82843691Y-46775000D01*
X82610302Y-46871673D01*
X82431673Y-47050301D01*
X82335000Y-47283690D01*
X82040000Y-47283690D01*
X82040000Y-41755799D01*
X83789382Y-40006418D01*
X84055423Y-40404577D01*
X84530091Y-40721740D01*
X84948667Y-40805000D01*
X85231333Y-40805000D01*
X85649909Y-40721740D01*
X86124577Y-40404577D01*
X86441740Y-39929909D01*
X86553113Y-39370000D01*
X86451668Y-38860000D01*
X87315199Y-38860000D01*
X87501312Y-39046113D01*
X87436887Y-39370000D01*
X87548260Y-39929909D01*
X87865423Y-40404577D01*
X88340091Y-40721740D01*
X88758667Y-40805000D01*
X89041333Y-40805000D01*
X89459909Y-40721740D01*
X89934577Y-40404577D01*
X90205000Y-39999860D01*
X90205001Y-53375000D01*
X89411554Y-53375000D01*
X89086371Y-53049818D01*
X89028839Y-52760582D01*
X88700625Y-52269375D01*
X88402239Y-52070000D01*
X88700625Y-51870625D01*
X89028839Y-51379418D01*
X89144092Y-50800000D01*
X89028839Y-50220582D01*
X88700625Y-49729375D01*
X88678967Y-49714904D01*
X88839698Y-49648327D01*
X89018327Y-49469699D01*
X89115000Y-49236310D01*
X89115000Y-48545750D01*
X88956250Y-48387000D01*
X87757000Y-48387000D01*
X87757000Y-48407000D01*
X87503000Y-48407000D01*
X87503000Y-48387000D01*
X86303750Y-48387000D01*
X86145000Y-48545750D01*
X86145000Y-49236310D01*
X86241673Y-49469699D01*
X86420302Y-49648327D01*
X86581033Y-49714904D01*
X86559375Y-49729375D01*
X86231161Y-50220582D01*
X86115908Y-50800000D01*
X86231161Y-51379418D01*
X86559375Y-51870625D01*
X86857761Y-52070000D01*
X86805380Y-52105000D01*
X84644620Y-52105000D01*
X84592239Y-52070000D01*
X84890625Y-51870625D01*
X85218839Y-51379418D01*
X85334092Y-50800000D01*
X85218839Y-50220582D01*
X84890625Y-49729375D01*
X84868967Y-49714904D01*
X85029698Y-49648327D01*
X85208327Y-49469699D01*
X85305000Y-49236310D01*
X85305000Y-48545750D01*
X85146250Y-48387000D01*
X83947000Y-48387000D01*
X83947000Y-48407000D01*
X83693000Y-48407000D01*
X83693000Y-48387000D01*
X82493750Y-48387000D01*
X82335000Y-48545750D01*
X82335000Y-49236310D01*
X82431673Y-49469699D01*
X82610302Y-49648327D01*
X82771033Y-49714904D01*
X82749375Y-49729375D01*
X82421161Y-50220582D01*
X82305908Y-50800000D01*
X82421161Y-51379418D01*
X82749375Y-51870625D01*
X83047761Y-52070000D01*
X82749375Y-52269375D01*
X82421161Y-52760582D01*
X82305908Y-53340000D01*
X82421161Y-53919418D01*
X82749375Y-54410625D01*
X83240582Y-54738839D01*
X83673744Y-54825000D01*
X83966256Y-54825000D01*
X84399418Y-54738839D01*
X84644620Y-54575000D01*
X86805380Y-54575000D01*
X87050582Y-54738839D01*
X87339818Y-54796371D01*
X87940715Y-55397269D01*
X88009615Y-55500385D01*
X88112731Y-55569285D01*
X88112732Y-55569286D01*
X88173490Y-55609883D01*
X88418127Y-55773344D01*
X88778364Y-55845000D01*
X88778368Y-55845000D01*
X88899999Y-55869194D01*
X89021630Y-55845000D01*
X90671719Y-55845000D01*
X90692299Y-55853525D01*
X90685995Y-55856136D01*
X90611861Y-56102255D01*
X91440000Y-56930395D01*
X91454142Y-56916252D01*
X91633748Y-57095858D01*
X91619605Y-57110000D01*
X91633748Y-57124142D01*
X91454142Y-57303748D01*
X91440000Y-57289605D01*
X90611861Y-58117745D01*
X90649457Y-58242560D01*
X90640000Y-58242560D01*
X90392235Y-58291843D01*
X90182191Y-58432191D01*
X90166950Y-58455000D01*
X84588281Y-58455000D01*
X84105439Y-58255000D01*
X83534561Y-58255000D01*
X83007138Y-58473466D01*
X82603466Y-58877138D01*
X82385000Y-59404561D01*
X82385000Y-59975439D01*
X82603466Y-60502862D01*
X83007138Y-60906534D01*
X83099109Y-60944629D01*
X82931510Y-61023179D01*
X82537312Y-61455053D01*
X82365042Y-61870974D01*
X82486183Y-62103000D01*
X83693000Y-62103000D01*
X83693000Y-62083000D01*
X83947000Y-62083000D01*
X83947000Y-62103000D01*
X83967000Y-62103000D01*
X83967000Y-62357000D01*
X83947000Y-62357000D01*
X83947000Y-62377000D01*
X83693000Y-62377000D01*
X83693000Y-62357000D01*
X82486183Y-62357000D01*
X82365042Y-62589026D01*
X82537312Y-63004947D01*
X82931510Y-63436821D01*
X83041021Y-63488146D01*
X82739570Y-63689570D01*
X82408350Y-64185275D01*
X82292041Y-64770000D01*
X82367225Y-65147974D01*
X82034131Y-65481068D01*
X82034128Y-65481070D01*
X78700199Y-68815000D01*
X78534126Y-68815000D01*
X78153720Y-68972569D01*
X77862569Y-69263720D01*
X77705000Y-69644126D01*
X77705000Y-70055874D01*
X77830973Y-70360000D01*
X76926105Y-70360000D01*
X76739966Y-69910620D01*
X76139380Y-69310034D01*
X75354678Y-68985000D01*
X74505322Y-68985000D01*
X73720620Y-69310034D01*
X73120034Y-69910620D01*
X72795000Y-70695322D01*
X72795000Y-71544678D01*
X73120034Y-72329380D01*
X73720620Y-72929966D01*
X74505322Y-73255000D01*
X75354678Y-73255000D01*
X76139380Y-72929966D01*
X76739966Y-72329380D01*
X76926105Y-71880000D01*
X90078332Y-71880000D01*
X89976887Y-72390000D01*
X90088260Y-72949909D01*
X90405423Y-73424577D01*
X90880091Y-73741740D01*
X91298667Y-73825000D01*
X91581333Y-73825000D01*
X91999909Y-73741740D01*
X92474577Y-73424577D01*
X92791740Y-72949909D01*
X92903113Y-72390000D01*
X92801668Y-71880000D01*
X93888332Y-71880000D01*
X93786887Y-72390000D01*
X93833631Y-72625000D01*
X93774126Y-72625000D01*
X93393720Y-72782569D01*
X93102569Y-73073720D01*
X92945000Y-73454126D01*
X92945000Y-73865874D01*
X93102569Y-74246280D01*
X93393720Y-74537431D01*
X93774126Y-74695000D01*
X94185874Y-74695000D01*
X94566280Y-74537431D01*
X94683711Y-74420000D01*
X101525153Y-74420000D01*
X101600000Y-74434888D01*
X101674847Y-74420000D01*
X101674852Y-74420000D01*
X101896537Y-74375904D01*
X102147929Y-74207929D01*
X102190331Y-74144470D01*
X102546114Y-73788688D01*
X102728667Y-73825000D01*
X103011333Y-73825000D01*
X103429909Y-73741740D01*
X103904577Y-73424577D01*
X104088043Y-73150000D01*
X105461957Y-73150000D01*
X105645423Y-73424577D01*
X106120091Y-73741740D01*
X106538667Y-73825000D01*
X106821333Y-73825000D01*
X107239909Y-73741740D01*
X107714577Y-73424577D01*
X108031740Y-72949909D01*
X108143113Y-72390000D01*
X108031740Y-71830091D01*
X107714577Y-71355423D01*
X107362242Y-71120000D01*
X107714577Y-70884577D01*
X107985024Y-70479825D01*
X111557758Y-74052560D01*
X111530000Y-74052560D01*
X111282235Y-74101843D01*
X111072191Y-74242191D01*
X110931843Y-74452235D01*
X110882560Y-74700000D01*
X110882560Y-77315001D01*
X109541555Y-77315001D01*
X108489287Y-76262734D01*
X108489285Y-76262731D01*
X108136371Y-75909818D01*
X108078839Y-75620582D01*
X107750625Y-75129375D01*
X107259418Y-74801161D01*
X106826256Y-74715000D01*
X106533744Y-74715000D01*
X106100582Y-74801161D01*
X105609375Y-75129375D01*
X105410000Y-75427761D01*
X105210625Y-75129375D01*
X104719418Y-74801161D01*
X104286256Y-74715000D01*
X103993744Y-74715000D01*
X103560582Y-74801161D01*
X103069375Y-75129375D01*
X102870000Y-75427761D01*
X102670625Y-75129375D01*
X102179418Y-74801161D01*
X101746256Y-74715000D01*
X101453744Y-74715000D01*
X101020582Y-74801161D01*
X100529375Y-75129375D01*
X100330000Y-75427761D01*
X100130625Y-75129375D01*
X99639418Y-74801161D01*
X99206256Y-74715000D01*
X98913744Y-74715000D01*
X98480582Y-74801161D01*
X97989375Y-75129375D01*
X97776157Y-75448478D01*
X97715183Y-75318642D01*
X97286924Y-74928355D01*
X96876890Y-74758524D01*
X96647000Y-74879845D01*
X96647000Y-76073000D01*
X96667000Y-76073000D01*
X96667000Y-76327000D01*
X96647000Y-76327000D01*
X96647000Y-77520155D01*
X96876890Y-77641476D01*
X97286924Y-77471645D01*
X97715183Y-77081358D01*
X97776157Y-76951522D01*
X97989375Y-77270625D01*
X98480582Y-77598839D01*
X98913744Y-77685000D01*
X99206256Y-77685000D01*
X99639418Y-77598839D01*
X100130625Y-77270625D01*
X100330000Y-76972239D01*
X100529375Y-77270625D01*
X101020582Y-77598839D01*
X101453744Y-77685000D01*
X101746256Y-77685000D01*
X102179418Y-77598839D01*
X102670625Y-77270625D01*
X102870000Y-76972239D01*
X103069375Y-77270625D01*
X103560582Y-77598839D01*
X103993744Y-77685000D01*
X104286256Y-77685000D01*
X104719418Y-77598839D01*
X105210625Y-77270625D01*
X105410000Y-76972239D01*
X105609375Y-77270625D01*
X106100582Y-77598839D01*
X106262401Y-77631027D01*
X106219614Y-77659616D01*
X106150713Y-77762734D01*
X105892732Y-78020715D01*
X105789616Y-78089615D01*
X105720716Y-78192731D01*
X105720714Y-78192733D01*
X105516656Y-78498128D01*
X105420806Y-78980000D01*
X105445001Y-79101636D01*
X105445000Y-80189381D01*
X105410000Y-80241763D01*
X105225044Y-79964956D01*
X104727221Y-79632322D01*
X104140000Y-79515516D01*
X103552778Y-79632322D01*
X103054956Y-79964956D01*
X102870000Y-80241763D01*
X102685044Y-79964956D01*
X102187221Y-79632322D01*
X101600000Y-79515516D01*
X101012778Y-79632322D01*
X100514956Y-79964956D01*
X100330000Y-80241763D01*
X100145044Y-79964956D01*
X99647221Y-79632322D01*
X99060000Y-79515516D01*
X98472778Y-79632322D01*
X97974956Y-79964956D01*
X97782841Y-80252478D01*
X97490491Y-79889467D01*
X96972500Y-79606416D01*
X96880031Y-79588698D01*
X96647000Y-79709754D01*
X96647000Y-81153000D01*
X96667000Y-81153000D01*
X96667000Y-81407000D01*
X96647000Y-81407000D01*
X96647000Y-82850246D01*
X96880031Y-82971302D01*
X96972500Y-82953584D01*
X97490491Y-82670533D01*
X97782840Y-82307523D01*
X97974956Y-82595044D01*
X98472779Y-82927678D01*
X99060000Y-83044484D01*
X99647222Y-82927678D01*
X100145044Y-82595044D01*
X100330000Y-82318237D01*
X100514956Y-82595044D01*
X101012779Y-82927678D01*
X101600000Y-83044484D01*
X102187222Y-82927678D01*
X102685044Y-82595044D01*
X102870000Y-82318237D01*
X103054956Y-82595044D01*
X103552779Y-82927678D01*
X104140000Y-83044484D01*
X104727222Y-82927678D01*
X105225044Y-82595044D01*
X105410000Y-82318237D01*
X105594956Y-82595044D01*
X106092779Y-82927678D01*
X106680000Y-83044484D01*
X107267222Y-82927678D01*
X107765044Y-82595044D01*
X108097678Y-82097221D01*
X108185000Y-81658225D01*
X108185000Y-80901774D01*
X108097678Y-80462778D01*
X107915000Y-80189381D01*
X107915000Y-79785001D01*
X108908369Y-79785001D01*
X109030000Y-79809195D01*
X109151631Y-79785001D01*
X112207175Y-79785001D01*
X111387947Y-80604229D01*
X110865000Y-81866736D01*
X110865000Y-83233264D01*
X111387947Y-84495771D01*
X112354229Y-85462053D01*
X112807974Y-85650000D01*
X75152026Y-85650000D01*
X75605771Y-85462053D01*
X76572053Y-84495771D01*
X77095000Y-83233264D01*
X77095000Y-81866736D01*
X76572053Y-80604229D01*
X76397823Y-80429999D01*
X92462560Y-80429999D01*
X92462560Y-82130001D01*
X92530873Y-82473436D01*
X92725414Y-82764586D01*
X93016564Y-82959127D01*
X93359999Y-83027440D01*
X94600001Y-83027440D01*
X94943436Y-82959127D01*
X95234586Y-82764586D01*
X95411737Y-82499462D01*
X95549509Y-82670533D01*
X96067500Y-82953584D01*
X96159969Y-82971302D01*
X96393000Y-82850246D01*
X96393000Y-81407000D01*
X96373000Y-81407000D01*
X96373000Y-81153000D01*
X96393000Y-81153000D01*
X96393000Y-79709754D01*
X96159969Y-79588698D01*
X96067500Y-79606416D01*
X95549509Y-79889467D01*
X95411737Y-80060538D01*
X95234586Y-79795414D01*
X94943436Y-79600873D01*
X94600001Y-79532560D01*
X93359999Y-79532560D01*
X93016564Y-79600873D01*
X92725414Y-79795414D01*
X92530873Y-80086564D01*
X92462560Y-80429999D01*
X76397823Y-80429999D01*
X75605771Y-79637947D01*
X74343264Y-79115000D01*
X72976736Y-79115000D01*
X71714229Y-79637947D01*
X70747947Y-80604229D01*
X70560000Y-81057974D01*
X70560000Y-75775322D01*
X72795000Y-75775322D01*
X72795000Y-76624678D01*
X73120034Y-77409380D01*
X73720620Y-78009966D01*
X74505322Y-78335000D01*
X75354678Y-78335000D01*
X76139380Y-78009966D01*
X76739966Y-77409380D01*
X77065000Y-76624678D01*
X77065000Y-75775322D01*
X76888826Y-75350000D01*
X92482560Y-75350000D01*
X92482560Y-77050000D01*
X92531843Y-77297765D01*
X92672191Y-77507809D01*
X92882235Y-77648157D01*
X93130000Y-77697440D01*
X94830000Y-77697440D01*
X95077765Y-77648157D01*
X95287809Y-77507809D01*
X95428157Y-77297765D01*
X95448739Y-77194292D01*
X95753076Y-77471645D01*
X96163110Y-77641476D01*
X96393000Y-77520155D01*
X96393000Y-76327000D01*
X96373000Y-76327000D01*
X96373000Y-76073000D01*
X96393000Y-76073000D01*
X96393000Y-74879845D01*
X96163110Y-74758524D01*
X95753076Y-74928355D01*
X95448739Y-75205708D01*
X95428157Y-75102235D01*
X95287809Y-74892191D01*
X95077765Y-74751843D01*
X94830000Y-74702560D01*
X93130000Y-74702560D01*
X92882235Y-74751843D01*
X92672191Y-74892191D01*
X92531843Y-75102235D01*
X92482560Y-75350000D01*
X76888826Y-75350000D01*
X76739966Y-74990620D01*
X76139380Y-74390034D01*
X75354678Y-74065000D01*
X74505322Y-74065000D01*
X73720620Y-74390034D01*
X73120034Y-74990620D01*
X72795000Y-75775322D01*
X70560000Y-75775322D01*
X70560000Y-64540000D01*
X72782560Y-64540000D01*
X72782560Y-67540000D01*
X72831843Y-67787765D01*
X72972191Y-67997809D01*
X73182235Y-68138157D01*
X73430000Y-68187440D01*
X76430000Y-68187440D01*
X76677765Y-68138157D01*
X76887809Y-67997809D01*
X77028157Y-67787765D01*
X77077440Y-67540000D01*
X77077440Y-64540000D01*
X77028157Y-64292235D01*
X76887809Y-64082191D01*
X76677765Y-63941843D01*
X76430000Y-63892560D01*
X73430000Y-63892560D01*
X73182235Y-63941843D01*
X72972191Y-64082191D01*
X72831843Y-64292235D01*
X72782560Y-64540000D01*
X70560000Y-64540000D01*
X70560000Y-60535322D01*
X72795000Y-60535322D01*
X72795000Y-61384678D01*
X73120034Y-62169380D01*
X73720620Y-62769966D01*
X74505322Y-63095000D01*
X75354678Y-63095000D01*
X76139380Y-62769966D01*
X76739966Y-62169380D01*
X77065000Y-61384678D01*
X77065000Y-60535322D01*
X76739966Y-59750620D01*
X76139380Y-59150034D01*
X75354678Y-58825000D01*
X74505322Y-58825000D01*
X73720620Y-59150034D01*
X73120034Y-59750620D01*
X72795000Y-60535322D01*
X70560000Y-60535322D01*
X70560000Y-55455322D01*
X72795000Y-55455322D01*
X72795000Y-56304678D01*
X73120034Y-57089380D01*
X73720620Y-57689966D01*
X74505322Y-58015000D01*
X75354678Y-58015000D01*
X76139380Y-57689966D01*
X76739966Y-57089380D01*
X77065000Y-56304678D01*
X77065000Y-55455322D01*
X76739966Y-54670620D01*
X76139380Y-54070034D01*
X75354678Y-53745000D01*
X74505322Y-53745000D01*
X73720620Y-54070034D01*
X73120034Y-54670620D01*
X72795000Y-55455322D01*
X70560000Y-55455322D01*
X70560000Y-49300000D01*
X72782560Y-49300000D01*
X72782560Y-52300000D01*
X72831843Y-52547765D01*
X72972191Y-52757809D01*
X73182235Y-52898157D01*
X73430000Y-52947440D01*
X76430000Y-52947440D01*
X76677765Y-52898157D01*
X76887809Y-52757809D01*
X77028157Y-52547765D01*
X77077440Y-52300000D01*
X77077440Y-49300000D01*
X77028157Y-49052235D01*
X76887809Y-48842191D01*
X76677765Y-48701843D01*
X76430000Y-48652560D01*
X73430000Y-48652560D01*
X73182235Y-48701843D01*
X72972191Y-48842191D01*
X72831843Y-49052235D01*
X72782560Y-49300000D01*
X70560000Y-49300000D01*
X70560000Y-45295322D01*
X72795000Y-45295322D01*
X72795000Y-46144678D01*
X73120034Y-46929380D01*
X73720620Y-47529966D01*
X74505322Y-47855000D01*
X75354678Y-47855000D01*
X76139380Y-47529966D01*
X76739966Y-46929380D01*
X77065000Y-46144678D01*
X77065000Y-45295322D01*
X76739966Y-44510620D01*
X76139380Y-43910034D01*
X75354678Y-43585000D01*
X74505322Y-43585000D01*
X73720620Y-43910034D01*
X73120034Y-44510620D01*
X72795000Y-45295322D01*
X70560000Y-45295322D01*
X70560000Y-40215322D01*
X72795000Y-40215322D01*
X72795000Y-41064678D01*
X73120034Y-41849380D01*
X73720620Y-42449966D01*
X74505322Y-42775000D01*
X75354678Y-42775000D01*
X76139380Y-42449966D01*
X76739966Y-41849380D01*
X77065000Y-41064678D01*
X77065000Y-40215322D01*
X76739966Y-39430620D01*
X76139380Y-38830034D01*
X75354678Y-38505000D01*
X74505322Y-38505000D01*
X73720620Y-38830034D01*
X73120034Y-39430620D01*
X72795000Y-40215322D01*
X70560000Y-40215322D01*
X70560000Y-35845750D01*
X72795000Y-35845750D01*
X72795000Y-37186309D01*
X72891673Y-37419698D01*
X73070301Y-37598327D01*
X73303690Y-37695000D01*
X74644250Y-37695000D01*
X74803000Y-37536250D01*
X74803000Y-35687000D01*
X75057000Y-35687000D01*
X75057000Y-37536250D01*
X75215750Y-37695000D01*
X76556310Y-37695000D01*
X76789699Y-37598327D01*
X76968327Y-37419698D01*
X77065000Y-37186309D01*
X77065000Y-35845750D01*
X76906250Y-35687000D01*
X75057000Y-35687000D01*
X74803000Y-35687000D01*
X72953750Y-35687000D01*
X72795000Y-35845750D01*
X70560000Y-35845750D01*
X70560000Y-33933691D01*
X72795000Y-33933691D01*
X72795000Y-35274250D01*
X72953750Y-35433000D01*
X74803000Y-35433000D01*
X74803000Y-33583750D01*
X75057000Y-33583750D01*
X75057000Y-35433000D01*
X76906250Y-35433000D01*
X77065000Y-35274250D01*
X77065000Y-33933691D01*
X76968327Y-33700302D01*
X76789699Y-33521673D01*
X76556310Y-33425000D01*
X75215750Y-33425000D01*
X75057000Y-33583750D01*
X74803000Y-33583750D01*
X74644250Y-33425000D01*
X73303690Y-33425000D01*
X73070301Y-33521673D01*
X72891673Y-33700302D01*
X72795000Y-33933691D01*
X70560000Y-33933691D01*
X70560000Y-30702026D01*
X70747947Y-31155771D01*
X71714229Y-32122053D01*
X72976736Y-32645000D01*
X74343264Y-32645000D01*
X75605771Y-32122053D01*
X76572053Y-31155771D01*
X77095000Y-29893264D01*
X77095000Y-28526736D01*
X76572053Y-27264229D01*
X75605771Y-26297947D01*
X75152026Y-26110000D01*
X112807974Y-26110000D01*
X112354229Y-26297947D01*
X112354229Y-26297947D01*
G37*
X112354229Y-26297947D02*
X111387947Y-27264229D01*
X110865000Y-28526736D01*
X110865000Y-29893264D01*
X111387947Y-31155771D01*
X112354229Y-32122053D01*
X113616736Y-32645000D01*
X114983264Y-32645000D01*
X116245771Y-32122053D01*
X117212053Y-31155771D01*
X117400000Y-30702026D01*
X117400001Y-81057976D01*
X117212053Y-80604229D01*
X116245771Y-79637947D01*
X115973500Y-79525169D01*
X116100386Y-79440386D01*
X116169288Y-79337267D01*
X116537267Y-78969288D01*
X116640386Y-78900386D01*
X116913345Y-78491874D01*
X116985001Y-78131637D01*
X116985001Y-78131633D01*
X117009195Y-78010002D01*
X116985001Y-77888371D01*
X116985001Y-35215629D01*
X117009195Y-35093998D01*
X116985001Y-34972367D01*
X116985001Y-34972363D01*
X116913345Y-34612126D01*
X116640386Y-34203614D01*
X116537270Y-34134714D01*
X115905288Y-33502733D01*
X115836387Y-33399615D01*
X115427875Y-33126656D01*
X115067638Y-33055000D01*
X115067634Y-33055000D01*
X114946002Y-33030806D01*
X114886910Y-33042560D01*
X113700000Y-33042560D01*
X113637459Y-33055000D01*
X112271554Y-33055000D01*
X108909287Y-29692734D01*
X108840385Y-29589615D01*
X108431873Y-29316656D01*
X108071636Y-29245000D01*
X108071632Y-29245000D01*
X107950000Y-29220806D01*
X107828368Y-29245000D01*
X107504620Y-29245000D01*
X107259418Y-29081161D01*
X106970182Y-29023629D01*
X106789289Y-28842736D01*
X106789287Y-28842733D01*
X105099287Y-27152733D01*
X105030385Y-27049615D01*
X104621873Y-26776656D01*
X104261636Y-26705000D01*
X104261632Y-26705000D01*
X104140000Y-26680806D01*
X104018368Y-26705000D01*
X90291630Y-26705000D01*
X90169999Y-26680806D01*
X90048368Y-26705000D01*
X90048364Y-26705000D01*
X89688127Y-26776656D01*
X89473258Y-26920227D01*
X89382732Y-26980714D01*
X89382731Y-26980715D01*
X89279615Y-27049615D01*
X89210715Y-27152731D01*
X88569981Y-27793466D01*
X88131719Y-27975000D01*
X85858281Y-27975000D01*
X85375439Y-27775000D01*
X84804561Y-27775000D01*
X84277138Y-27993466D01*
X83873466Y-28397138D01*
X83655000Y-28924561D01*
X83655000Y-29495439D01*
X83873466Y-30022862D01*
X84277138Y-30426534D01*
X84804561Y-30645000D01*
X85375439Y-30645000D01*
X85858281Y-30445000D01*
X88131719Y-30445000D01*
X88569981Y-30626534D01*
X90205000Y-32261554D01*
X90205000Y-38740140D01*
X89934577Y-38335423D01*
X89459909Y-38018260D01*
X89041333Y-37935000D01*
X88758667Y-37935000D01*
X88576114Y-37971312D01*
X88220331Y-37615530D01*
X88177929Y-37552071D01*
X87926537Y-37384096D01*
X87704852Y-37340000D01*
X87704847Y-37340000D01*
X87630000Y-37325112D01*
X87555153Y-37340000D01*
X84695846Y-37340000D01*
X84620998Y-37325112D01*
X84546150Y-37340000D01*
X84546146Y-37340000D01*
X84372603Y-37374520D01*
X84324460Y-37384096D01*
X84137416Y-37509076D01*
X84073069Y-37552071D01*
X84030669Y-37615527D01*
X80795530Y-40850667D01*
X80732071Y-40893069D01*
X80564096Y-41144462D01*
X80520000Y-41366147D01*
X80520000Y-41366151D01*
X80505112Y-41440998D01*
X80520000Y-41515845D01*
X80520001Y-55176288D01*
X80402569Y-55293720D01*
X80245000Y-55674126D01*
X80245000Y-56085874D01*
X80402569Y-56466280D01*
X80693720Y-56757431D01*
X81074126Y-56915000D01*
X81485874Y-56915000D01*
X81538448Y-56893223D01*
X89993035Y-56893223D01*
X90020222Y-57463454D01*
X90186136Y-57864005D01*
X90432255Y-57938139D01*
X91260395Y-57110000D01*
X90432255Y-56281861D01*
X90186136Y-56355995D01*
X89993035Y-56893223D01*
X81538448Y-56893223D01*
X81866280Y-56757431D01*
X82157431Y-56466280D01*
X82315000Y-56085874D01*
X82315000Y-55674126D01*
X82157431Y-55293720D01*
X82040000Y-55176289D01*
X82040000Y-47283690D01*
X82335000Y-47283690D01*
X82335000Y-47974250D01*
X82493750Y-48133000D01*
X83693000Y-48133000D01*
X83693000Y-46933750D01*
X83947000Y-46933750D01*
X83947000Y-48133000D01*
X85146250Y-48133000D01*
X85305000Y-47974250D01*
X85305000Y-47283690D01*
X86145000Y-47283690D01*
X86145000Y-47974250D01*
X86303750Y-48133000D01*
X87503000Y-48133000D01*
X87503000Y-46933750D01*
X87757000Y-46933750D01*
X87757000Y-48133000D01*
X88956250Y-48133000D01*
X89115000Y-47974250D01*
X89115000Y-47283690D01*
X89018327Y-47050301D01*
X88839698Y-46871673D01*
X88606309Y-46775000D01*
X87915750Y-46775000D01*
X87757000Y-46933750D01*
X87503000Y-46933750D01*
X87344250Y-46775000D01*
X86653691Y-46775000D01*
X86420302Y-46871673D01*
X86241673Y-47050301D01*
X86145000Y-47283690D01*
X85305000Y-47283690D01*
X85208327Y-47050301D01*
X85029698Y-46871673D01*
X84796309Y-46775000D01*
X84105750Y-46775000D01*
X83947000Y-46933750D01*
X83693000Y-46933750D01*
X83534250Y-46775000D01*
X82843691Y-46775000D01*
X82610302Y-46871673D01*
X82431673Y-47050301D01*
X82335000Y-47283690D01*
X82040000Y-47283690D01*
X82040000Y-41755799D01*
X83789382Y-40006418D01*
X84055423Y-40404577D01*
X84530091Y-40721740D01*
X84948667Y-40805000D01*
X85231333Y-40805000D01*
X85649909Y-40721740D01*
X86124577Y-40404577D01*
X86441740Y-39929909D01*
X86553113Y-39370000D01*
X86451668Y-38860000D01*
X87315199Y-38860000D01*
X87501312Y-39046113D01*
X87436887Y-39370000D01*
X87548260Y-39929909D01*
X87865423Y-40404577D01*
X88340091Y-40721740D01*
X88758667Y-40805000D01*
X89041333Y-40805000D01*
X89459909Y-40721740D01*
X89934577Y-40404577D01*
X90205000Y-39999860D01*
X90205001Y-53375000D01*
X89411554Y-53375000D01*
X89086371Y-53049818D01*
X89028839Y-52760582D01*
X88700625Y-52269375D01*
X88402239Y-52070000D01*
X88700625Y-51870625D01*
X89028839Y-51379418D01*
X89144092Y-50800000D01*
X89028839Y-50220582D01*
X88700625Y-49729375D01*
X88678967Y-49714904D01*
X88839698Y-49648327D01*
X89018327Y-49469699D01*
X89115000Y-49236310D01*
X89115000Y-48545750D01*
X88956250Y-48387000D01*
X87757000Y-48387000D01*
X87757000Y-48407000D01*
X87503000Y-48407000D01*
X87503000Y-48387000D01*
X86303750Y-48387000D01*
X86145000Y-48545750D01*
X86145000Y-49236310D01*
X86241673Y-49469699D01*
X86420302Y-49648327D01*
X86581033Y-49714904D01*
X86559375Y-49729375D01*
X86231161Y-50220582D01*
X86115908Y-50800000D01*
X86231161Y-51379418D01*
X86559375Y-51870625D01*
X86857761Y-52070000D01*
X86805380Y-52105000D01*
X84644620Y-52105000D01*
X84592239Y-52070000D01*
X84890625Y-51870625D01*
X85218839Y-51379418D01*
X85334092Y-50800000D01*
X85218839Y-50220582D01*
X84890625Y-49729375D01*
X84868967Y-49714904D01*
X85029698Y-49648327D01*
X85208327Y-49469699D01*
X85305000Y-49236310D01*
X85305000Y-48545750D01*
X85146250Y-48387000D01*
X83947000Y-48387000D01*
X83947000Y-48407000D01*
X83693000Y-48407000D01*
X83693000Y-48387000D01*
X82493750Y-48387000D01*
X82335000Y-48545750D01*
X82335000Y-49236310D01*
X82431673Y-49469699D01*
X82610302Y-49648327D01*
X82771033Y-49714904D01*
X82749375Y-49729375D01*
X82421161Y-50220582D01*
X82305908Y-50800000D01*
X82421161Y-51379418D01*
X82749375Y-51870625D01*
X83047761Y-52070000D01*
X82749375Y-52269375D01*
X82421161Y-52760582D01*
X82305908Y-53340000D01*
X82421161Y-53919418D01*
X82749375Y-54410625D01*
X83240582Y-54738839D01*
X83673744Y-54825000D01*
X83966256Y-54825000D01*
X84399418Y-54738839D01*
X84644620Y-54575000D01*
X86805380Y-54575000D01*
X87050582Y-54738839D01*
X87339818Y-54796371D01*
X87940715Y-55397269D01*
X88009615Y-55500385D01*
X88112731Y-55569285D01*
X88112732Y-55569286D01*
X88173490Y-55609883D01*
X88418127Y-55773344D01*
X88778364Y-55845000D01*
X88778368Y-55845000D01*
X88899999Y-55869194D01*
X89021630Y-55845000D01*
X90671719Y-55845000D01*
X90692299Y-55853525D01*
X90685995Y-55856136D01*
X90611861Y-56102255D01*
X91440000Y-56930395D01*
X91454142Y-56916252D01*
X91633748Y-57095858D01*
X91619605Y-57110000D01*
X91633748Y-57124142D01*
X91454142Y-57303748D01*
X91440000Y-57289605D01*
X90611861Y-58117745D01*
X90649457Y-58242560D01*
X90640000Y-58242560D01*
X90392235Y-58291843D01*
X90182191Y-58432191D01*
X90166950Y-58455000D01*
X84588281Y-58455000D01*
X84105439Y-58255000D01*
X83534561Y-58255000D01*
X83007138Y-58473466D01*
X82603466Y-58877138D01*
X82385000Y-59404561D01*
X82385000Y-59975439D01*
X82603466Y-60502862D01*
X83007138Y-60906534D01*
X83099109Y-60944629D01*
X82931510Y-61023179D01*
X82537312Y-61455053D01*
X82365042Y-61870974D01*
X82486183Y-62103000D01*
X83693000Y-62103000D01*
X83693000Y-62083000D01*
X83947000Y-62083000D01*
X83947000Y-62103000D01*
X83967000Y-62103000D01*
X83967000Y-62357000D01*
X83947000Y-62357000D01*
X83947000Y-62377000D01*
X83693000Y-62377000D01*
X83693000Y-62357000D01*
X82486183Y-62357000D01*
X82365042Y-62589026D01*
X82537312Y-63004947D01*
X82931510Y-63436821D01*
X83041021Y-63488146D01*
X82739570Y-63689570D01*
X82408350Y-64185275D01*
X82292041Y-64770000D01*
X82367225Y-65147974D01*
X82034131Y-65481068D01*
X82034128Y-65481070D01*
X78700199Y-68815000D01*
X78534126Y-68815000D01*
X78153720Y-68972569D01*
X77862569Y-69263720D01*
X77705000Y-69644126D01*
X77705000Y-70055874D01*
X77830973Y-70360000D01*
X76926105Y-70360000D01*
X76739966Y-69910620D01*
X76139380Y-69310034D01*
X75354678Y-68985000D01*
X74505322Y-68985000D01*
X73720620Y-69310034D01*
X73120034Y-69910620D01*
X72795000Y-70695322D01*
X72795000Y-71544678D01*
X73120034Y-72329380D01*
X73720620Y-72929966D01*
X74505322Y-73255000D01*
X75354678Y-73255000D01*
X76139380Y-72929966D01*
X76739966Y-72329380D01*
X76926105Y-71880000D01*
X90078332Y-71880000D01*
X89976887Y-72390000D01*
X90088260Y-72949909D01*
X90405423Y-73424577D01*
X90880091Y-73741740D01*
X91298667Y-73825000D01*
X91581333Y-73825000D01*
X91999909Y-73741740D01*
X92474577Y-73424577D01*
X92791740Y-72949909D01*
X92903113Y-72390000D01*
X92801668Y-71880000D01*
X93888332Y-71880000D01*
X93786887Y-72390000D01*
X93833631Y-72625000D01*
X93774126Y-72625000D01*
X93393720Y-72782569D01*
X93102569Y-73073720D01*
X92945000Y-73454126D01*
X92945000Y-73865874D01*
X93102569Y-74246280D01*
X93393720Y-74537431D01*
X93774126Y-74695000D01*
X94185874Y-74695000D01*
X94566280Y-74537431D01*
X94683711Y-74420000D01*
X101525153Y-74420000D01*
X101600000Y-74434888D01*
X101674847Y-74420000D01*
X101674852Y-74420000D01*
X101896537Y-74375904D01*
X102147929Y-74207929D01*
X102190331Y-74144470D01*
X102546114Y-73788688D01*
X102728667Y-73825000D01*
X103011333Y-73825000D01*
X103429909Y-73741740D01*
X103904577Y-73424577D01*
X104088043Y-73150000D01*
X105461957Y-73150000D01*
X105645423Y-73424577D01*
X106120091Y-73741740D01*
X106538667Y-73825000D01*
X106821333Y-73825000D01*
X107239909Y-73741740D01*
X107714577Y-73424577D01*
X108031740Y-72949909D01*
X108143113Y-72390000D01*
X108031740Y-71830091D01*
X107714577Y-71355423D01*
X107362242Y-71120000D01*
X107714577Y-70884577D01*
X107985024Y-70479825D01*
X111557758Y-74052560D01*
X111530000Y-74052560D01*
X111282235Y-74101843D01*
X111072191Y-74242191D01*
X110931843Y-74452235D01*
X110882560Y-74700000D01*
X110882560Y-77315001D01*
X109541555Y-77315001D01*
X108489287Y-76262734D01*
X108489285Y-76262731D01*
X108136371Y-75909818D01*
X108078839Y-75620582D01*
X107750625Y-75129375D01*
X107259418Y-74801161D01*
X106826256Y-74715000D01*
X106533744Y-74715000D01*
X106100582Y-74801161D01*
X105609375Y-75129375D01*
X105410000Y-75427761D01*
X105210625Y-75129375D01*
X104719418Y-74801161D01*
X104286256Y-74715000D01*
X103993744Y-74715000D01*
X103560582Y-74801161D01*
X103069375Y-75129375D01*
X102870000Y-75427761D01*
X102670625Y-75129375D01*
X102179418Y-74801161D01*
X101746256Y-74715000D01*
X101453744Y-74715000D01*
X101020582Y-74801161D01*
X100529375Y-75129375D01*
X100330000Y-75427761D01*
X100130625Y-75129375D01*
X99639418Y-74801161D01*
X99206256Y-74715000D01*
X98913744Y-74715000D01*
X98480582Y-74801161D01*
X97989375Y-75129375D01*
X97776157Y-75448478D01*
X97715183Y-75318642D01*
X97286924Y-74928355D01*
X96876890Y-74758524D01*
X96647000Y-74879845D01*
X96647000Y-76073000D01*
X96667000Y-76073000D01*
X96667000Y-76327000D01*
X96647000Y-76327000D01*
X96647000Y-77520155D01*
X96876890Y-77641476D01*
X97286924Y-77471645D01*
X97715183Y-77081358D01*
X97776157Y-76951522D01*
X97989375Y-77270625D01*
X98480582Y-77598839D01*
X98913744Y-77685000D01*
X99206256Y-77685000D01*
X99639418Y-77598839D01*
X100130625Y-77270625D01*
X100330000Y-76972239D01*
X100529375Y-77270625D01*
X101020582Y-77598839D01*
X101453744Y-77685000D01*
X101746256Y-77685000D01*
X102179418Y-77598839D01*
X102670625Y-77270625D01*
X102870000Y-76972239D01*
X103069375Y-77270625D01*
X103560582Y-77598839D01*
X103993744Y-77685000D01*
X104286256Y-77685000D01*
X104719418Y-77598839D01*
X105210625Y-77270625D01*
X105410000Y-76972239D01*
X105609375Y-77270625D01*
X106100582Y-77598839D01*
X106262401Y-77631027D01*
X106219614Y-77659616D01*
X106150713Y-77762734D01*
X105892732Y-78020715D01*
X105789616Y-78089615D01*
X105720716Y-78192731D01*
X105720714Y-78192733D01*
X105516656Y-78498128D01*
X105420806Y-78980000D01*
X105445001Y-79101636D01*
X105445000Y-80189381D01*
X105410000Y-80241763D01*
X105225044Y-79964956D01*
X104727221Y-79632322D01*
X104140000Y-79515516D01*
X103552778Y-79632322D01*
X103054956Y-79964956D01*
X102870000Y-80241763D01*
X102685044Y-79964956D01*
X102187221Y-79632322D01*
X101600000Y-79515516D01*
X101012778Y-79632322D01*
X100514956Y-79964956D01*
X100330000Y-80241763D01*
X100145044Y-79964956D01*
X99647221Y-79632322D01*
X99060000Y-79515516D01*
X98472778Y-79632322D01*
X97974956Y-79964956D01*
X97782841Y-80252478D01*
X97490491Y-79889467D01*
X96972500Y-79606416D01*
X96880031Y-79588698D01*
X96647000Y-79709754D01*
X96647000Y-81153000D01*
X96667000Y-81153000D01*
X96667000Y-81407000D01*
X96647000Y-81407000D01*
X96647000Y-82850246D01*
X96880031Y-82971302D01*
X96972500Y-82953584D01*
X97490491Y-82670533D01*
X97782840Y-82307523D01*
X97974956Y-82595044D01*
X98472779Y-82927678D01*
X99060000Y-83044484D01*
X99647222Y-82927678D01*
X100145044Y-82595044D01*
X100330000Y-82318237D01*
X100514956Y-82595044D01*
X101012779Y-82927678D01*
X101600000Y-83044484D01*
X102187222Y-82927678D01*
X102685044Y-82595044D01*
X102870000Y-82318237D01*
X103054956Y-82595044D01*
X103552779Y-82927678D01*
X104140000Y-83044484D01*
X104727222Y-82927678D01*
X105225044Y-82595044D01*
X105410000Y-82318237D01*
X105594956Y-82595044D01*
X106092779Y-82927678D01*
X106680000Y-83044484D01*
X107267222Y-82927678D01*
X107765044Y-82595044D01*
X108097678Y-82097221D01*
X108185000Y-81658225D01*
X108185000Y-80901774D01*
X108097678Y-80462778D01*
X107915000Y-80189381D01*
X107915000Y-79785001D01*
X108908369Y-79785001D01*
X109030000Y-79809195D01*
X109151631Y-79785001D01*
X112207175Y-79785001D01*
X111387947Y-80604229D01*
X110865000Y-81866736D01*
X110865000Y-83233264D01*
X111387947Y-84495771D01*
X112354229Y-85462053D01*
X112807974Y-85650000D01*
X75152026Y-85650000D01*
X75605771Y-85462053D01*
X76572053Y-84495771D01*
X77095000Y-83233264D01*
X77095000Y-81866736D01*
X76572053Y-80604229D01*
X76397823Y-80429999D01*
X92462560Y-80429999D01*
X92462560Y-82130001D01*
X92530873Y-82473436D01*
X92725414Y-82764586D01*
X93016564Y-82959127D01*
X93359999Y-83027440D01*
X94600001Y-83027440D01*
X94943436Y-82959127D01*
X95234586Y-82764586D01*
X95411737Y-82499462D01*
X95549509Y-82670533D01*
X96067500Y-82953584D01*
X96159969Y-82971302D01*
X96393000Y-82850246D01*
X96393000Y-81407000D01*
X96373000Y-81407000D01*
X96373000Y-81153000D01*
X96393000Y-81153000D01*
X96393000Y-79709754D01*
X96159969Y-79588698D01*
X96067500Y-79606416D01*
X95549509Y-79889467D01*
X95411737Y-80060538D01*
X95234586Y-79795414D01*
X94943436Y-79600873D01*
X94600001Y-79532560D01*
X93359999Y-79532560D01*
X93016564Y-79600873D01*
X92725414Y-79795414D01*
X92530873Y-80086564D01*
X92462560Y-80429999D01*
X76397823Y-80429999D01*
X75605771Y-79637947D01*
X74343264Y-79115000D01*
X72976736Y-79115000D01*
X71714229Y-79637947D01*
X70747947Y-80604229D01*
X70560000Y-81057974D01*
X70560000Y-75775322D01*
X72795000Y-75775322D01*
X72795000Y-76624678D01*
X73120034Y-77409380D01*
X73720620Y-78009966D01*
X74505322Y-78335000D01*
X75354678Y-78335000D01*
X76139380Y-78009966D01*
X76739966Y-77409380D01*
X77065000Y-76624678D01*
X77065000Y-75775322D01*
X76888826Y-75350000D01*
X92482560Y-75350000D01*
X92482560Y-77050000D01*
X92531843Y-77297765D01*
X92672191Y-77507809D01*
X92882235Y-77648157D01*
X93130000Y-77697440D01*
X94830000Y-77697440D01*
X95077765Y-77648157D01*
X95287809Y-77507809D01*
X95428157Y-77297765D01*
X95448739Y-77194292D01*
X95753076Y-77471645D01*
X96163110Y-77641476D01*
X96393000Y-77520155D01*
X96393000Y-76327000D01*
X96373000Y-76327000D01*
X96373000Y-76073000D01*
X96393000Y-76073000D01*
X96393000Y-74879845D01*
X96163110Y-74758524D01*
X95753076Y-74928355D01*
X95448739Y-75205708D01*
X95428157Y-75102235D01*
X95287809Y-74892191D01*
X95077765Y-74751843D01*
X94830000Y-74702560D01*
X93130000Y-74702560D01*
X92882235Y-74751843D01*
X92672191Y-74892191D01*
X92531843Y-75102235D01*
X92482560Y-75350000D01*
X76888826Y-75350000D01*
X76739966Y-74990620D01*
X76139380Y-74390034D01*
X75354678Y-74065000D01*
X74505322Y-74065000D01*
X73720620Y-74390034D01*
X73120034Y-74990620D01*
X72795000Y-75775322D01*
X70560000Y-75775322D01*
X70560000Y-64540000D01*
X72782560Y-64540000D01*
X72782560Y-67540000D01*
X72831843Y-67787765D01*
X72972191Y-67997809D01*
X73182235Y-68138157D01*
X73430000Y-68187440D01*
X76430000Y-68187440D01*
X76677765Y-68138157D01*
X76887809Y-67997809D01*
X77028157Y-67787765D01*
X77077440Y-67540000D01*
X77077440Y-64540000D01*
X77028157Y-64292235D01*
X76887809Y-64082191D01*
X76677765Y-63941843D01*
X76430000Y-63892560D01*
X73430000Y-63892560D01*
X73182235Y-63941843D01*
X72972191Y-64082191D01*
X72831843Y-64292235D01*
X72782560Y-64540000D01*
X70560000Y-64540000D01*
X70560000Y-60535322D01*
X72795000Y-60535322D01*
X72795000Y-61384678D01*
X73120034Y-62169380D01*
X73720620Y-62769966D01*
X74505322Y-63095000D01*
X75354678Y-63095000D01*
X76139380Y-62769966D01*
X76739966Y-62169380D01*
X77065000Y-61384678D01*
X77065000Y-60535322D01*
X76739966Y-59750620D01*
X76139380Y-59150034D01*
X75354678Y-58825000D01*
X74505322Y-58825000D01*
X73720620Y-59150034D01*
X73120034Y-59750620D01*
X72795000Y-60535322D01*
X70560000Y-60535322D01*
X70560000Y-55455322D01*
X72795000Y-55455322D01*
X72795000Y-56304678D01*
X73120034Y-57089380D01*
X73720620Y-57689966D01*
X74505322Y-58015000D01*
X75354678Y-58015000D01*
X76139380Y-57689966D01*
X76739966Y-57089380D01*
X77065000Y-56304678D01*
X77065000Y-55455322D01*
X76739966Y-54670620D01*
X76139380Y-54070034D01*
X75354678Y-53745000D01*
X74505322Y-53745000D01*
X73720620Y-54070034D01*
X73120034Y-54670620D01*
X72795000Y-55455322D01*
X70560000Y-55455322D01*
X70560000Y-49300000D01*
X72782560Y-49300000D01*
X72782560Y-52300000D01*
X72831843Y-52547765D01*
X72972191Y-52757809D01*
X73182235Y-52898157D01*
X73430000Y-52947440D01*
X76430000Y-52947440D01*
X76677765Y-52898157D01*
X76887809Y-52757809D01*
X77028157Y-52547765D01*
X77077440Y-52300000D01*
X77077440Y-49300000D01*
X77028157Y-49052235D01*
X76887809Y-48842191D01*
X76677765Y-48701843D01*
X76430000Y-48652560D01*
X73430000Y-48652560D01*
X73182235Y-48701843D01*
X72972191Y-48842191D01*
X72831843Y-49052235D01*
X72782560Y-49300000D01*
X70560000Y-49300000D01*
X70560000Y-45295322D01*
X72795000Y-45295322D01*
X72795000Y-46144678D01*
X73120034Y-46929380D01*
X73720620Y-47529966D01*
X74505322Y-47855000D01*
X75354678Y-47855000D01*
X76139380Y-47529966D01*
X76739966Y-46929380D01*
X77065000Y-46144678D01*
X77065000Y-45295322D01*
X76739966Y-44510620D01*
X76139380Y-43910034D01*
X75354678Y-43585000D01*
X74505322Y-43585000D01*
X73720620Y-43910034D01*
X73120034Y-44510620D01*
X72795000Y-45295322D01*
X70560000Y-45295322D01*
X70560000Y-40215322D01*
X72795000Y-40215322D01*
X72795000Y-41064678D01*
X73120034Y-41849380D01*
X73720620Y-42449966D01*
X74505322Y-42775000D01*
X75354678Y-42775000D01*
X76139380Y-42449966D01*
X76739966Y-41849380D01*
X77065000Y-41064678D01*
X77065000Y-40215322D01*
X76739966Y-39430620D01*
X76139380Y-38830034D01*
X75354678Y-38505000D01*
X74505322Y-38505000D01*
X73720620Y-38830034D01*
X73120034Y-39430620D01*
X72795000Y-40215322D01*
X70560000Y-40215322D01*
X70560000Y-35845750D01*
X72795000Y-35845750D01*
X72795000Y-37186309D01*
X72891673Y-37419698D01*
X73070301Y-37598327D01*
X73303690Y-37695000D01*
X74644250Y-37695000D01*
X74803000Y-37536250D01*
X74803000Y-35687000D01*
X75057000Y-35687000D01*
X75057000Y-37536250D01*
X75215750Y-37695000D01*
X76556310Y-37695000D01*
X76789699Y-37598327D01*
X76968327Y-37419698D01*
X77065000Y-37186309D01*
X77065000Y-35845750D01*
X76906250Y-35687000D01*
X75057000Y-35687000D01*
X74803000Y-35687000D01*
X72953750Y-35687000D01*
X72795000Y-35845750D01*
X70560000Y-35845750D01*
X70560000Y-33933691D01*
X72795000Y-33933691D01*
X72795000Y-35274250D01*
X72953750Y-35433000D01*
X74803000Y-35433000D01*
X74803000Y-33583750D01*
X75057000Y-33583750D01*
X75057000Y-35433000D01*
X76906250Y-35433000D01*
X77065000Y-35274250D01*
X77065000Y-33933691D01*
X76968327Y-33700302D01*
X76789699Y-33521673D01*
X76556310Y-33425000D01*
X75215750Y-33425000D01*
X75057000Y-33583750D01*
X74803000Y-33583750D01*
X74644250Y-33425000D01*
X73303690Y-33425000D01*
X73070301Y-33521673D01*
X72891673Y-33700302D01*
X72795000Y-33933691D01*
X70560000Y-33933691D01*
X70560000Y-30702026D01*
X70747947Y-31155771D01*
X71714229Y-32122053D01*
X72976736Y-32645000D01*
X74343264Y-32645000D01*
X75605771Y-32122053D01*
X76572053Y-31155771D01*
X77095000Y-29893264D01*
X77095000Y-28526736D01*
X76572053Y-27264229D01*
X75605771Y-26297947D01*
X75152026Y-26110000D01*
X112807974Y-26110000D01*
X112354229Y-26297947D01*
G36*
X101406887Y-69850000D02*
X101471312Y-70173887D01*
X101285199Y-70360000D01*
X96611668Y-70360000D01*
X96713113Y-69850000D01*
X96611668Y-69340000D01*
X101508332Y-69340000D01*
X101406887Y-69850000D01*
X101406887Y-69850000D01*
G37*
X101406887Y-69850000D02*
X101471312Y-70173887D01*
X101285199Y-70360000D01*
X96611668Y-70360000D01*
X96713113Y-69850000D01*
X96611668Y-69340000D01*
X101508332Y-69340000D01*
X101406887Y-69850000D01*
G36*
X101835423Y-65804577D02*
X102187758Y-66040000D01*
X101835423Y-66275423D01*
X101518260Y-66750091D01*
X101406887Y-67310000D01*
X101471312Y-67633887D01*
X101285199Y-67820000D01*
X96611668Y-67820000D01*
X96713113Y-67310000D01*
X96601740Y-66750091D01*
X96394247Y-66439556D01*
X97193644Y-65640160D01*
X97203720Y-65650236D01*
X97584126Y-65807805D01*
X97995874Y-65807805D01*
X98376280Y-65650236D01*
X98493711Y-65532805D01*
X101653831Y-65532805D01*
X101835423Y-65804577D01*
X101835423Y-65804577D01*
G37*
X101835423Y-65804577D02*
X102187758Y-66040000D01*
X101835423Y-66275423D01*
X101518260Y-66750091D01*
X101406887Y-67310000D01*
X101471312Y-67633887D01*
X101285199Y-67820000D01*
X96611668Y-67820000D01*
X96713113Y-67310000D01*
X96601740Y-66750091D01*
X96394247Y-66439556D01*
X97193644Y-65640160D01*
X97203720Y-65650236D01*
X97584126Y-65807805D01*
X97995874Y-65807805D01*
X98376280Y-65650236D01*
X98493711Y-65532805D01*
X101653831Y-65532805D01*
X101835423Y-65804577D01*
G36*
X111557758Y-58812560D02*
X111530000Y-58812560D01*
X111282235Y-58861843D01*
X111072191Y-59002191D01*
X110931843Y-59212235D01*
X110882560Y-59460000D01*
X110882560Y-62460000D01*
X110931843Y-62707765D01*
X111072191Y-62917809D01*
X111282235Y-63058157D01*
X111530000Y-63107440D01*
X114515002Y-63107440D01*
X114515002Y-64505656D01*
X114239380Y-64230034D01*
X113454678Y-63905000D01*
X112605322Y-63905000D01*
X112155941Y-64091140D01*
X112120332Y-64055531D01*
X112120330Y-64055528D01*
X109615021Y-61550220D01*
X109615021Y-56869822D01*
X111557758Y-58812560D01*
X111557758Y-58812560D01*
G37*
X111557758Y-58812560D02*
X111530000Y-58812560D01*
X111282235Y-58861843D01*
X111072191Y-59002191D01*
X110931843Y-59212235D01*
X110882560Y-59460000D01*
X110882560Y-62460000D01*
X110931843Y-62707765D01*
X111072191Y-62917809D01*
X111282235Y-63058157D01*
X111530000Y-63107440D01*
X114515002Y-63107440D01*
X114515002Y-64505656D01*
X114239380Y-64230034D01*
X113454678Y-63905000D01*
X112605322Y-63905000D01*
X112155941Y-64091140D01*
X112120332Y-64055531D01*
X112120330Y-64055528D01*
X109615021Y-61550220D01*
X109615021Y-56869822D01*
X111557758Y-58812560D01*
G36*
X101477266Y-57503820D02*
X101518260Y-57709909D01*
X101635000Y-57884623D01*
X101635001Y-58955376D01*
X101518260Y-59130091D01*
X101406887Y-59690000D01*
X101518260Y-60249909D01*
X101835423Y-60724577D01*
X102187758Y-60960000D01*
X101835423Y-61195423D01*
X101651957Y-61470000D01*
X97864847Y-61470000D01*
X97790000Y-61455112D01*
X97715153Y-61470000D01*
X97715148Y-61470000D01*
X97493463Y-61514096D01*
X97242071Y-61682071D01*
X97199671Y-61745527D01*
X96712595Y-62232604D01*
X96713113Y-62230000D01*
X96601740Y-61670091D01*
X96284577Y-61195423D01*
X95932242Y-60960000D01*
X96284577Y-60724577D01*
X96601740Y-60249909D01*
X96713113Y-59690000D01*
X96601740Y-59130091D01*
X96284577Y-58655423D01*
X95900892Y-58399053D01*
X96105134Y-58302389D01*
X96481041Y-57887423D01*
X96641904Y-57499039D01*
X96519915Y-57277000D01*
X95377000Y-57277000D01*
X95377000Y-57297000D01*
X95123000Y-57297000D01*
X95123000Y-57277000D01*
X95103000Y-57277000D01*
X95103000Y-57023000D01*
X95123000Y-57023000D01*
X95123000Y-57003000D01*
X95377000Y-57003000D01*
X95377000Y-57023000D01*
X96519915Y-57023000D01*
X96641904Y-56800961D01*
X96481041Y-56412577D01*
X96105134Y-55997611D01*
X95900892Y-55900947D01*
X95984623Y-55845000D01*
X99818447Y-55845000D01*
X101477266Y-57503820D01*
X101477266Y-57503820D01*
G37*
X101477266Y-57503820D02*
X101518260Y-57709909D01*
X101635000Y-57884623D01*
X101635001Y-58955376D01*
X101518260Y-59130091D01*
X101406887Y-59690000D01*
X101518260Y-60249909D01*
X101835423Y-60724577D01*
X102187758Y-60960000D01*
X101835423Y-61195423D01*
X101651957Y-61470000D01*
X97864847Y-61470000D01*
X97790000Y-61455112D01*
X97715153Y-61470000D01*
X97715148Y-61470000D01*
X97493463Y-61514096D01*
X97242071Y-61682071D01*
X97199671Y-61745527D01*
X96712595Y-62232604D01*
X96713113Y-62230000D01*
X96601740Y-61670091D01*
X96284577Y-61195423D01*
X95932242Y-60960000D01*
X96284577Y-60724577D01*
X96601740Y-60249909D01*
X96713113Y-59690000D01*
X96601740Y-59130091D01*
X96284577Y-58655423D01*
X95900892Y-58399053D01*
X96105134Y-58302389D01*
X96481041Y-57887423D01*
X96641904Y-57499039D01*
X96519915Y-57277000D01*
X95377000Y-57277000D01*
X95377000Y-57297000D01*
X95123000Y-57297000D01*
X95123000Y-57277000D01*
X95103000Y-57277000D01*
X95103000Y-57023000D01*
X95123000Y-57023000D01*
X95123000Y-57003000D01*
X95377000Y-57003000D01*
X95377000Y-57023000D01*
X96519915Y-57023000D01*
X96641904Y-56800961D01*
X96481041Y-56412577D01*
X96105134Y-55997611D01*
X95900892Y-55900947D01*
X95984623Y-55845000D01*
X99818447Y-55845000D01*
X101477266Y-57503820D01*
G36*
X105645423Y-53104577D02*
X106022159Y-53356304D01*
X105925995Y-53396136D01*
X105851861Y-53642255D01*
X106680000Y-54470395D01*
X106694142Y-54456252D01*
X106873748Y-54635858D01*
X106859605Y-54650000D01*
X107687745Y-55478139D01*
X107933864Y-55404005D01*
X108095021Y-54955648D01*
X108095021Y-56816328D01*
X107896534Y-56337138D01*
X107492862Y-55933466D01*
X107427701Y-55906475D01*
X107434005Y-55903864D01*
X107508139Y-55657745D01*
X106680000Y-54829605D01*
X105851861Y-55657745D01*
X105925995Y-55903864D01*
X105932746Y-55906290D01*
X105911719Y-55915000D01*
X103604623Y-55915000D01*
X103520892Y-55859053D01*
X103725134Y-55762389D01*
X104101041Y-55347423D01*
X104261904Y-54959039D01*
X104139915Y-54737000D01*
X102997000Y-54737000D01*
X102997000Y-54757000D01*
X102743000Y-54757000D01*
X102743000Y-54737000D01*
X102723000Y-54737000D01*
X102723000Y-54483000D01*
X102743000Y-54483000D01*
X102743000Y-54463000D01*
X102997000Y-54463000D01*
X102997000Y-54483000D01*
X104139915Y-54483000D01*
X104167262Y-54433223D01*
X105233035Y-54433223D01*
X105260222Y-55003454D01*
X105426136Y-55404005D01*
X105672255Y-55478139D01*
X106500395Y-54650000D01*
X105672255Y-53821861D01*
X105426136Y-53895995D01*
X105233035Y-54433223D01*
X104167262Y-54433223D01*
X104261904Y-54260961D01*
X104101041Y-53872577D01*
X103725134Y-53457611D01*
X103520892Y-53360947D01*
X103904577Y-53104577D01*
X104088043Y-52830000D01*
X105461957Y-52830000D01*
X105645423Y-53104577D01*
X105645423Y-53104577D01*
G37*
X105645423Y-53104577D02*
X106022159Y-53356304D01*
X105925995Y-53396136D01*
X105851861Y-53642255D01*
X106680000Y-54470395D01*
X106694142Y-54456252D01*
X106873748Y-54635858D01*
X106859605Y-54650000D01*
X107687745Y-55478139D01*
X107933864Y-55404005D01*
X108095021Y-54955648D01*
X108095021Y-56816328D01*
X107896534Y-56337138D01*
X107492862Y-55933466D01*
X107427701Y-55906475D01*
X107434005Y-55903864D01*
X107508139Y-55657745D01*
X106680000Y-54829605D01*
X105851861Y-55657745D01*
X105925995Y-55903864D01*
X105932746Y-55906290D01*
X105911719Y-55915000D01*
X103604623Y-55915000D01*
X103520892Y-55859053D01*
X103725134Y-55762389D01*
X104101041Y-55347423D01*
X104261904Y-54959039D01*
X104139915Y-54737000D01*
X102997000Y-54737000D01*
X102997000Y-54757000D01*
X102743000Y-54757000D01*
X102743000Y-54737000D01*
X102723000Y-54737000D01*
X102723000Y-54483000D01*
X102743000Y-54483000D01*
X102743000Y-54463000D01*
X102997000Y-54463000D01*
X102997000Y-54483000D01*
X104139915Y-54483000D01*
X104167262Y-54433223D01*
X105233035Y-54433223D01*
X105260222Y-55003454D01*
X105426136Y-55404005D01*
X105672255Y-55478139D01*
X106500395Y-54650000D01*
X105672255Y-53821861D01*
X105426136Y-53895995D01*
X105233035Y-54433223D01*
X104167262Y-54433223D01*
X104261904Y-54260961D01*
X104101041Y-53872577D01*
X103725134Y-53457611D01*
X103520892Y-53360947D01*
X103904577Y-53104577D01*
X104088043Y-52830000D01*
X105461957Y-52830000D01*
X105645423Y-53104577D01*
G36*
X100565000Y-48299802D02*
X100565000Y-48465874D01*
X100722569Y-48846280D01*
X101013720Y-49137431D01*
X101394126Y-49295000D01*
X101453631Y-49295000D01*
X101406887Y-49530000D01*
X101518260Y-50089909D01*
X101835423Y-50564577D01*
X102187758Y-50800000D01*
X101835423Y-51035423D01*
X101518260Y-51510091D01*
X101406887Y-52070000D01*
X101518260Y-52629909D01*
X101835423Y-53104577D01*
X102219108Y-53360947D01*
X102014866Y-53457611D01*
X101638959Y-53872577D01*
X101551145Y-54084592D01*
X101289287Y-53822734D01*
X101220385Y-53719615D01*
X100811873Y-53446656D01*
X100451636Y-53375000D01*
X100451632Y-53375000D01*
X100330000Y-53350806D01*
X100208368Y-53375000D01*
X95984623Y-53375000D01*
X95932242Y-53340000D01*
X96284577Y-53104577D01*
X96601740Y-52629909D01*
X96713113Y-52070000D01*
X96601740Y-51510091D01*
X96284577Y-51035423D01*
X95932242Y-50800000D01*
X96284577Y-50564577D01*
X96601740Y-50089909D01*
X96713113Y-49530000D01*
X96601740Y-48970091D01*
X96284577Y-48495423D01*
X95932242Y-48260000D01*
X96284577Y-48024577D01*
X96468043Y-47750000D01*
X100015199Y-47750000D01*
X100565000Y-48299802D01*
X100565000Y-48299802D01*
G37*
X100565000Y-48299802D02*
X100565000Y-48465874D01*
X100722569Y-48846280D01*
X101013720Y-49137431D01*
X101394126Y-49295000D01*
X101453631Y-49295000D01*
X101406887Y-49530000D01*
X101518260Y-50089909D01*
X101835423Y-50564577D01*
X102187758Y-50800000D01*
X101835423Y-51035423D01*
X101518260Y-51510091D01*
X101406887Y-52070000D01*
X101518260Y-52629909D01*
X101835423Y-53104577D01*
X102219108Y-53360947D01*
X102014866Y-53457611D01*
X101638959Y-53872577D01*
X101551145Y-54084592D01*
X101289287Y-53822734D01*
X101220385Y-53719615D01*
X100811873Y-53446656D01*
X100451636Y-53375000D01*
X100451632Y-53375000D01*
X100330000Y-53350806D01*
X100208368Y-53375000D01*
X95984623Y-53375000D01*
X95932242Y-53340000D01*
X96284577Y-53104577D01*
X96601740Y-52629909D01*
X96713113Y-52070000D01*
X96601740Y-51510091D01*
X96284577Y-51035423D01*
X95932242Y-50800000D01*
X96284577Y-50564577D01*
X96601740Y-50089909D01*
X96713113Y-49530000D01*
X96601740Y-48970091D01*
X96284577Y-48495423D01*
X95932242Y-48260000D01*
X96284577Y-48024577D01*
X96468043Y-47750000D01*
X100015199Y-47750000D01*
X100565000Y-48299802D01*
G36*
X96647000Y-30353000D02*
X96667000Y-30353000D01*
X96667000Y-30607000D01*
X96647000Y-30607000D01*
X96647000Y-31800155D01*
X96876890Y-31921476D01*
X97286924Y-31751645D01*
X97715183Y-31361358D01*
X97776157Y-31231522D01*
X97989375Y-31550625D01*
X98480582Y-31878839D01*
X98913744Y-31965000D01*
X99206256Y-31965000D01*
X99639418Y-31878839D01*
X100130625Y-31550625D01*
X100330000Y-31252239D01*
X100529375Y-31550625D01*
X101020582Y-31878839D01*
X101453744Y-31965000D01*
X101746256Y-31965000D01*
X102179418Y-31878839D01*
X102670625Y-31550625D01*
X102870000Y-31252239D01*
X103069375Y-31550625D01*
X103560582Y-31878839D01*
X103993744Y-31965000D01*
X104286256Y-31965000D01*
X104719418Y-31878839D01*
X105210625Y-31550625D01*
X105410000Y-31252239D01*
X105609375Y-31550625D01*
X106100582Y-31878839D01*
X106533744Y-31965000D01*
X106826256Y-31965000D01*
X107259418Y-31878839D01*
X107464952Y-31741505D01*
X110013446Y-34290000D01*
X108889981Y-35413466D01*
X108451719Y-35595000D01*
X107953050Y-35595000D01*
X107937809Y-35572191D01*
X107727765Y-35431843D01*
X107480000Y-35382560D01*
X105880000Y-35382560D01*
X105632235Y-35431843D01*
X105422191Y-35572191D01*
X105281843Y-35782235D01*
X105232560Y-36030000D01*
X105232560Y-37630000D01*
X105281843Y-37877765D01*
X105422191Y-38087809D01*
X105632235Y-38228157D01*
X105766106Y-38254785D01*
X105645423Y-38335423D01*
X105461957Y-38610000D01*
X104088043Y-38610000D01*
X103904577Y-38335423D01*
X103429909Y-38018260D01*
X103011333Y-37935000D01*
X102728667Y-37935000D01*
X102310091Y-38018260D01*
X101835423Y-38335423D01*
X101518260Y-38810091D01*
X101406887Y-39370000D01*
X101518260Y-39929909D01*
X101835423Y-40404577D01*
X102187758Y-40640000D01*
X101835423Y-40875423D01*
X101518260Y-41350091D01*
X101406887Y-41910000D01*
X101518260Y-42469909D01*
X101835423Y-42944577D01*
X102187758Y-43180000D01*
X101835423Y-43415423D01*
X101518260Y-43890091D01*
X101406887Y-44450000D01*
X101518260Y-45009909D01*
X101835423Y-45484577D01*
X102187758Y-45720000D01*
X101835423Y-45955423D01*
X101518260Y-46430091D01*
X101406887Y-46990000D01*
X101407405Y-46992603D01*
X100920331Y-46505530D01*
X100877929Y-46442071D01*
X100626537Y-46274096D01*
X100404852Y-46230000D01*
X100404847Y-46230000D01*
X100330000Y-46215112D01*
X100255153Y-46230000D01*
X96468043Y-46230000D01*
X96284577Y-45955423D01*
X95932242Y-45720000D01*
X96284577Y-45484577D01*
X96601740Y-45009909D01*
X96713113Y-44450000D01*
X96601740Y-43890091D01*
X96284577Y-43415423D01*
X95932242Y-43180000D01*
X96284577Y-42944577D01*
X96468043Y-42670000D01*
X98745199Y-42670000D01*
X99295000Y-43219802D01*
X99295000Y-43385874D01*
X99452569Y-43766280D01*
X99743720Y-44057431D01*
X100124126Y-44215000D01*
X100535874Y-44215000D01*
X100916280Y-44057431D01*
X101207431Y-43766280D01*
X101365000Y-43385874D01*
X101365000Y-42974126D01*
X101207431Y-42593720D01*
X100916280Y-42302569D01*
X100535874Y-42145000D01*
X100369802Y-42145000D01*
X99650331Y-41425530D01*
X99607929Y-41362071D01*
X99356537Y-41194096D01*
X99134852Y-41150000D01*
X99134847Y-41150000D01*
X99060000Y-41135112D01*
X98985153Y-41150000D01*
X96468043Y-41150000D01*
X96284577Y-40875423D01*
X96163894Y-40794785D01*
X96297765Y-40768157D01*
X96507809Y-40627809D01*
X96648157Y-40417765D01*
X96697440Y-40170000D01*
X96697440Y-38570000D01*
X96648157Y-38322235D01*
X96507809Y-38112191D01*
X96297765Y-37971843D01*
X96050000Y-37922560D01*
X94450000Y-37922560D01*
X94202235Y-37971843D01*
X93992191Y-38112191D01*
X93851843Y-38322235D01*
X93802560Y-38570000D01*
X93802560Y-40170000D01*
X93851843Y-40417765D01*
X93992191Y-40627809D01*
X94202235Y-40768157D01*
X94336106Y-40794785D01*
X94215423Y-40875423D01*
X93898260Y-41350091D01*
X93786887Y-41910000D01*
X93898260Y-42469909D01*
X94215423Y-42944577D01*
X94567758Y-43180000D01*
X94215423Y-43415423D01*
X93898260Y-43890091D01*
X93786887Y-44450000D01*
X93898260Y-45009909D01*
X94215423Y-45484577D01*
X94567758Y-45720000D01*
X94215423Y-45955423D01*
X93898260Y-46430091D01*
X93786887Y-46990000D01*
X93898260Y-47549909D01*
X94215423Y-48024577D01*
X94567758Y-48260000D01*
X94215423Y-48495423D01*
X93898260Y-48970091D01*
X93786887Y-49530000D01*
X93898260Y-50089909D01*
X94215423Y-50564577D01*
X94567758Y-50800000D01*
X94215423Y-51035423D01*
X93898260Y-51510091D01*
X93786887Y-52070000D01*
X93898260Y-52629909D01*
X94215423Y-53104577D01*
X94567758Y-53340000D01*
X94515377Y-53375000D01*
X92675000Y-53375000D01*
X92675000Y-31871630D01*
X92689387Y-31799299D01*
X92882235Y-31928157D01*
X93130000Y-31977440D01*
X94830000Y-31977440D01*
X95077765Y-31928157D01*
X95287809Y-31787809D01*
X95428157Y-31577765D01*
X95448739Y-31474292D01*
X95753076Y-31751645D01*
X96163110Y-31921476D01*
X96393000Y-31800155D01*
X96393000Y-30607000D01*
X96373000Y-30607000D01*
X96373000Y-30353000D01*
X96393000Y-30353000D01*
X96393000Y-30333000D01*
X96647000Y-30333000D01*
X96647000Y-30353000D01*
X96647000Y-30353000D01*
G37*
X96647000Y-30353000D02*
X96667000Y-30353000D01*
X96667000Y-30607000D01*
X96647000Y-30607000D01*
X96647000Y-31800155D01*
X96876890Y-31921476D01*
X97286924Y-31751645D01*
X97715183Y-31361358D01*
X97776157Y-31231522D01*
X97989375Y-31550625D01*
X98480582Y-31878839D01*
X98913744Y-31965000D01*
X99206256Y-31965000D01*
X99639418Y-31878839D01*
X100130625Y-31550625D01*
X100330000Y-31252239D01*
X100529375Y-31550625D01*
X101020582Y-31878839D01*
X101453744Y-31965000D01*
X101746256Y-31965000D01*
X102179418Y-31878839D01*
X102670625Y-31550625D01*
X102870000Y-31252239D01*
X103069375Y-31550625D01*
X103560582Y-31878839D01*
X103993744Y-31965000D01*
X104286256Y-31965000D01*
X104719418Y-31878839D01*
X105210625Y-31550625D01*
X105410000Y-31252239D01*
X105609375Y-31550625D01*
X106100582Y-31878839D01*
X106533744Y-31965000D01*
X106826256Y-31965000D01*
X107259418Y-31878839D01*
X107464952Y-31741505D01*
X110013446Y-34290000D01*
X108889981Y-35413466D01*
X108451719Y-35595000D01*
X107953050Y-35595000D01*
X107937809Y-35572191D01*
X107727765Y-35431843D01*
X107480000Y-35382560D01*
X105880000Y-35382560D01*
X105632235Y-35431843D01*
X105422191Y-35572191D01*
X105281843Y-35782235D01*
X105232560Y-36030000D01*
X105232560Y-37630000D01*
X105281843Y-37877765D01*
X105422191Y-38087809D01*
X105632235Y-38228157D01*
X105766106Y-38254785D01*
X105645423Y-38335423D01*
X105461957Y-38610000D01*
X104088043Y-38610000D01*
X103904577Y-38335423D01*
X103429909Y-38018260D01*
X103011333Y-37935000D01*
X102728667Y-37935000D01*
X102310091Y-38018260D01*
X101835423Y-38335423D01*
X101518260Y-38810091D01*
X101406887Y-39370000D01*
X101518260Y-39929909D01*
X101835423Y-40404577D01*
X102187758Y-40640000D01*
X101835423Y-40875423D01*
X101518260Y-41350091D01*
X101406887Y-41910000D01*
X101518260Y-42469909D01*
X101835423Y-42944577D01*
X102187758Y-43180000D01*
X101835423Y-43415423D01*
X101518260Y-43890091D01*
X101406887Y-44450000D01*
X101518260Y-45009909D01*
X101835423Y-45484577D01*
X102187758Y-45720000D01*
X101835423Y-45955423D01*
X101518260Y-46430091D01*
X101406887Y-46990000D01*
X101407405Y-46992603D01*
X100920331Y-46505530D01*
X100877929Y-46442071D01*
X100626537Y-46274096D01*
X100404852Y-46230000D01*
X100404847Y-46230000D01*
X100330000Y-46215112D01*
X100255153Y-46230000D01*
X96468043Y-46230000D01*
X96284577Y-45955423D01*
X95932242Y-45720000D01*
X96284577Y-45484577D01*
X96601740Y-45009909D01*
X96713113Y-44450000D01*
X96601740Y-43890091D01*
X96284577Y-43415423D01*
X95932242Y-43180000D01*
X96284577Y-42944577D01*
X96468043Y-42670000D01*
X98745199Y-42670000D01*
X99295000Y-43219802D01*
X99295000Y-43385874D01*
X99452569Y-43766280D01*
X99743720Y-44057431D01*
X100124126Y-44215000D01*
X100535874Y-44215000D01*
X100916280Y-44057431D01*
X101207431Y-43766280D01*
X101365000Y-43385874D01*
X101365000Y-42974126D01*
X101207431Y-42593720D01*
X100916280Y-42302569D01*
X100535874Y-42145000D01*
X100369802Y-42145000D01*
X99650331Y-41425530D01*
X99607929Y-41362071D01*
X99356537Y-41194096D01*
X99134852Y-41150000D01*
X99134847Y-41150000D01*
X99060000Y-41135112D01*
X98985153Y-41150000D01*
X96468043Y-41150000D01*
X96284577Y-40875423D01*
X96163894Y-40794785D01*
X96297765Y-40768157D01*
X96507809Y-40627809D01*
X96648157Y-40417765D01*
X96697440Y-40170000D01*
X96697440Y-38570000D01*
X96648157Y-38322235D01*
X96507809Y-38112191D01*
X96297765Y-37971843D01*
X96050000Y-37922560D01*
X94450000Y-37922560D01*
X94202235Y-37971843D01*
X93992191Y-38112191D01*
X93851843Y-38322235D01*
X93802560Y-38570000D01*
X93802560Y-40170000D01*
X93851843Y-40417765D01*
X93992191Y-40627809D01*
X94202235Y-40768157D01*
X94336106Y-40794785D01*
X94215423Y-40875423D01*
X93898260Y-41350091D01*
X93786887Y-41910000D01*
X93898260Y-42469909D01*
X94215423Y-42944577D01*
X94567758Y-43180000D01*
X94215423Y-43415423D01*
X93898260Y-43890091D01*
X93786887Y-44450000D01*
X93898260Y-45009909D01*
X94215423Y-45484577D01*
X94567758Y-45720000D01*
X94215423Y-45955423D01*
X93898260Y-46430091D01*
X93786887Y-46990000D01*
X93898260Y-47549909D01*
X94215423Y-48024577D01*
X94567758Y-48260000D01*
X94215423Y-48495423D01*
X93898260Y-48970091D01*
X93786887Y-49530000D01*
X93898260Y-50089909D01*
X94215423Y-50564577D01*
X94567758Y-50800000D01*
X94215423Y-51035423D01*
X93898260Y-51510091D01*
X93786887Y-52070000D01*
X93898260Y-52629909D01*
X94215423Y-53104577D01*
X94567758Y-53340000D01*
X94515377Y-53375000D01*
X92675000Y-53375000D01*
X92675000Y-31871630D01*
X92689387Y-31799299D01*
X92882235Y-31928157D01*
X93130000Y-31977440D01*
X94830000Y-31977440D01*
X95077765Y-31928157D01*
X95287809Y-31787809D01*
X95428157Y-31577765D01*
X95448739Y-31474292D01*
X95753076Y-31751645D01*
X96163110Y-31921476D01*
X96393000Y-31800155D01*
X96393000Y-30607000D01*
X96373000Y-30607000D01*
X96373000Y-30353000D01*
X96393000Y-30353000D01*
X96393000Y-30333000D01*
X96647000Y-30333000D01*
X96647000Y-30353000D01*
G36*
X113052193Y-35621036D02*
X113082518Y-36111413D01*
X113211836Y-36423617D01*
X113437265Y-36473130D01*
X114120395Y-35790000D01*
X114106253Y-35775858D01*
X114285858Y-35596253D01*
X114300000Y-35610395D01*
X114314143Y-35596253D01*
X114493748Y-35775858D01*
X114479605Y-35790000D01*
X114493748Y-35804143D01*
X114314143Y-35983748D01*
X114300000Y-35969605D01*
X113616870Y-36652735D01*
X113666383Y-36878164D01*
X114131036Y-37037807D01*
X114515001Y-37014063D01*
X114515001Y-39105655D01*
X114239380Y-38830034D01*
X113454678Y-38505000D01*
X112605322Y-38505000D01*
X112128801Y-38702381D01*
X112056537Y-38654096D01*
X111834852Y-38610000D01*
X111834847Y-38610000D01*
X111760000Y-38595112D01*
X111685153Y-38610000D01*
X107898043Y-38610000D01*
X107714577Y-38335423D01*
X107593894Y-38254785D01*
X107727765Y-38228157D01*
X107937809Y-38087809D01*
X107953050Y-38065000D01*
X108451719Y-38065000D01*
X108934561Y-38265000D01*
X109505439Y-38265000D01*
X110032862Y-38046534D01*
X110436534Y-37642862D01*
X110636534Y-37160019D01*
X112271554Y-35525000D01*
X113085189Y-35525000D01*
X113052193Y-35621036D01*
X113052193Y-35621036D01*
G37*
X113052193Y-35621036D02*
X113082518Y-36111413D01*
X113211836Y-36423617D01*
X113437265Y-36473130D01*
X114120395Y-35790000D01*
X114106253Y-35775858D01*
X114285858Y-35596253D01*
X114300000Y-35610395D01*
X114314143Y-35596253D01*
X114493748Y-35775858D01*
X114479605Y-35790000D01*
X114493748Y-35804143D01*
X114314143Y-35983748D01*
X114300000Y-35969605D01*
X113616870Y-36652735D01*
X113666383Y-36878164D01*
X114131036Y-37037807D01*
X114515001Y-37014063D01*
X114515001Y-39105655D01*
X114239380Y-38830034D01*
X113454678Y-38505000D01*
X112605322Y-38505000D01*
X112128801Y-38702381D01*
X112056537Y-38654096D01*
X111834852Y-38610000D01*
X111834847Y-38610000D01*
X111760000Y-38595112D01*
X111685153Y-38610000D01*
X107898043Y-38610000D01*
X107714577Y-38335423D01*
X107593894Y-38254785D01*
X107727765Y-38228157D01*
X107937809Y-38087809D01*
X107953050Y-38065000D01*
X108451719Y-38065000D01*
X108934561Y-38265000D01*
X109505439Y-38265000D01*
X110032862Y-38046534D01*
X110436534Y-37642862D01*
X110636534Y-37160019D01*
X112271554Y-35525000D01*
X113085189Y-35525000D01*
X113052193Y-35621036D01*
G04 #@! TD*
M02*
