M48
;DRILL file {KiCad (5.0.2)-1} date 02.01.2019 23:13:53
;FORMAT={2:4/ absolute / inch / suppress leading zeros}
FMAT,2
INCH,TZ
T1C0.0157
T2C0.0236
T3C0.0315
T4C0.0394
T5C0.0400
T6C0.0472
T7C0.0598
T8C0.1260
%
G90
G05
T1
X31000Y-27500
X32000Y-22000
X37000Y-29000
X38500Y-25501
X39500Y-17000
X40000Y-19000
T2
X45000Y-13500
X45000Y-14091
T3
X31000Y-18500
X31000Y-23500
X32500Y-14000
X32500Y-31000
X33000Y-23500
X35000Y-17000
X37000Y-14000
X38500Y-20000
X38500Y-22500
X39000Y-26000
X39000Y-27500
X39500Y-16000
X39500Y-31000
X40500Y-31000
X43000Y-14500
X43500Y-23000
X46000Y-13000
X46500Y-21000
X46500Y-31000
X35000Y-11500
X35000Y-15500
X33500Y-11500
X33500Y-15500
X36000Y-21500
X36000Y-22484
X42000Y-21516
X42000Y-22500
X37500Y-15500
X37500Y-16500
X37500Y-17500
X37500Y-18500
X37500Y-19500
X37500Y-20500
X37500Y-21500
X37500Y-22500
X37500Y-23500
X37500Y-24500
X37500Y-25500
X37500Y-26500
X37500Y-27500
X37500Y-28500
X40500Y-15500
X40500Y-16500
X40500Y-17500
X40500Y-18500
X40500Y-19500
X40500Y-20500
X40500Y-21500
X40500Y-22500
X40500Y-23500
X40500Y-24500
X40500Y-25500
X40500Y-26500
X40500Y-27500
X40500Y-28500
X42000Y-23500
X42000Y-24500
X42000Y-25500
X42000Y-26500
X42000Y-27500
X42000Y-28500
X42000Y-14500
X42000Y-15500
X42000Y-16500
X42000Y-17500
X42000Y-18500
X42000Y-19500
X42000Y-20500
X36000Y-23500
X36000Y-24500
X36000Y-25500
X36000Y-26500
X36000Y-27500
X36000Y-28500
T4
X33000Y-19000
X33000Y-20000
X33000Y-21000
X37000Y-12000
X38000Y-12000
X39000Y-12000
X40000Y-12000
X41000Y-12000
X42000Y-12000
X37000Y-30000
X38000Y-30000
X39000Y-30000
X40000Y-30000
X41000Y-30000
X42000Y-30000
X34500Y-19000
X34500Y-20000
X34500Y-21000
T5
X33000Y-24500
X33000Y-25500
X33000Y-26500
X34000Y-24500
X34000Y-25500
X34000Y-26500
T6
X37000Y-32000
X38000Y-32000
X39000Y-32000
X40000Y-32000
X41000Y-32000
X42000Y-32000
T7
X44500Y-16000
X44500Y-18000
X44500Y-26000
X44500Y-28000
X44500Y-30000
X29500Y-20000
X29500Y-22000
X29500Y-24000
X29500Y-26000
X29500Y-28000
X29500Y-30000
X44500Y-20000
X44500Y-22000
X44500Y-24000
X29500Y-14000
X29500Y-16000
X29500Y-18000
T8
X29000Y-32500
X45500Y-32500
X45500Y-11500
X29000Y-11500
T0
M30
