G04 #@! TF.GenerationSoftware,KiCad,Pcbnew,(5.0.2)-1*
G04 #@! TF.CreationDate,2019-01-02T23:13:23+01:00*
G04 #@! TF.ProjectId,ArduinoS88,41726475-696e-46f5-9338-382e6b696361,rev?*
G04 #@! TF.SameCoordinates,Original*
G04 #@! TF.FileFunction,Legend,Top*
G04 #@! TF.FilePolarity,Positive*
%FSLAX46Y46*%
G04 Gerber Fmt 4.6, Leading zero omitted, Abs format (unit mm)*
G04 Created by KiCad (PCBNEW (5.0.2)-1) date 02.01.2019 23:13:23*
%MOMM*%
%LPD*%
G01*
G04 APERTURE LIST*
%ADD10C,0.300000*%
%ADD11C,0.120000*%
%ADD12C,0.150000*%
G04 APERTURE END LIST*
D10*
X77807857Y-80453571D02*
X78307857Y-81953571D01*
X78807857Y-80453571D01*
X79593571Y-80453571D02*
X79736428Y-80453571D01*
X79879285Y-80525000D01*
X79950714Y-80596428D01*
X80022142Y-80739285D01*
X80093571Y-81025000D01*
X80093571Y-81382142D01*
X80022142Y-81667857D01*
X79950714Y-81810714D01*
X79879285Y-81882142D01*
X79736428Y-81953571D01*
X79593571Y-81953571D01*
X79450714Y-81882142D01*
X79379285Y-81810714D01*
X79307857Y-81667857D01*
X79236428Y-81382142D01*
X79236428Y-81025000D01*
X79307857Y-80739285D01*
X79379285Y-80596428D01*
X79450714Y-80525000D01*
X79593571Y-80453571D01*
X80736428Y-81810714D02*
X80807857Y-81882142D01*
X80736428Y-81953571D01*
X80665000Y-81882142D01*
X80736428Y-81810714D01*
X80736428Y-81953571D01*
X82236428Y-81953571D02*
X81379285Y-81953571D01*
X81807857Y-81953571D02*
X81807857Y-80453571D01*
X81665000Y-80667857D01*
X81522142Y-80810714D01*
X81379285Y-80882142D01*
X77950714Y-84075000D02*
X78665000Y-84075000D01*
X77807857Y-84503571D02*
X78307857Y-83003571D01*
X78807857Y-84503571D01*
X79307857Y-84503571D02*
X79307857Y-83503571D01*
X79307857Y-83789285D02*
X79379285Y-83646428D01*
X79450714Y-83575000D01*
X79593571Y-83503571D01*
X79736428Y-83503571D01*
X80879285Y-84503571D02*
X80879285Y-83003571D01*
X80879285Y-84432142D02*
X80736428Y-84503571D01*
X80450714Y-84503571D01*
X80307857Y-84432142D01*
X80236428Y-84360714D01*
X80165000Y-84217857D01*
X80165000Y-83789285D01*
X80236428Y-83646428D01*
X80307857Y-83575000D01*
X80450714Y-83503571D01*
X80736428Y-83503571D01*
X80879285Y-83575000D01*
X82236428Y-83503571D02*
X82236428Y-84503571D01*
X81593571Y-83503571D02*
X81593571Y-84289285D01*
X81665000Y-84432142D01*
X81807857Y-84503571D01*
X82022142Y-84503571D01*
X82165000Y-84432142D01*
X82236428Y-84360714D01*
X82950714Y-84503571D02*
X82950714Y-83503571D01*
X82950714Y-83003571D02*
X82879285Y-83075000D01*
X82950714Y-83146428D01*
X83022142Y-83075000D01*
X82950714Y-83003571D01*
X82950714Y-83146428D01*
X83665000Y-83503571D02*
X83665000Y-84503571D01*
X83665000Y-83646428D02*
X83736428Y-83575000D01*
X83879285Y-83503571D01*
X84093571Y-83503571D01*
X84236428Y-83575000D01*
X84307857Y-83717857D01*
X84307857Y-84503571D01*
X85236428Y-84503571D02*
X85093571Y-84432142D01*
X85022142Y-84360714D01*
X84950714Y-84217857D01*
X84950714Y-83789285D01*
X85022142Y-83646428D01*
X85093571Y-83575000D01*
X85236428Y-83503571D01*
X85450714Y-83503571D01*
X85593571Y-83575000D01*
X85665000Y-83646428D01*
X85736428Y-83789285D01*
X85736428Y-84217857D01*
X85665000Y-84360714D01*
X85593571Y-84432142D01*
X85450714Y-84503571D01*
X85236428Y-84503571D01*
X87450714Y-84432142D02*
X87665000Y-84503571D01*
X88022142Y-84503571D01*
X88165000Y-84432142D01*
X88236428Y-84360714D01*
X88307857Y-84217857D01*
X88307857Y-84075000D01*
X88236428Y-83932142D01*
X88165000Y-83860714D01*
X88022142Y-83789285D01*
X87736428Y-83717857D01*
X87593571Y-83646428D01*
X87522142Y-83575000D01*
X87450714Y-83432142D01*
X87450714Y-83289285D01*
X87522142Y-83146428D01*
X87593571Y-83075000D01*
X87736428Y-83003571D01*
X88093571Y-83003571D01*
X88307857Y-83075000D01*
X89165000Y-83646428D02*
X89022142Y-83575000D01*
X88950714Y-83503571D01*
X88879285Y-83360714D01*
X88879285Y-83289285D01*
X88950714Y-83146428D01*
X89022142Y-83075000D01*
X89165000Y-83003571D01*
X89450714Y-83003571D01*
X89593571Y-83075000D01*
X89665000Y-83146428D01*
X89736428Y-83289285D01*
X89736428Y-83360714D01*
X89665000Y-83503571D01*
X89593571Y-83575000D01*
X89450714Y-83646428D01*
X89165000Y-83646428D01*
X89022142Y-83717857D01*
X88950714Y-83789285D01*
X88879285Y-83932142D01*
X88879285Y-84217857D01*
X88950714Y-84360714D01*
X89022142Y-84432142D01*
X89165000Y-84503571D01*
X89450714Y-84503571D01*
X89593571Y-84432142D01*
X89665000Y-84360714D01*
X89736428Y-84217857D01*
X89736428Y-83932142D01*
X89665000Y-83789285D01*
X89593571Y-83717857D01*
X89450714Y-83646428D01*
X90593571Y-83646428D02*
X90450714Y-83575000D01*
X90379285Y-83503571D01*
X90307857Y-83360714D01*
X90307857Y-83289285D01*
X90379285Y-83146428D01*
X90450714Y-83075000D01*
X90593571Y-83003571D01*
X90879285Y-83003571D01*
X91022142Y-83075000D01*
X91093571Y-83146428D01*
X91165000Y-83289285D01*
X91165000Y-83360714D01*
X91093571Y-83503571D01*
X91022142Y-83575000D01*
X90879285Y-83646428D01*
X90593571Y-83646428D01*
X90450714Y-83717857D01*
X90379285Y-83789285D01*
X90307857Y-83932142D01*
X90307857Y-84217857D01*
X90379285Y-84360714D01*
X90450714Y-84432142D01*
X90593571Y-84503571D01*
X90879285Y-84503571D01*
X91022142Y-84432142D01*
X91093571Y-84360714D01*
X91165000Y-84217857D01*
X91165000Y-83932142D01*
X91093571Y-83789285D01*
X91022142Y-83717857D01*
X90879285Y-83646428D01*
D11*
G04 #@! TO.C,J3*
X80415000Y-72660000D02*
X80415000Y-56880000D01*
X80415000Y-56880000D02*
X89765000Y-56880000D01*
X89765000Y-56880000D02*
X89765000Y-72660000D01*
X89765000Y-72660000D02*
X80415000Y-72660000D01*
X90015000Y-72910000D02*
X90015000Y-70370000D01*
X90015000Y-72910000D02*
X87475000Y-72910000D01*
G04 #@! TO.C,U1*
X101710000Y-38040000D02*
X100060000Y-38040000D01*
X101710000Y-73720000D02*
X101710000Y-38040000D01*
X96410000Y-73720000D02*
X101710000Y-73720000D01*
X96410000Y-38040000D02*
X96410000Y-73720000D01*
X98060000Y-38040000D02*
X96410000Y-38040000D01*
X100060000Y-38040000D02*
G75*
G02X98060000Y-38040000I-1000000J0D01*
G01*
G04 #@! TO.C,J2*
X92650000Y-76200000D02*
X92650000Y-75090000D01*
X92650000Y-75090000D02*
X93980000Y-75090000D01*
X92650000Y-86290000D02*
X108010000Y-86290000D01*
X108010000Y-86290000D02*
X108010000Y-77660000D01*
X92650000Y-77660000D02*
X108010000Y-77660000D01*
X92650000Y-86290000D02*
X92650000Y-77660000D01*
X105410000Y-86290000D02*
X105410000Y-77660000D01*
X102870000Y-86290000D02*
X102870000Y-77660000D01*
X100330000Y-86290000D02*
X100330000Y-77660000D01*
X97790000Y-86290000D02*
X97790000Y-77660000D01*
X95250000Y-86290000D02*
X95250000Y-77660000D01*
X107040000Y-77660000D02*
X107040000Y-77250000D01*
X106320000Y-77660000D02*
X106320000Y-77250000D01*
X104500000Y-77660000D02*
X104500000Y-77250000D01*
X103780000Y-77660000D02*
X103780000Y-77250000D01*
X101960000Y-77660000D02*
X101960000Y-77250000D01*
X101240000Y-77660000D02*
X101240000Y-77250000D01*
X99420000Y-77660000D02*
X99420000Y-77250000D01*
X98700000Y-77660000D02*
X98700000Y-77250000D01*
X96880000Y-77660000D02*
X96880000Y-77250000D01*
X96160000Y-77660000D02*
X96160000Y-77250000D01*
X94340000Y-77660000D02*
X94340000Y-77310000D01*
X93620000Y-77660000D02*
X93620000Y-77310000D01*
X95131900Y-86290000D02*
X95131900Y-77660000D01*
X95013805Y-86290000D02*
X95013805Y-77660000D01*
X94895710Y-86290000D02*
X94895710Y-77660000D01*
X94777615Y-86290000D02*
X94777615Y-77660000D01*
X94659520Y-86290000D02*
X94659520Y-77660000D01*
X94541425Y-86290000D02*
X94541425Y-77660000D01*
X94423330Y-86290000D02*
X94423330Y-77660000D01*
X94305235Y-86290000D02*
X94305235Y-77660000D01*
X94187140Y-86290000D02*
X94187140Y-77660000D01*
X94069045Y-86290000D02*
X94069045Y-77660000D01*
X93950950Y-86290000D02*
X93950950Y-77660000D01*
X93832855Y-86290000D02*
X93832855Y-77660000D01*
X93714760Y-86290000D02*
X93714760Y-77660000D01*
X93596665Y-86290000D02*
X93596665Y-77660000D01*
X93478570Y-86290000D02*
X93478570Y-77660000D01*
X93360475Y-86290000D02*
X93360475Y-77660000D01*
X93242380Y-86290000D02*
X93242380Y-77660000D01*
X93124285Y-86290000D02*
X93124285Y-77660000D01*
X93006190Y-86290000D02*
X93006190Y-77660000D01*
X92888095Y-86290000D02*
X92888095Y-77660000D01*
X92770000Y-86290000D02*
X92770000Y-77660000D01*
G04 #@! TO.C,J1*
X92710000Y-31750000D02*
X92710000Y-30480000D01*
X93980000Y-31750000D02*
X92710000Y-31750000D01*
X107060000Y-29437071D02*
X107060000Y-29040000D01*
X106300000Y-29437071D02*
X106300000Y-29040000D01*
X107060000Y-20380000D02*
X107060000Y-26380000D01*
X106300000Y-20380000D02*
X107060000Y-20380000D01*
X106300000Y-26380000D02*
X106300000Y-20380000D01*
X105410000Y-29040000D02*
X105410000Y-26380000D01*
X104520000Y-29437071D02*
X104520000Y-29040000D01*
X103760000Y-29437071D02*
X103760000Y-29040000D01*
X104520000Y-20380000D02*
X104520000Y-26380000D01*
X103760000Y-20380000D02*
X104520000Y-20380000D01*
X103760000Y-26380000D02*
X103760000Y-20380000D01*
X102870000Y-29040000D02*
X102870000Y-26380000D01*
X101980000Y-29437071D02*
X101980000Y-29040000D01*
X101220000Y-29437071D02*
X101220000Y-29040000D01*
X101980000Y-20380000D02*
X101980000Y-26380000D01*
X101220000Y-20380000D02*
X101980000Y-20380000D01*
X101220000Y-26380000D02*
X101220000Y-20380000D01*
X100330000Y-29040000D02*
X100330000Y-26380000D01*
X99440000Y-29437071D02*
X99440000Y-29040000D01*
X98680000Y-29437071D02*
X98680000Y-29040000D01*
X99440000Y-20380000D02*
X99440000Y-26380000D01*
X98680000Y-20380000D02*
X99440000Y-20380000D01*
X98680000Y-26380000D02*
X98680000Y-20380000D01*
X97790000Y-29040000D02*
X97790000Y-26380000D01*
X96900000Y-29437071D02*
X96900000Y-29040000D01*
X96140000Y-29437071D02*
X96140000Y-29040000D01*
X96900000Y-20380000D02*
X96900000Y-26380000D01*
X96140000Y-20380000D02*
X96900000Y-20380000D01*
X96140000Y-26380000D02*
X96140000Y-20380000D01*
X95250000Y-29040000D02*
X95250000Y-26380000D01*
X94360000Y-29370000D02*
X94360000Y-29040000D01*
X93600000Y-29370000D02*
X93600000Y-29040000D01*
X94260000Y-26380000D02*
X94260000Y-20380000D01*
X94140000Y-26380000D02*
X94140000Y-20380000D01*
X94020000Y-26380000D02*
X94020000Y-20380000D01*
X93900000Y-26380000D02*
X93900000Y-20380000D01*
X93780000Y-26380000D02*
X93780000Y-20380000D01*
X93660000Y-26380000D02*
X93660000Y-20380000D01*
X94360000Y-20380000D02*
X94360000Y-26380000D01*
X93600000Y-20380000D02*
X94360000Y-20380000D01*
X93600000Y-26380000D02*
X93600000Y-20380000D01*
X92650000Y-26380000D02*
X92650000Y-29040000D01*
X108010000Y-26380000D02*
X92650000Y-26380000D01*
X108010000Y-29040000D02*
X108010000Y-26380000D01*
X92650000Y-29040000D02*
X108010000Y-29040000D01*
G04 #@! TO.C,RN2*
X108080000Y-38100000D02*
X105280000Y-38100000D01*
X108080000Y-53510000D02*
X108080000Y-35390000D01*
X105280000Y-53510000D02*
X108080000Y-53510000D01*
X105280000Y-35390000D02*
X105280000Y-53510000D01*
X108080000Y-35390000D02*
X105280000Y-35390000D01*
G04 #@! TO.C,C1*
X90520000Y-55231000D02*
X90520000Y-56489000D01*
X92360000Y-55231000D02*
X92360000Y-56489000D01*
G04 #@! TO.C,C2*
X107600000Y-56529000D02*
X107600000Y-55271000D01*
X105760000Y-56529000D02*
X105760000Y-55271000D01*
G04 #@! TO.C,C3*
X115695000Y-32970199D02*
X115295000Y-32970199D01*
X115495000Y-32770199D02*
X115495000Y-33170199D01*
X114670000Y-37121000D02*
X113930000Y-37121000D01*
X114837000Y-37081000D02*
X113763000Y-37081000D01*
X114964000Y-37041000D02*
X113636000Y-37041000D01*
X115068000Y-37001000D02*
X113532000Y-37001000D01*
X115159000Y-36961000D02*
X113441000Y-36961000D01*
X115240000Y-36921000D02*
X113360000Y-36921000D01*
X115313000Y-36881000D02*
X113287000Y-36881000D01*
X115380000Y-36841000D02*
X113220000Y-36841000D01*
X115442000Y-36801000D02*
X113158000Y-36801000D01*
X115500000Y-36761000D02*
X113100000Y-36761000D01*
X115554000Y-36721000D02*
X113046000Y-36721000D01*
X115604000Y-36681000D02*
X112996000Y-36681000D01*
X115651000Y-36641000D02*
X112949000Y-36641000D01*
X113460000Y-36601000D02*
X112904000Y-36601000D01*
X115696000Y-36601000D02*
X115140000Y-36601000D01*
X113460000Y-36561000D02*
X112862000Y-36561000D01*
X115738000Y-36561000D02*
X115140000Y-36561000D01*
X113460000Y-36521000D02*
X112822000Y-36521000D01*
X115778000Y-36521000D02*
X115140000Y-36521000D01*
X113460000Y-36481000D02*
X112784000Y-36481000D01*
X115816000Y-36481000D02*
X115140000Y-36481000D01*
X113460000Y-36441000D02*
X112748000Y-36441000D01*
X115852000Y-36441000D02*
X115140000Y-36441000D01*
X113460000Y-36401000D02*
X112713000Y-36401000D01*
X115887000Y-36401000D02*
X115140000Y-36401000D01*
X113460000Y-36361000D02*
X112681000Y-36361000D01*
X115919000Y-36361000D02*
X115140000Y-36361000D01*
X113460000Y-36321000D02*
X112650000Y-36321000D01*
X115950000Y-36321000D02*
X115140000Y-36321000D01*
X113460000Y-36281000D02*
X112620000Y-36281000D01*
X115980000Y-36281000D02*
X115140000Y-36281000D01*
X113460000Y-36241000D02*
X112592000Y-36241000D01*
X116008000Y-36241000D02*
X115140000Y-36241000D01*
X113460000Y-36201000D02*
X112565000Y-36201000D01*
X116035000Y-36201000D02*
X115140000Y-36201000D01*
X113460000Y-36161000D02*
X112540000Y-36161000D01*
X116060000Y-36161000D02*
X115140000Y-36161000D01*
X113460000Y-36121000D02*
X112515000Y-36121000D01*
X116085000Y-36121000D02*
X115140000Y-36121000D01*
X113460000Y-36081000D02*
X112492000Y-36081000D01*
X116108000Y-36081000D02*
X115140000Y-36081000D01*
X113460000Y-36041000D02*
X112470000Y-36041000D01*
X116130000Y-36041000D02*
X115140000Y-36041000D01*
X113460000Y-36001000D02*
X112449000Y-36001000D01*
X116151000Y-36001000D02*
X115140000Y-36001000D01*
X113460000Y-35961000D02*
X112430000Y-35961000D01*
X116170000Y-35961000D02*
X115140000Y-35961000D01*
X113460000Y-35921000D02*
X112411000Y-35921000D01*
X116189000Y-35921000D02*
X115140000Y-35921000D01*
X113460000Y-35881000D02*
X112393000Y-35881000D01*
X116207000Y-35881000D02*
X115140000Y-35881000D01*
X113460000Y-35841000D02*
X112376000Y-35841000D01*
X116224000Y-35841000D02*
X115140000Y-35841000D01*
X113460000Y-35801000D02*
X112360000Y-35801000D01*
X116240000Y-35801000D02*
X115140000Y-35801000D01*
X113460000Y-35761000D02*
X112346000Y-35761000D01*
X116254000Y-35761000D02*
X115140000Y-35761000D01*
X113460000Y-35720000D02*
X112332000Y-35720000D01*
X116268000Y-35720000D02*
X115140000Y-35720000D01*
X113460000Y-35680000D02*
X112318000Y-35680000D01*
X116282000Y-35680000D02*
X115140000Y-35680000D01*
X113460000Y-35640000D02*
X112306000Y-35640000D01*
X116294000Y-35640000D02*
X115140000Y-35640000D01*
X113460000Y-35600000D02*
X112295000Y-35600000D01*
X116305000Y-35600000D02*
X115140000Y-35600000D01*
X113460000Y-35560000D02*
X112284000Y-35560000D01*
X116316000Y-35560000D02*
X115140000Y-35560000D01*
X113460000Y-35520000D02*
X112275000Y-35520000D01*
X116325000Y-35520000D02*
X115140000Y-35520000D01*
X113460000Y-35480000D02*
X112266000Y-35480000D01*
X116334000Y-35480000D02*
X115140000Y-35480000D01*
X113460000Y-35440000D02*
X112258000Y-35440000D01*
X116342000Y-35440000D02*
X115140000Y-35440000D01*
X113460000Y-35400000D02*
X112250000Y-35400000D01*
X116350000Y-35400000D02*
X115140000Y-35400000D01*
X113460000Y-35360000D02*
X112244000Y-35360000D01*
X116356000Y-35360000D02*
X115140000Y-35360000D01*
X113460000Y-35320000D02*
X112238000Y-35320000D01*
X116362000Y-35320000D02*
X115140000Y-35320000D01*
X113460000Y-35280000D02*
X112233000Y-35280000D01*
X116367000Y-35280000D02*
X115140000Y-35280000D01*
X113460000Y-35240000D02*
X112229000Y-35240000D01*
X116371000Y-35240000D02*
X115140000Y-35240000D01*
X113460000Y-35200000D02*
X112226000Y-35200000D01*
X116374000Y-35200000D02*
X115140000Y-35200000D01*
X113460000Y-35160000D02*
X112223000Y-35160000D01*
X116377000Y-35160000D02*
X115140000Y-35160000D01*
X116379000Y-35120000D02*
X115140000Y-35120000D01*
X113460000Y-35120000D02*
X112221000Y-35120000D01*
X116380000Y-35080000D02*
X115140000Y-35080000D01*
X113460000Y-35080000D02*
X112220000Y-35080000D01*
X116380000Y-35040000D02*
X115140000Y-35040000D01*
X113460000Y-35040000D02*
X112220000Y-35040000D01*
X116420000Y-35040000D02*
G75*
G03X116420000Y-35040000I-2120000J0D01*
G01*
G04 #@! TO.C,J4*
X71120000Y-33020000D02*
X71120000Y-48260000D01*
X78740000Y-33020000D02*
X78740000Y-48260000D01*
X72390000Y-33020000D02*
X72390000Y-48260000D01*
X71120000Y-48260000D02*
X78740000Y-48260000D01*
X71120000Y-33020000D02*
X78740000Y-33020000D01*
G04 #@! TO.C,J5*
X71120000Y-48260000D02*
X71120000Y-63500000D01*
X78740000Y-48260000D02*
X78740000Y-63500000D01*
X72390000Y-48260000D02*
X72390000Y-63500000D01*
X71120000Y-63500000D02*
X78740000Y-63500000D01*
X71120000Y-48260000D02*
X78740000Y-48260000D01*
G04 #@! TO.C,J6*
X71120000Y-63500000D02*
X71120000Y-78740000D01*
X78740000Y-63500000D02*
X78740000Y-78740000D01*
X72390000Y-63500000D02*
X72390000Y-78740000D01*
X71120000Y-78740000D02*
X78740000Y-78740000D01*
X71120000Y-63500000D02*
X78740000Y-63500000D01*
G04 #@! TO.C,J7*
X116840000Y-78740000D02*
X116840000Y-63500000D01*
X109220000Y-78740000D02*
X109220000Y-63500000D01*
X115570000Y-78740000D02*
X115570000Y-63500000D01*
X116840000Y-63500000D02*
X109220000Y-63500000D01*
X116840000Y-78740000D02*
X109220000Y-78740000D01*
G04 #@! TO.C,J8*
X116840000Y-63500000D02*
X116840000Y-48260000D01*
X109220000Y-63500000D02*
X109220000Y-48260000D01*
X115570000Y-63500000D02*
X115570000Y-48260000D01*
X116840000Y-48260000D02*
X109220000Y-48260000D01*
X116840000Y-63500000D02*
X109220000Y-63500000D01*
G04 #@! TO.C,J9*
X116840000Y-48260000D02*
X116840000Y-38100000D01*
X109220000Y-48260000D02*
X116840000Y-48260000D01*
X109220000Y-38100000D02*
X109220000Y-48260000D01*
X116840000Y-38100000D02*
X109220000Y-38100000D01*
X115570000Y-38100000D02*
X115570000Y-48260000D01*
G04 #@! TO.C,JP5*
X86300000Y-46930000D02*
X87630000Y-46930000D01*
X86300000Y-48260000D02*
X86300000Y-46930000D01*
X86300000Y-49530000D02*
X88960000Y-49530000D01*
X88960000Y-49530000D02*
X88960000Y-54670000D01*
X86300000Y-49530000D02*
X86300000Y-54670000D01*
X86300000Y-54670000D02*
X88960000Y-54670000D01*
G04 #@! TO.C,JP6*
X82490000Y-46930000D02*
X83820000Y-46930000D01*
X82490000Y-48260000D02*
X82490000Y-46930000D01*
X82490000Y-49530000D02*
X85150000Y-49530000D01*
X85150000Y-49530000D02*
X85150000Y-54670000D01*
X82490000Y-49530000D02*
X82490000Y-54670000D01*
X82490000Y-54670000D02*
X85150000Y-54670000D01*
G04 #@! TO.C,R1*
X88900000Y-38330000D02*
X88900000Y-37560000D01*
X88900000Y-30250000D02*
X88900000Y-31020000D01*
X90270000Y-37560000D02*
X90270000Y-31020000D01*
X87530000Y-37560000D02*
X90270000Y-37560000D01*
X87530000Y-31020000D02*
X87530000Y-37560000D01*
X90270000Y-31020000D02*
X87530000Y-31020000D01*
G04 #@! TO.C,R2*
X85090000Y-38330000D02*
X85090000Y-37560000D01*
X85090000Y-30250000D02*
X85090000Y-31020000D01*
X86460000Y-37560000D02*
X86460000Y-31020000D01*
X83720000Y-37560000D02*
X86460000Y-37560000D01*
X83720000Y-31020000D02*
X83720000Y-37560000D01*
X86460000Y-31020000D02*
X83720000Y-31020000D01*
G04 #@! TO.C,RN1*
X92840000Y-60960000D02*
X90040000Y-60960000D01*
X92840000Y-73830000D02*
X92840000Y-58250000D01*
X90040000Y-73830000D02*
X92840000Y-73830000D01*
X90040000Y-58250000D02*
X90040000Y-73830000D01*
X92840000Y-58250000D02*
X90040000Y-58250000D01*
G04 #@! TO.C,RN3*
X108080000Y-58250000D02*
X105280000Y-58250000D01*
X105280000Y-58250000D02*
X105280000Y-73830000D01*
X105280000Y-73830000D02*
X108080000Y-73830000D01*
X108080000Y-73830000D02*
X108080000Y-58250000D01*
X108080000Y-60960000D02*
X105280000Y-60960000D01*
G04 #@! TO.C,J10*
X92600000Y-78250000D02*
X92600000Y-84270000D01*
X92600000Y-84270000D02*
X108060000Y-84270000D01*
X108060000Y-84270000D02*
X108060000Y-78250000D01*
X108060000Y-78250000D02*
X92600000Y-78250000D01*
X92310000Y-79280000D02*
X92310000Y-83280000D01*
X93980000Y-84270000D02*
X93980000Y-83270000D01*
X93980000Y-83270000D02*
X106680000Y-83270000D01*
X106680000Y-83270000D02*
X106680000Y-84270000D01*
X93980000Y-83270000D02*
X94230000Y-82740000D01*
X94230000Y-82740000D02*
X106430000Y-82740000D01*
X106430000Y-82740000D02*
X106680000Y-83270000D01*
X94230000Y-84270000D02*
X94230000Y-83270000D01*
X106430000Y-84270000D02*
X106430000Y-83270000D01*
X93180000Y-78250000D02*
X93180000Y-78850000D01*
X93180000Y-78850000D02*
X94780000Y-78850000D01*
X94780000Y-78850000D02*
X94780000Y-78250000D01*
X95720000Y-78250000D02*
X95720000Y-78850000D01*
X95720000Y-78850000D02*
X97320000Y-78850000D01*
X97320000Y-78850000D02*
X97320000Y-78250000D01*
X98260000Y-78250000D02*
X98260000Y-78850000D01*
X98260000Y-78850000D02*
X99860000Y-78850000D01*
X99860000Y-78850000D02*
X99860000Y-78250000D01*
X100800000Y-78250000D02*
X100800000Y-78850000D01*
X100800000Y-78850000D02*
X102400000Y-78850000D01*
X102400000Y-78850000D02*
X102400000Y-78250000D01*
X103340000Y-78250000D02*
X103340000Y-78850000D01*
X103340000Y-78850000D02*
X104940000Y-78850000D01*
X104940000Y-78850000D02*
X104940000Y-78250000D01*
X105880000Y-78250000D02*
X105880000Y-78850000D01*
X105880000Y-78850000D02*
X107480000Y-78850000D01*
X107480000Y-78850000D02*
X107480000Y-78250000D01*
G04 #@! TO.C,J3*
D12*
X84756666Y-73366380D02*
X84756666Y-74080666D01*
X84709047Y-74223523D01*
X84613809Y-74318761D01*
X84470952Y-74366380D01*
X84375714Y-74366380D01*
X85137619Y-73366380D02*
X85756666Y-73366380D01*
X85423333Y-73747333D01*
X85566190Y-73747333D01*
X85661428Y-73794952D01*
X85709047Y-73842571D01*
X85756666Y-73937809D01*
X85756666Y-74175904D01*
X85709047Y-74271142D01*
X85661428Y-74318761D01*
X85566190Y-74366380D01*
X85280476Y-74366380D01*
X85185238Y-74318761D01*
X85137619Y-74271142D01*
G04 #@! TO.C,U1*
X98298095Y-36492380D02*
X98298095Y-37301904D01*
X98345714Y-37397142D01*
X98393333Y-37444761D01*
X98488571Y-37492380D01*
X98679047Y-37492380D01*
X98774285Y-37444761D01*
X98821904Y-37397142D01*
X98869523Y-37301904D01*
X98869523Y-36492380D01*
X99869523Y-37492380D02*
X99298095Y-37492380D01*
X99583809Y-37492380D02*
X99583809Y-36492380D01*
X99488571Y-36635238D01*
X99393333Y-36730476D01*
X99298095Y-36778095D01*
G04 #@! TO.C,J2*
X90662380Y-80913333D02*
X91376666Y-80913333D01*
X91519523Y-80960952D01*
X91614761Y-81056190D01*
X91662380Y-81199047D01*
X91662380Y-81294285D01*
X90757619Y-80484761D02*
X90710000Y-80437142D01*
X90662380Y-80341904D01*
X90662380Y-80103809D01*
X90710000Y-80008571D01*
X90757619Y-79960952D01*
X90852857Y-79913333D01*
X90948095Y-79913333D01*
X91090952Y-79960952D01*
X91662380Y-80532380D01*
X91662380Y-79913333D01*
G04 #@! TO.C,J1*
X91162380Y-26428333D02*
X91876666Y-26428333D01*
X92019523Y-26475952D01*
X92114761Y-26571190D01*
X92162380Y-26714047D01*
X92162380Y-26809285D01*
X92162380Y-25428333D02*
X92162380Y-25999761D01*
X92162380Y-25714047D02*
X91162380Y-25714047D01*
X91305238Y-25809285D01*
X91400476Y-25904523D01*
X91448095Y-25999761D01*
G04 #@! TO.C,RN2*
X104592380Y-37520476D02*
X104116190Y-37853809D01*
X104592380Y-38091904D02*
X103592380Y-38091904D01*
X103592380Y-37710952D01*
X103640000Y-37615714D01*
X103687619Y-37568095D01*
X103782857Y-37520476D01*
X103925714Y-37520476D01*
X104020952Y-37568095D01*
X104068571Y-37615714D01*
X104116190Y-37710952D01*
X104116190Y-38091904D01*
X104592380Y-37091904D02*
X103592380Y-37091904D01*
X104592380Y-36520476D01*
X103592380Y-36520476D01*
X103687619Y-36091904D02*
X103640000Y-36044285D01*
X103592380Y-35949047D01*
X103592380Y-35710952D01*
X103640000Y-35615714D01*
X103687619Y-35568095D01*
X103782857Y-35520476D01*
X103878095Y-35520476D01*
X104020952Y-35568095D01*
X104592380Y-36139523D01*
X104592380Y-35520476D01*
G04 #@! TO.C,C1*
X93847142Y-56026666D02*
X93894761Y-56074285D01*
X93942380Y-56217142D01*
X93942380Y-56312380D01*
X93894761Y-56455238D01*
X93799523Y-56550476D01*
X93704285Y-56598095D01*
X93513809Y-56645714D01*
X93370952Y-56645714D01*
X93180476Y-56598095D01*
X93085238Y-56550476D01*
X92990000Y-56455238D01*
X92942380Y-56312380D01*
X92942380Y-56217142D01*
X92990000Y-56074285D01*
X93037619Y-56026666D01*
X93942380Y-55074285D02*
X93942380Y-55645714D01*
X93942380Y-55360000D02*
X92942380Y-55360000D01*
X93085238Y-55455238D01*
X93180476Y-55550476D01*
X93228095Y-55645714D01*
G04 #@! TO.C,C2*
X104987142Y-56066666D02*
X105034761Y-56114285D01*
X105082380Y-56257142D01*
X105082380Y-56352380D01*
X105034761Y-56495238D01*
X104939523Y-56590476D01*
X104844285Y-56638095D01*
X104653809Y-56685714D01*
X104510952Y-56685714D01*
X104320476Y-56638095D01*
X104225238Y-56590476D01*
X104130000Y-56495238D01*
X104082380Y-56352380D01*
X104082380Y-56257142D01*
X104130000Y-56114285D01*
X104177619Y-56066666D01*
X104177619Y-55685714D02*
X104130000Y-55638095D01*
X104082380Y-55542857D01*
X104082380Y-55304761D01*
X104130000Y-55209523D01*
X104177619Y-55161904D01*
X104272857Y-55114285D01*
X104368095Y-55114285D01*
X104510952Y-55161904D01*
X105082380Y-55733333D01*
X105082380Y-55114285D01*
G04 #@! TO.C,C3*
X117907142Y-35206666D02*
X117954761Y-35254285D01*
X118002380Y-35397142D01*
X118002380Y-35492380D01*
X117954761Y-35635238D01*
X117859523Y-35730476D01*
X117764285Y-35778095D01*
X117573809Y-35825714D01*
X117430952Y-35825714D01*
X117240476Y-35778095D01*
X117145238Y-35730476D01*
X117050000Y-35635238D01*
X117002380Y-35492380D01*
X117002380Y-35397142D01*
X117050000Y-35254285D01*
X117097619Y-35206666D01*
X117002380Y-34873333D02*
X117002380Y-34254285D01*
X117383333Y-34587619D01*
X117383333Y-34444761D01*
X117430952Y-34349523D01*
X117478571Y-34301904D01*
X117573809Y-34254285D01*
X117811904Y-34254285D01*
X117907142Y-34301904D01*
X117954761Y-34349523D01*
X118002380Y-34444761D01*
X118002380Y-34730476D01*
X117954761Y-34825714D01*
X117907142Y-34873333D01*
G04 #@! TO.C,J4*
X79032380Y-40943333D02*
X79746666Y-40943333D01*
X79889523Y-40990952D01*
X79984761Y-41086190D01*
X80032380Y-41229047D01*
X80032380Y-41324285D01*
X79365714Y-40038571D02*
X80032380Y-40038571D01*
X78984761Y-40276666D02*
X79699047Y-40514761D01*
X79699047Y-39895714D01*
G04 #@! TO.C,J5*
X79032380Y-56183333D02*
X79746666Y-56183333D01*
X79889523Y-56230952D01*
X79984761Y-56326190D01*
X80032380Y-56469047D01*
X80032380Y-56564285D01*
X79032380Y-55230952D02*
X79032380Y-55707142D01*
X79508571Y-55754761D01*
X79460952Y-55707142D01*
X79413333Y-55611904D01*
X79413333Y-55373809D01*
X79460952Y-55278571D01*
X79508571Y-55230952D01*
X79603809Y-55183333D01*
X79841904Y-55183333D01*
X79937142Y-55230952D01*
X79984761Y-55278571D01*
X80032380Y-55373809D01*
X80032380Y-55611904D01*
X79984761Y-55707142D01*
X79937142Y-55754761D01*
G04 #@! TO.C,J6*
X79032380Y-71423333D02*
X79746666Y-71423333D01*
X79889523Y-71470952D01*
X79984761Y-71566190D01*
X80032380Y-71709047D01*
X80032380Y-71804285D01*
X79032380Y-70518571D02*
X79032380Y-70709047D01*
X79080000Y-70804285D01*
X79127619Y-70851904D01*
X79270476Y-70947142D01*
X79460952Y-70994761D01*
X79841904Y-70994761D01*
X79937142Y-70947142D01*
X79984761Y-70899523D01*
X80032380Y-70804285D01*
X80032380Y-70613809D01*
X79984761Y-70518571D01*
X79937142Y-70470952D01*
X79841904Y-70423333D01*
X79603809Y-70423333D01*
X79508571Y-70470952D01*
X79460952Y-70518571D01*
X79413333Y-70613809D01*
X79413333Y-70804285D01*
X79460952Y-70899523D01*
X79508571Y-70947142D01*
X79603809Y-70994761D01*
G04 #@! TO.C,J7*
X111212380Y-80343333D02*
X111926666Y-80343333D01*
X112069523Y-80390952D01*
X112164761Y-80486190D01*
X112212380Y-80629047D01*
X112212380Y-80724285D01*
X111212380Y-79962380D02*
X111212380Y-79295714D01*
X112212380Y-79724285D01*
G04 #@! TO.C,J8*
X107832380Y-56243333D02*
X108546666Y-56243333D01*
X108689523Y-56290952D01*
X108784761Y-56386190D01*
X108832380Y-56529047D01*
X108832380Y-56624285D01*
X108260952Y-55624285D02*
X108213333Y-55719523D01*
X108165714Y-55767142D01*
X108070476Y-55814761D01*
X108022857Y-55814761D01*
X107927619Y-55767142D01*
X107880000Y-55719523D01*
X107832380Y-55624285D01*
X107832380Y-55433809D01*
X107880000Y-55338571D01*
X107927619Y-55290952D01*
X108022857Y-55243333D01*
X108070476Y-55243333D01*
X108165714Y-55290952D01*
X108213333Y-55338571D01*
X108260952Y-55433809D01*
X108260952Y-55624285D01*
X108308571Y-55719523D01*
X108356190Y-55767142D01*
X108451428Y-55814761D01*
X108641904Y-55814761D01*
X108737142Y-55767142D01*
X108784761Y-55719523D01*
X108832380Y-55624285D01*
X108832380Y-55433809D01*
X108784761Y-55338571D01*
X108737142Y-55290952D01*
X108641904Y-55243333D01*
X108451428Y-55243333D01*
X108356190Y-55290952D01*
X108308571Y-55338571D01*
X108260952Y-55433809D01*
G04 #@! TO.C,J9*
X111212380Y-37163333D02*
X111926666Y-37163333D01*
X112069523Y-37210952D01*
X112164761Y-37306190D01*
X112212380Y-37449047D01*
X112212380Y-37544285D01*
X112212380Y-36639523D02*
X112212380Y-36449047D01*
X112164761Y-36353809D01*
X112117142Y-36306190D01*
X111974285Y-36210952D01*
X111783809Y-36163333D01*
X111402857Y-36163333D01*
X111307619Y-36210952D01*
X111260000Y-36258571D01*
X111212380Y-36353809D01*
X111212380Y-36544285D01*
X111260000Y-36639523D01*
X111307619Y-36687142D01*
X111402857Y-36734761D01*
X111640952Y-36734761D01*
X111736190Y-36687142D01*
X111783809Y-36639523D01*
X111831428Y-36544285D01*
X111831428Y-36353809D01*
X111783809Y-36258571D01*
X111736190Y-36210952D01*
X111640952Y-36163333D01*
G04 #@! TO.C,JP5*
X86796666Y-45382380D02*
X86796666Y-46096666D01*
X86749047Y-46239523D01*
X86653809Y-46334761D01*
X86510952Y-46382380D01*
X86415714Y-46382380D01*
X87272857Y-46382380D02*
X87272857Y-45382380D01*
X87653809Y-45382380D01*
X87749047Y-45430000D01*
X87796666Y-45477619D01*
X87844285Y-45572857D01*
X87844285Y-45715714D01*
X87796666Y-45810952D01*
X87749047Y-45858571D01*
X87653809Y-45906190D01*
X87272857Y-45906190D01*
X88749047Y-45382380D02*
X88272857Y-45382380D01*
X88225238Y-45858571D01*
X88272857Y-45810952D01*
X88368095Y-45763333D01*
X88606190Y-45763333D01*
X88701428Y-45810952D01*
X88749047Y-45858571D01*
X88796666Y-45953809D01*
X88796666Y-46191904D01*
X88749047Y-46287142D01*
X88701428Y-46334761D01*
X88606190Y-46382380D01*
X88368095Y-46382380D01*
X88272857Y-46334761D01*
X88225238Y-46287142D01*
G04 #@! TO.C,JP6*
X82986666Y-45382380D02*
X82986666Y-46096666D01*
X82939047Y-46239523D01*
X82843809Y-46334761D01*
X82700952Y-46382380D01*
X82605714Y-46382380D01*
X83462857Y-46382380D02*
X83462857Y-45382380D01*
X83843809Y-45382380D01*
X83939047Y-45430000D01*
X83986666Y-45477619D01*
X84034285Y-45572857D01*
X84034285Y-45715714D01*
X83986666Y-45810952D01*
X83939047Y-45858571D01*
X83843809Y-45906190D01*
X83462857Y-45906190D01*
X84891428Y-45382380D02*
X84700952Y-45382380D01*
X84605714Y-45430000D01*
X84558095Y-45477619D01*
X84462857Y-45620476D01*
X84415238Y-45810952D01*
X84415238Y-46191904D01*
X84462857Y-46287142D01*
X84510476Y-46334761D01*
X84605714Y-46382380D01*
X84796190Y-46382380D01*
X84891428Y-46334761D01*
X84939047Y-46287142D01*
X84986666Y-46191904D01*
X84986666Y-45953809D01*
X84939047Y-45858571D01*
X84891428Y-45810952D01*
X84796190Y-45763333D01*
X84605714Y-45763333D01*
X84510476Y-45810952D01*
X84462857Y-45858571D01*
X84415238Y-45953809D01*
G04 #@! TO.C,R1*
X91722380Y-34456666D02*
X91246190Y-34790000D01*
X91722380Y-35028095D02*
X90722380Y-35028095D01*
X90722380Y-34647142D01*
X90770000Y-34551904D01*
X90817619Y-34504285D01*
X90912857Y-34456666D01*
X91055714Y-34456666D01*
X91150952Y-34504285D01*
X91198571Y-34551904D01*
X91246190Y-34647142D01*
X91246190Y-35028095D01*
X91722380Y-33504285D02*
X91722380Y-34075714D01*
X91722380Y-33790000D02*
X90722380Y-33790000D01*
X90865238Y-33885238D01*
X90960476Y-33980476D01*
X91008095Y-34075714D01*
G04 #@! TO.C,R2*
X83002380Y-33186666D02*
X82526190Y-33520000D01*
X83002380Y-33758095D02*
X82002380Y-33758095D01*
X82002380Y-33377142D01*
X82050000Y-33281904D01*
X82097619Y-33234285D01*
X82192857Y-33186666D01*
X82335714Y-33186666D01*
X82430952Y-33234285D01*
X82478571Y-33281904D01*
X82526190Y-33377142D01*
X82526190Y-33758095D01*
X82097619Y-32805714D02*
X82050000Y-32758095D01*
X82002380Y-32662857D01*
X82002380Y-32424761D01*
X82050000Y-32329523D01*
X82097619Y-32281904D01*
X82192857Y-32234285D01*
X82288095Y-32234285D01*
X82430952Y-32281904D01*
X83002380Y-32853333D01*
X83002380Y-32234285D01*
G04 #@! TO.C,RN1*
X94292380Y-68000476D02*
X93816190Y-68333809D01*
X94292380Y-68571904D02*
X93292380Y-68571904D01*
X93292380Y-68190952D01*
X93340000Y-68095714D01*
X93387619Y-68048095D01*
X93482857Y-68000476D01*
X93625714Y-68000476D01*
X93720952Y-68048095D01*
X93768571Y-68095714D01*
X93816190Y-68190952D01*
X93816190Y-68571904D01*
X94292380Y-67571904D02*
X93292380Y-67571904D01*
X94292380Y-67000476D01*
X93292380Y-67000476D01*
X94292380Y-66000476D02*
X94292380Y-66571904D01*
X94292380Y-66286190D02*
X93292380Y-66286190D01*
X93435238Y-66381428D01*
X93530476Y-66476666D01*
X93578095Y-66571904D01*
G04 #@! TO.C,RN3*
X109672380Y-73080476D02*
X109196190Y-73413809D01*
X109672380Y-73651904D02*
X108672380Y-73651904D01*
X108672380Y-73270952D01*
X108720000Y-73175714D01*
X108767619Y-73128095D01*
X108862857Y-73080476D01*
X109005714Y-73080476D01*
X109100952Y-73128095D01*
X109148571Y-73175714D01*
X109196190Y-73270952D01*
X109196190Y-73651904D01*
X109672380Y-72651904D02*
X108672380Y-72651904D01*
X109672380Y-72080476D01*
X108672380Y-72080476D01*
X108672380Y-71699523D02*
X108672380Y-71080476D01*
X109053333Y-71413809D01*
X109053333Y-71270952D01*
X109100952Y-71175714D01*
X109148571Y-71128095D01*
X109243809Y-71080476D01*
X109481904Y-71080476D01*
X109577142Y-71128095D01*
X109624761Y-71175714D01*
X109672380Y-71270952D01*
X109672380Y-71556666D01*
X109624761Y-71651904D01*
X109577142Y-71699523D01*
G04 #@! TO.C,J10*
X99520476Y-76612380D02*
X99520476Y-77326666D01*
X99472857Y-77469523D01*
X99377619Y-77564761D01*
X99234761Y-77612380D01*
X99139523Y-77612380D01*
X100520476Y-77612380D02*
X99949047Y-77612380D01*
X100234761Y-77612380D02*
X100234761Y-76612380D01*
X100139523Y-76755238D01*
X100044285Y-76850476D01*
X99949047Y-76898095D01*
X101139523Y-76612380D02*
X101234761Y-76612380D01*
X101330000Y-76660000D01*
X101377619Y-76707619D01*
X101425238Y-76802857D01*
X101472857Y-76993333D01*
X101472857Y-77231428D01*
X101425238Y-77421904D01*
X101377619Y-77517142D01*
X101330000Y-77564761D01*
X101234761Y-77612380D01*
X101139523Y-77612380D01*
X101044285Y-77564761D01*
X100996666Y-77517142D01*
X100949047Y-77421904D01*
X100901428Y-77231428D01*
X100901428Y-76993333D01*
X100949047Y-76802857D01*
X100996666Y-76707619D01*
X101044285Y-76660000D01*
X101139523Y-76612380D01*
G04 #@! TD*
M02*
